<?xml version="1.0" standalone="no"?>
<!DOCTYPE svg PUBLIC "-//W3C//DTD SVG 1.1//EN" "http://www.w3.org/Graphics/SVG/1.1/DTD/svg11.dtd" >
<svg xmlns="http://www.w3.org/2000/svg" xmlns:xlink="http://www.w3.org/1999/xlink" version="1.1">
<metadata>
Created by FontForge 20201107 at Tue Dec 15 14:17:46 2020
 By jaonhax
- Created with Type 3.2
</metadata>
<defs>
<font id="Dovahzul" horiz-adv-x="882" >
  <font-face 
    font-family="Dovahzul"
    font-weight="400"
    font-stretch="normal"
    units-per-em="1024"
    panose-1="2 11 6 0 5 3 2 2 2 4"
    ascent="819"
    descent="-205"
    x-height="676"
    cap-height="726"
    bbox="-1244.14 -101 3680 1547"
    underline-thickness="0"
    underline-position="-195"
    unicode-range="U+0020-FF64"
  />
<missing-glyph horiz-adv-x="512" 
 />
    <glyph glyph-name="a_a" unicode="AA" horiz-adv-x="890" 
d="M568 718q9 0 111 -90q30 -17 32 -25v-10q0 -16 -48 -38q-106 -79 -233 -178q-50 0 -102 -40q-164 -108 -199 -122l-2 4q0 32 156 158q6 5 18 8l10 -2h17q18 0 26 22l110 91q72 58 72 84q0 5 36 33q4 12 4 15q0 20 -22 49q0 26 14 42v0v-1zM170 682h12q70 -54 92 -76v-6
q-8 -10 -92 -76h-6q-12 0 -96 76v8q7 7 90 73v0v1zM688 450q42 -32 42 -62q24 -218 36 -218q16 -12 16 -61q2 -26 28 -92q-7 -6 -15 -6h-141q-6 0 -42 -12q-8 18 -8 34q16 26 78 46q12 11 15 25q-10 26 -10 27q0 35 6 111l-8 205l4 1v0v1z" />
    <glyph glyph-name="a_h" unicode="AH" horiz-adv-x="959" 
d="M324 727q8 0 11 -4v-4q0 -3 -1 -7q-24 -56 -28 -70q-3 -12 -10 -82q-1 -2 -5 -7q-6 -7 -9 -13q-13 -20 -19 -50q-28 -228 -31 -239q-3 -10 -45 -46q-2 -2 -3 -2q-4 0 -4 6v3q10 148 10 218v27l-8 134q14 13 14 27q0 6 -3 12q-7 18 -31 26l-40 15q-10 1 -38 31q-1 3 -1 7
q0 12 8 36q46 -18 56 -18h182h-5zM822 724q6 0 9 -4q1 -2 1 -6q0 -3 -1 -6q-24 -56 -28 -70q-4 -12 -10 -82q-1 -1 -6 -7t-8 -12q-14 -20 -20 -50q-29 -228 -32 -240q-3 -10 -45 -46q-2 -1 -4 -1q-3 0 -3 8v2q10 152 10 222v21l-8 134q13 14 13 28q0 6 -3 12q-8 18 -30 26
l-42 14q-10 1 -38 32q-1 2 -1 6q0 12 8 36q46 -18 55 -18h182zM594 454q7 0 10 -4q1 -2 1 -4q0 -3 -2 -6q-24 -58 -28 -72q-3 -12 -9 -82q-1 -2 -7 -7q-5 -6 -9 -12q-14 -20 -20 -50q-28 -171 -32 -183q-3 -10 -44 -46q-3 -2 -4 -2q-3 0 -3 8v2q9 144 9 180v6l-8 134
q14 13 14 27q0 6 -2 14q-8 18 -32 25l-41 16q-10 1 -38 31q-2 2 -2 7q0 12 8 36q46 -18 56 -18h182v0v1z" />
    <glyph glyph-name="e_i" unicode="EI" horiz-adv-x="844" 
d="M224 664q40 -39 64 -91q41 0 65 -48q68 -94 68 -101l4 -22v-6q56 -38 56 -73v-4l-2 -3q-60 26 -60 44q-64 79 -134 128q-45 30 -61 63q-3 10 -27 10h-13q-24 0 -54 -22q-48 8 -48 12v2q24 6 136 108q3 2 9 2v0zM602 479q20 -7 109 -88q30 -17 34 -29v-7q0 -18 -46 -38
q-98 -73 -237 -181q-48 0 -92 -34q-170 -112 -208 -128l-2 3q0 35 160 163q8 4 12 4q20 -2 31 -2q18 0 25 26q76 53 172 147q8 13 10 29q40 26 40 46q0 14 -22 48q5 40 14 40v0v1zM668 142q20 -10 97 -78v-6q-87 -77 -99 -77q-10 0 -95 77l-2 4q14 20 95 80h4v0v1v-1z" />
    <glyph glyph-name="e_y" unicode="EY" horiz-adv-x="899" 
d="M164 724q42 -33 42 -61q24 -219 36 -219t20 -81q0 -6 24 -72l-6 -4h-137q-14 0 -54 -13q-8 18 -8 32q12 27 74 47q16 11 16 23v6q0 9 -10 21q6 70 6 124q0 36 -6 195l4 2h-1zM714 720q8 0 97 -76v-6q-9 -14 -94 -78h-4q-9 0 -96 76v8q86 76 98 76v0h-1zM538 454
q10 0 112 -90q29 -16 32 -32q0 -18 -52 -42l-232 -176q-52 0 -122 -53q-120 -77 -179 -111l-2 4q0 34 124 134q32 32 48 32q24 -2 27 -2q24 4 24 22q100 80 154 130q32 28 32 52q38 22 38 46q0 16 -22 46q4 40 15 40v0v0v1z" />
    <glyph glyph-name="i_i" unicode="II" horiz-adv-x="936" 
d="M444 731q34 -14 44 -14h146q3 0 6 -6v-4q-24 -53 -31 -133q-24 -16 -38 -134q-12 -90 -30 -90q0 -3 -22 -23l-6 4q8 104 8 154q0 24 -6 119q10 8 10 22v2q0 25 -66 44q-24 22 -24 30q0 16 8 31v0zM222 664q50 -45 59 -84q0 -7 34 -13q14 -6 62 -78q44 -62 44 -71
q0 -26 18 -34q40 -28 40 -65l-2 -3q-62 28 -62 46q-48 66 -134 128q-43 30 -59 63q-3 10 -27 10h-13q-23 0 -55 -22q-48 8 -48 12v2q24 6 134 106q5 3 8 3v0h1zM710 479h2q27 -12 95 -76q50 -35 50 -46v-2q0 -16 -68 -53l-217 -166q-52 0 -98 -40q-194 -122 -200 -122l-2 3
v2q0 34 162 163q4 0 8 2q20 -2 31 -2q16 0 25 26q84 62 174 151q6 28 21 38q26 12 26 30v2q0 22 -20 46v8q0 26 11 36v0v0zM300 307q10 0 98 -76v-8q-86 -76 -96 -76q-11 0 -98 76v6q46 43 96 77v0v0v1v0z" />
    <glyph glyph-name="i_r" unicode="IR" horiz-adv-x="848" 
d="M44 446q0 8 6 8q2 0 6 -2q48 -18 58 -21q12 -3 70 -7q52 -26 58 -27q190 -22 200 -26q8 -3 38 -35q2 -2 2 -3q0 -2 -6 -2h-2q-122 8 -182 8q-12 0 -21 -1l-113 -6q-11 10 -23 10q-5 0 -10 -2q-16 -6 -22 -24l-12 -34q-1 -7 -27 -29q-2 -1 -6 -1q-10 0 -30 6q14 37 14 44
v146zM78 734q20 -9 167 -29q144 -18 147 -18q2 0 18 -13q16 -14 34 -19q8 -2 150 -34q128 -28 133 -33v-1q0 -6 -20 -11q-18 -4 -36 -4h-6q-162 8 -170 12l-10 8q-2 2 -6 8q-5 6 -7 10q-6 5 -12 8q-5 2 -10 2q-3 0 -6 -1q-8 -5 -14 -5h-1q-4 0 -70 8q-56 6 -90 7
q-14 0 -34 2q-12 1 -19 1h-5q-22 -1 -36 -13q-2 -1 -4 -1q-6 0 -14 2q-14 2 -20 2h-2q-22 0 -34 -24q-2 -4 -4 -18t-4 -16q-20 -20 -34 -20h-4v2q0 3 -4 16q-5 18 -5 30q-3 93 -10 113q-2 7 -2 13q0 9 7 15q6 6 16 6t22 -6v0zM764 345q-20 -8 -138 -98q-120 -92 -118 -92
q-2 -1 -22 -3q-20 -1 -36 -9q-7 -4 -129 -82q-110 -70 -117 -70q-2 1 -2 3q0 6 8 20q11 20 27 33q121 108 130 111q5 2 11 2q4 0 11 -1t11 -1q7 0 14 2q10 4 12 11q3 10 7 14q3 2 55 43q44 34 68 58q9 10 25 23q14 12 18 16q14 16 15 36q4 5 14 12q12 8 16 11q10 10 10 24
q0 8 -4 17q-1 5 -10 17q-8 10 -8 13q0 35 14 42q1 -2 15 -10q18 -10 26 -18q68 -64 86 -72q16 -8 16 -22v-2q-1 -16 -25 -28v0v0v1v-1z" />
    <glyph glyph-name="o_o" unicode="OO" horiz-adv-x="859" 
d="M89 733q20 -8 166 -28q144 -18 147 -18q2 0 16 -13q15 -12 33 -18q8 -2 147 -33q128 -28 132 -33v0v-1q0 -6 -20 -12q-18 -4 -35 -4h-6q-160 8 -170 12q-5 4 -9 8q-2 2 -7 8q-4 6 -7 8q-5 5 -11 9q-6 2 -10 2t-6 -2q-8 -4 -14 -4h-1q-3 0 -67 7q-55 7 -88 7q-14 0 -34 2
q-17 1 -23 1q-22 -1 -36 -15h-3q-6 0 -15 1q-14 3 -18 3h-1q-22 0 -36 -24q-2 -3 -4 -17q-1 -13 -4 -15q-20 -20 -34 -20q-3 0 -4 2v1q0 4 -3 16q-5 18 -6 30q-2 92 -10 112q-2 6 -2 12q0 10 7 16q6 6 15 6q10 0 22 -6v0h-1zM756 74q4 -10 22 -57q2 -4 2 -8q0 -6 -10 -6
h-144q-6 0 -43 -14q-7 20 -7 30q0 3 2 5q22 24 29 25l33 14q18 5 24 21q2 5 2 10q0 12 -10 22l6 112v16q0 58 -8 186v2q0 6 3 6q1 0 3 -2q33 -30 35 -38q3 -10 25 -198q1 -5 27 -57q4 -58 7 -70v0zM480 384q-4 -3 -9 -3q-6 0 -10 3l-83 68q-5 4 -5 8t5 7l83 68q4 3 10 3
q5 0 9 -3l84 -68q6 -3 6 -7t-6 -8l-84 -68v0v1v-1z" />
    <glyph glyph-name="u_u" unicode="UU" horiz-adv-x="788" 
d="M95 729l108 1q3 0 4 -8q1 -3 1 -6q0 -4 -1 -6q-8 -370 -13 -394q-6 -26 -14 -109q-13 -129 -25 -171l-13 -75q-20 4 -20 22l-2 576q-1 14 -7 96q4 7 4 12q0 14 -20 24q-14 8 -30 11q-3 4 -10 34l38 -6v-1zM264 45q22 24 28 25l32 12q18 5 23 19q2 5 2 9q0 12 -9 22l6 104
v18q0 54 -8 173v1q0 6 3 6q1 0 3 -2q31 -28 33 -35q2 -10 24 -187q1 -4 25 -54q5 -54 7 -64q3 -9 21 -54q2 -4 2 -6q0 -6 -9 -6h-135q-6 0 -40 -12q-6 18 -6 28q0 3 1 5v0zM553 469q35 -14 41 -14h136q8 0 8 -6q0 -2 -1 -5q-18 -45 -20 -55q-4 -9 -9 -63q-24 -49 -25 -54
q-20 -178 -23 -186q-2 -8 -33 -37q-2 -1 -3 -1q-2 0 -2 5v2q7 114 7 169v21l-6 104q10 10 10 21q0 4 -2 9q-6 14 -24 20l-30 12q-7 1 -29 23q-1 2 -1 6q0 9 6 29v0v0v1v-1z" />
    <glyph glyph-name="u_r" unicode="UR" horiz-adv-x="884" 
d="M87 42q117 106 126 108q5 2 11 2q3 0 10 -1t11 -1q7 0 13 2q10 4 12 12q2 9 7 13q2 2 52 42q43 34 67 56l23 23q13 11 17 17q14 14 15 34q4 6 14 13q11 7 15 10q11 10 11 24q0 8 -3 16q-2 5 -10 17q-8 10 -8 14q0 32 12 40q1 -2 15 -10q16 -9 24 -17q68 -62 84 -70
q17 -7 17 -21v-1q-1 -16 -25 -26q-20 -8 -134 -96q-116 -88 -115 -88q-1 -1 -20 -3q-20 -1 -36 -9q-8 -4 -126 -80q-108 -69 -115 -69h-1q-1 1 -1 3q0 6 7 18q11 20 27 34v0zM116 736q36 -14 43 -14h142q10 0 10 -6q0 -4 -2 -8q-20 -46 -22 -56q-3 -10 -7 -68
q-26 -51 -27 -55q-22 -186 -25 -195q-2 -8 -34 -36q-2 -2 -3 -2q-3 0 -3 5v2q8 125 8 181v18l-6 110q10 10 10 22q0 5 -2 10q-6 16 -24 21l-32 12q-6 1 -28 25q-1 2 -1 5q0 10 6 30v0zM630 736q36 -14 44 -14h141q10 0 10 -6q0 -4 -2 -8q-18 -46 -22 -56q-3 -10 -7 -68
q-26 -51 -27 -55q-22 -186 -25 -195q-2 -8 -34 -36q-2 -2 -3 -2q-3 0 -3 5v2q8 124 8 182v18l-6 110q10 10 10 22q0 5 -2 10q-6 16 -24 21l-32 12q-6 1 -28 25q-1 2 -1 5q0 10 6 30v0v0v1z" />
    <glyph glyph-name=".notdef" horiz-adv-x="512" 
 />
    <glyph glyph-name="space" unicode=" " horiz-adv-x="512" 
d="M0 0v1v-1z" />
    <glyph glyph-name="zero" unicode="0" horiz-adv-x="898" 
d="M828 346q-8 -1 -20 -9l-26 -40q-24 -40 -30 -54q-2 -5 -49 -11l-1 47v1q0 16 11 34q1 2 1 5q0 7 -7 13q-8 8 -16 9l-32 5q-7 1 -29 9q-4 6 -12 40q52 -4 60 -4h146q7 0 8 -11q2 -10 2 -17q0 -14 -6 -16v0v-1zM593 712q-20 -49 -23 -59q-3 -12 -9 -72q-26 -54 -27 -58
q-24 -197 -27 -207q-2 -8 -37 -38q-1 -2 -2 -2q-3 0 -3 6v2q8 131 8 191v18l-6 116q10 11 10 23q0 5 -2 10q-7 16 -25 21l-34 14q-8 1 -32 27q-1 1 -1 6q0 10 7 30q37 -16 45 -16h150q10 0 10 -6q0 -3 -2 -7v0v1zM562 -14q-1 -1 -3 -1q-5 0 -19 8q-20 11 -33 27
q-112 123 -115 132q-2 6 -2 12q0 3 1 11t1 12q0 7 -2 14q-4 12 -11 14q-10 2 -15 7q-1 4 -43 56q-36 45 -60 71q-9 10 -23 25q-11 14 -17 19q-16 16 -36 17q-6 4 -13 14q-8 12 -12 16q-10 11 -26 11q-8 0 -18 -3q-5 -2 -16 -10q-12 -9 -14 -9q-36 0 -43 14q2 1 10 15
q10 18 18 26q66 70 76 88q7 18 23 18h1q18 -1 28 -28q10 -20 102 -140l94 -122q1 -1 3 -21q1 -22 9 -38q4 -8 85 -133q72 -114 72 -122l-1 -1v0v1h-1z" />
    <glyph glyph-name="a" unicode="A" horiz-adv-x="911" 
d="M624 720q34 -12 40 -12h154q10 0 13 -7q-58 -138 -65 -143q-22 0 -36 -94l-4 -2q-34 7 -34 33v38q0 22 -2 58l14 38q0 20 -64 30q-26 26 -26 30q6 30 10 30v0v1zM292 608q7 0 96 -76v-8q-88 -76 -98 -76t-97 76v8q87 76 99 76v0v0zM520 454h2q23 -8 112 -91
q30 -12 30 -28q2 0 2 -2q-1 -18 -65 -53l-218 -166q-51 0 -120 -53q-122 -78 -180 -110l-2 4q0 34 124 134q32 32 48 32q24 -2 27 -2q20 0 27 24q87 66 175 149q7 34 29 46q18 8 18 28v2q0 16 -22 46q5 40 14 40v0v0v1z" />
    <glyph glyph-name="a" unicode="a" horiz-adv-x="911" 
d="M624 720q34 -12 40 -12h154q10 0 13 -7q-58 -138 -65 -143q-22 0 -36 -94l-4 -2q-34 7 -34 33v38q0 22 -2 58l14 38q0 20 -64 30q-26 26 -26 30q6 30 10 30v0v1zM292 608q7 0 96 -76v-8q-88 -76 -98 -76t-97 76v8q87 76 99 76v0v0zM520 454h2q23 -8 112 -91
q30 -12 30 -28q2 0 2 -2q-1 -18 -65 -53l-218 -166q-51 0 -120 -53q-122 -78 -180 -110l-2 4q0 34 124 134q32 32 48 32q24 -2 27 -2q20 0 27 24q87 66 175 149q7 34 29 46q18 8 18 28v2q0 16 -22 46q5 40 14 40v0v0v1z" />
    <glyph glyph-name="b" unicode="B" horiz-adv-x="897" 
d="M814 718l4 -6v-150l-2 -4q-26 4 -40 22q0 8 -30 12q-18 24 -34 24q-5 0 -17 -6l-86 6q-352 -2 -491 -2q-16 0 -22 22q64 20 457 48q51 18 191 29q51 4 69 4v0zM520 454h2q23 -8 112 -91q30 -12 30 -28q2 0 2 -2q-1 -18 -65 -53l-218 -166q-51 0 -120 -53
q-122 -78 -180 -110l-2 4q0 34 124 134q32 32 48 32q24 -2 27 -2q24 4 24 22q100 80 154 130q32 28 32 52q39 22 39 46q0 16 -22 46q5 40 14 40v0zM660 166h12q90 -72 92 -78v-2q-3 -8 -93 -78h-12q-84 66 -91 76v6q7 10 91 76v0v0v1z" />
    <glyph glyph-name="b" unicode="b" horiz-adv-x="897" 
d="M814 718l4 -6v-150l-2 -4q-26 4 -40 22q0 8 -30 12q-18 24 -34 24q-5 0 -17 -6l-86 6q-352 -2 -491 -2q-16 0 -22 22q64 20 457 48q51 18 191 29q51 4 69 4v0zM520 454h2q23 -8 112 -91q30 -12 30 -28q2 0 2 -2q-1 -18 -65 -53l-218 -166q-51 0 -120 -53
q-122 -78 -180 -110l-2 4q0 34 124 134q32 32 48 32q24 -2 27 -2q24 4 24 22q100 80 154 130q32 28 32 52q39 22 39 46q0 16 -22 46q5 40 14 40v0zM660 166h12q90 -72 92 -78v-2q-3 -8 -93 -78h-12q-84 66 -91 76v6q7 10 91 76v0v0v1z" />
    <glyph glyph-name="glyph14" horiz-adv-x="899" 
d="M164 724q42 -33 42 -61q24 -219 36 -219t20 -81q0 -6 24 -72l-6 -4h-137q-14 0 -54 -13q-8 18 -8 32q12 27 74 47q16 11 16 23v6q0 9 -10 21q6 70 6 124q0 36 -6 195l4 2h-1zM714 720q8 0 97 -76v-6q-9 -14 -94 -78h-4q-9 0 -96 76v8q86 76 98 76v0h-1zM538 454
q10 0 112 -90q29 -16 32 -32q0 -18 -52 -42l-232 -176q-52 0 -122 -53q-120 -77 -179 -111l-2 4q0 34 124 134q32 32 48 32q24 -2 27 -2q24 4 24 22q100 80 154 130q32 28 32 52q38 22 38 46q0 16 -22 46q4 40 15 40v0v0v1z" />
    <glyph glyph-name="d" unicode="D" horiz-adv-x="896" 
d="M84 726q35 -6 50 -6h38q20 0 63 2q5 -10 6 -10q-2 -20 -2 -23q-7 -446 -17 -446q-24 -234 -52 -342q-7 0 -21 16q-2 72 -2 104v265q0 287 -7 353q4 7 4 19q0 16 -56 35l-8 32l4 2v-1zM620 726q33 -14 50 -14h140q3 0 6 -6l-24 -74q-4 -74 -18 -74q-14 -20 -28 -128
q-12 -86 -27 -86q-18 -22 -23 -22q0 4 -4 4q8 114 8 155q0 17 -6 117q6 0 10 20v3q0 24 -66 44q-24 24 -24 27v2q0 17 7 31v0zM468 710q9 0 96 -76v-8q-88 -76 -96 -76q-12 0 -98 78v6q88 76 98 76v0v0v1v-1z" />
    <glyph glyph-name="d" unicode="d" horiz-adv-x="896" 
d="M84 726q35 -6 50 -6h38q20 0 63 2q5 -10 6 -10q-2 -20 -2 -23q-7 -446 -17 -446q-24 -234 -52 -342q-7 0 -21 16q-2 72 -2 104v265q0 287 -7 353q4 7 4 19q0 16 -56 35l-8 32l4 2v-1zM620 726q33 -14 50 -14h140q3 0 6 -6l-24 -74q-4 -74 -18 -74q-14 -20 -28 -128
q-12 -86 -27 -86q-18 -22 -23 -22q0 4 -4 4q8 114 8 155q0 17 -6 117q6 0 10 20v3q0 24 -66 44q-24 24 -24 27v2q0 17 7 31v0zM468 710q9 0 96 -76v-8q-88 -76 -96 -76q-12 0 -98 78v6q88 76 98 76v0v0v1v-1z" />
    <glyph glyph-name="e" unicode="E" 
d="M798 718l4 -6v-150l-2 -4q-26 4 -39 22q0 8 -30 12q-18 24 -33 24q-6 0 -18 -6l-86 6q-352 -2 -491 -2q-16 0 -22 22q64 20 457 48q52 18 193 29q52 4 68 4v0zM538 454q10 0 112 -90q32 -16 32 -34q0 -14 -60 -46l-223 -170q-52 0 -120 -53q-150 -96 -180 -111l-2 4
q0 34 124 134q32 32 48 32q24 -2 27 -2q20 0 26 24q100 76 170 144q6 8 16 36q36 20 36 44q0 18 -22 44q4 42 15 42v0zM252 412q7 0 96 -76v-6q-87 -78 -98 -78h-2q-77 55 -97 80q26 30 96 79h4v0v1h1z" />
    <glyph glyph-name="e" unicode="e" 
d="M798 718l4 -6v-150l-2 -4q-26 4 -39 22q0 8 -30 12q-18 24 -33 24q-6 0 -18 -6l-86 6q-352 -2 -491 -2q-16 0 -22 22q64 20 457 48q52 18 193 29q52 4 68 4v0zM538 454q10 0 112 -90q32 -16 32 -34q0 -14 -60 -46l-223 -170q-52 0 -120 -53q-150 -96 -180 -111l-2 4
q0 34 124 134q32 32 48 32q24 -2 27 -2q20 0 26 24q100 76 170 144q6 8 16 36q36 20 36 44q0 18 -22 44q4 42 15 42v0zM252 412q7 0 96 -76v-6q-87 -78 -98 -78h-2q-77 55 -97 80q26 30 96 79h4v0v1h1z" />
    <glyph glyph-name="f" unicode="F" horiz-adv-x="823" 
d="M586 726q35 -6 51 -6h40q20 0 60 2l7 -12l-2 -13q-6 -446 -21 -446l-32 -274l-16 -77h-2q-20 8 -20 28v4q0 236 -2 606l-6 98q1 16 4 16q0 24 -56 38l-8 34l4 2h-1zM372 610q34 -14 44 -14h156q3 0 6 -6v-2q-44 -104 -66 -141q-24 0 -34 -94h-4q-34 0 -34 40q-2 24 -2 72
v12q0 14 11 42q0 22 -58 30q-5 0 -31 28v1q0 26 10 32v0h2zM86 400h2l44 -12h146q3 0 8 -8q-32 -74 -32 -136q-26 -14 -34 -122q-16 -144 -26 -144l-30 -28q-4 0 -4 4l8 202q-6 72 -6 121q5 0 8 16v8q0 22 -66 42l-24 26q0 5 6 33v0v0v1v-3z" />
    <glyph glyph-name="f" unicode="f" horiz-adv-x="823" 
d="M586 726q35 -6 51 -6h40q20 0 60 2l7 -12l-2 -13q-6 -446 -21 -446l-32 -274l-16 -77h-2q-20 8 -20 28v4q0 236 -2 606l-6 98q1 16 4 16q0 24 -56 38l-8 34l4 2h-1zM372 610q34 -14 44 -14h156q3 0 6 -6v-2q-44 -104 -66 -141q-24 0 -34 -94h-4q-34 0 -34 40q-2 24 -2 72
v12q0 14 11 42q0 22 -58 30q-5 0 -31 28v1q0 26 10 32v0h2zM86 400h2l44 -12h146q3 0 8 -8q-32 -74 -32 -136q-26 -14 -34 -122q-16 -144 -26 -144l-30 -28q-4 0 -4 4l8 202q-6 72 -6 121q5 0 8 16v8q0 22 -66 42l-24 26q0 5 6 33v0v0v1v-3z" />
    <glyph glyph-name="g" unicode="G" horiz-adv-x="920" 
d="M390 728q30 -14 48 -14h139q8 -4 8 -9q-32 -68 -32 -132q-28 -33 -28 -73q-24 -145 -32 -145l-32 -31q-4 0 -4 4q6 130 8 157l-8 116q6 0 10 18v7q0 24 -62 40q-28 24 -28 30q0 20 10 32v0h3zM696 454q24 -9 74 -57q35 -32 63 -50q6 -8 6 -16q0 -15 -59 -46l-224 -170
q-49 0 -113 -48q-138 -89 -188 -115l-2 4v2q2 32 124 132q34 32 48 32q24 -2 27 -2q20 0 30 26q89 68 174 150q5 30 19 38q26 13 26 31v7q0 16 -20 40v8q3 36 15 36v0v-2zM178 160q8 0 97 -78q0 -12 -47 -46q-41 -36 -51 -36q-9 0 -92 70q-5 0 -6 10q22 26 94 78l4 2v0v1z
" />
    <glyph glyph-name="g" unicode="g" horiz-adv-x="920" 
d="M390 728q30 -14 48 -14h139q8 -4 8 -9q-32 -68 -32 -132q-28 -33 -28 -73q-24 -145 -32 -145l-32 -31q-4 0 -4 4q6 130 8 157l-8 116q6 0 10 18v7q0 24 -62 40q-28 24 -28 30q0 20 10 32v0h3zM696 454q24 -9 74 -57q35 -32 63 -50q6 -8 6 -16q0 -15 -59 -46l-224 -170
q-49 0 -113 -48q-138 -89 -188 -115l-2 4v2q2 32 124 132q34 32 48 32q24 -2 27 -2q20 0 30 26q89 68 174 150q5 30 19 38q26 13 26 31v7q0 16 -20 40v8q3 36 15 36v0v-2zM178 160q8 0 97 -78q0 -12 -47 -46q-41 -36 -51 -36q-9 0 -92 70q-5 0 -6 10q22 26 94 78l4 2v0v1z
" />
    <glyph glyph-name="h" unicode="H" horiz-adv-x="790" 
d="M552 726q35 -6 50 -6h38q20 0 63 2q4 -8 6 -8q-2 -28 -2 -31q-5 -430 -19 -430q-8 -45 -32 -271q-14 -72 -18 -82q-10 2 -21 16q-2 173 -2 264v246q0 134 -7 212q4 7 4 19q0 16 -56 35q0 6 -8 32l4 2v0zM170 618h8q12 0 96 -77v-6q-20 -20 -90 -75h-6q-11 0 -96 76v6
q10 14 90 78v0zM380 438q44 -28 44 -73q22 -206 33 -206q18 -16 18 -66q0 -17 26 -84v-4q-2 -6 -17 -6h-138q-6 0 -42 -12q-8 12 -8 30v3q16 26 78 46q12 14 12 30q0 6 -10 19l6 120q0 48 -8 200l4 2v0v1h2z" />
    <glyph glyph-name="h" unicode="h" horiz-adv-x="790" 
d="M552 726q35 -6 50 -6h38q20 0 63 2q4 -8 6 -8q-2 -28 -2 -31q-5 -430 -19 -430q-8 -45 -32 -271q-14 -72 -18 -82q-10 2 -21 16q-2 173 -2 264v246q0 134 -7 212q4 7 4 19q0 16 -56 35q0 6 -8 32l4 2v0zM170 618h8q12 0 96 -77v-6q-20 -20 -90 -75h-6q-11 0 -96 76v6
q10 14 90 78v0zM380 438q44 -28 44 -73q22 -206 33 -206q18 -16 18 -66q0 -17 26 -84v-4q-2 -6 -17 -6h-138q-6 0 -42 -12q-8 12 -8 30v3q16 26 78 46q12 14 12 30q0 6 -10 19l6 120q0 48 -8 200l4 2v0v1h2z" />
    <glyph glyph-name="i" unicode="I" horiz-adv-x="924" 
d="M308 726q35 -6 49 -6h39q20 0 63 2q4 -10 6 -10q0 -4 -2 -22q-5 -442 -21 -442q-27 -250 -39 -298q-5 -46 -9 -50q-22 0 -22 54v256q0 366 -8 430q4 6 4 12q0 22 -55 40l-8 32l4 2h-1zM638 718q32 -12 40 -12h150q16 0 17 -5q0 -12 -64 -144q-25 0 -39 -96h-3
q-33 9 -33 25q-2 49 -2 77v28q0 13 12 31v4q0 24 -56 32q-7 0 -32 28v4q2 30 10 30v0v-2zM82 538q2 0 2 -2q43 -2 63 -2h126q11 0 14 -7v-22q0 -18 -19 -22q-18 -22 -60 -96q-32 -8 -46 -8l-2 4v46q0 12 12 32q0 24 -68 32q-16 0 -24 44q2 0 2 2v0v0v1v-2z" />
    <glyph glyph-name="i" unicode="i" horiz-adv-x="924" 
d="M308 726q35 -6 49 -6h39q20 0 63 2q4 -10 6 -10q0 -4 -2 -22q-5 -442 -21 -442q-27 -250 -39 -298q-5 -46 -9 -50q-22 0 -22 54v256q0 366 -8 430q4 6 4 12q0 22 -55 40l-8 32l4 2h-1zM638 718q32 -12 40 -12h150q16 0 17 -5q0 -12 -64 -144q-25 0 -39 -96h-3
q-33 9 -33 25q-2 49 -2 77v28q0 13 12 31v4q0 24 -56 32q-7 0 -32 28v4q2 30 10 30v0v-2zM82 538q2 0 2 -2q43 -2 63 -2h126q11 0 14 -7v-22q0 -18 -19 -22q-18 -22 -60 -96q-32 -8 -46 -8l-2 4v46q0 12 12 32q0 24 -68 32q-16 0 -24 44q2 0 2 2v0v0v1v-2z" />
    <glyph glyph-name="j" unicode="J" horiz-adv-x="806" 
d="M220 714h4q45 -42 63 -92q42 0 58 -38q76 -100 76 -118q0 -22 16 -30q42 -30 42 -58v-10q-58 22 -58 36q-42 62 -156 149q-22 10 -48 54q-8 4 -16 4h-26q-8 0 -50 -20q-8 0 -46 8v4q24 8 140 109v0zM604 562q42 -32 42 -62q24 -218 36 -218q16 -11 16 -61q3 -26 27 -90
q-7 -6 -15 -6h-136q-9 0 -49 -12q-6 26 -6 34q18 26 78 46q12 12 12 20v10q0 10 -10 18l2 8q2 66 6 106l-8 206l4 2zM148 402q35 -14 44 -14h146q3 0 6 -6v-4q-24 -54 -31 -135q-29 -30 -29 -88q-20 -160 -26 -172q-28 -28 -36 -33q0 4 -4 4q6 87 8 197q0 28 -6 124
q10 6 10 22v2q0 24 -66 44q-24 20 -24 30q0 14 7 32v0v0v1z" />
    <glyph glyph-name="j" unicode="j" horiz-adv-x="806" 
d="M220 714h4q45 -42 63 -92q42 0 58 -38q76 -100 76 -118q0 -22 16 -30q42 -30 42 -58v-10q-58 22 -58 36q-42 62 -156 149q-22 10 -48 54q-8 4 -16 4h-26q-8 0 -50 -20q-8 0 -46 8v4q24 8 140 109v0zM604 562q42 -32 42 -62q24 -218 36 -218q16 -11 16 -61q3 -26 27 -90
q-7 -6 -15 -6h-136q-9 0 -49 -12q-6 26 -6 34q18 26 78 46q12 12 12 20v10q0 10 -10 18l2 8q2 66 6 106l-8 206l4 2zM148 402q35 -14 44 -14h146q3 0 6 -6v-4q-24 -54 -31 -135q-29 -30 -29 -88q-20 -160 -26 -172q-28 -28 -36 -33q0 4 -4 4q6 87 8 197q0 28 -6 124
q10 6 10 22v2q0 24 -66 44q-24 20 -24 30q0 14 7 32v0v0v1z" />
    <glyph glyph-name="k" unicode="C" 
d="M790 720q12 -4 12 -8v-150l-2 -4q-26 4 -46 28q-26 6 -37 21q0 6 -18 10q-10 0 -20 -6q-60 6 -103 6q-154 0 -474 -2q-20 7 -20 21q58 20 454 48q48 18 256 36v0h-2zM792 496q10 -2 10 -5v-150q0 -4 -4 -4q-36 7 -36 23q-10 6 -34 11q-18 22 -29 22h-8q-2 0 -16 -4
q-64 4 -88 4h-416q-26 0 -68 -2q-24 6 -24 21q64 22 449 49q127 30 208 30q0 1 55 5v0h1zM386 328q32 -13 50 -13h152q4 -1 4 -4v-4q-60 -143 -70 -144q-16 0 -32 -92h-2q-34 6 -34 28q-2 72 -2 104l12 34q0 24 -60 30q-28 25 -28 30q3 30 10 31v0v0v1v-1z" />
    <glyph glyph-name="k" unicode="K" 
d="M790 720q12 -4 12 -8v-150l-2 -4q-26 4 -46 28q-26 6 -37 21q0 6 -18 10q-10 0 -20 -6q-60 6 -103 6q-154 0 -474 -2q-20 7 -20 21q58 20 454 48q48 18 256 36v0h-2zM792 496q10 -2 10 -5v-150q0 -4 -4 -4q-36 7 -36 23q-10 6 -34 11q-18 22 -29 22h-8q-2 0 -16 -4
q-64 4 -88 4h-416q-26 0 -68 -2q-24 6 -24 21q64 22 449 49q127 30 208 30q0 1 55 5v0h1zM386 328q32 -13 50 -13h152q4 -1 4 -4v-4q-60 -143 -70 -144q-16 0 -32 -92h-2q-34 6 -34 28q-2 72 -2 104l12 34q0 24 -60 30q-28 25 -28 30q3 30 10 31v0v0v1v-1z" />
    <glyph glyph-name="k" unicode="c" 
d="M790 720q12 -4 12 -8v-150l-2 -4q-26 4 -46 28q-26 6 -37 21q0 6 -18 10q-10 0 -20 -6q-60 6 -103 6q-154 0 -474 -2q-20 7 -20 21q58 20 454 48q48 18 256 36v0h-2zM792 496q10 -2 10 -5v-150q0 -4 -4 -4q-36 7 -36 23q-10 6 -34 11q-18 22 -29 22h-8q-2 0 -16 -4
q-64 4 -88 4h-416q-26 0 -68 -2q-24 6 -24 21q64 22 449 49q127 30 208 30q0 1 55 5v0h1zM386 328q32 -13 50 -13h152q4 -1 4 -4v-4q-60 -143 -70 -144q-16 0 -32 -92h-2q-34 6 -34 28q-2 72 -2 104l12 34q0 24 -60 30q-28 25 -28 30q3 30 10 31v0v0v1v-1z" />
    <glyph glyph-name="k" unicode="k" 
d="M790 720q12 -4 12 -8v-150l-2 -4q-26 4 -46 28q-26 6 -37 21q0 6 -18 10q-10 0 -20 -6q-60 6 -103 6q-154 0 -474 -2q-20 7 -20 21q58 20 454 48q48 18 256 36v0h-2zM792 496q10 -2 10 -5v-150q0 -4 -4 -4q-36 7 -36 23q-10 6 -34 11q-18 22 -29 22h-8q-2 0 -16 -4
q-64 4 -88 4h-416q-26 0 -68 -2q-24 6 -24 21q64 22 449 49q127 30 208 30q0 1 55 5v0h1zM386 328q32 -13 50 -13h152q4 -1 4 -4v-4q-60 -143 -70 -144q-16 0 -32 -92h-2q-34 6 -34 28q-2 72 -2 104l12 34q0 24 -60 30q-28 25 -28 30q3 30 10 31v0v0v1v-1z" />
    <glyph glyph-name="l" unicode="L" horiz-adv-x="922" 
d="M586 736q10 0 112 -92q32 -16 32 -30v-4q0 -16 -60 -46l-222 -170q-49 0 -101 -40q-186 -122 -200 -122h-1v2q0 30 120 128q38 37 50 37h7q10 0 23 -2q26 4 26 24q94 70 174 151q6 5 10 29q40 24 40 44q0 16 -22 48v2q6 40 14 40v0zM698 454q9 0 111 -90q28 -16 31 -32
q-1 -18 -65 -53l-218 -166q-52 0 -120 -53q-132 -83 -181 -111l-2 4q0 32 112 124q45 42 59 42q28 -2 31 -2q16 0 26 28q72 50 172 146q7 34 27 44q20 9 20 31q0 16 -22 46q4 40 16 40v0zM178 182q10 0 98 -78q0 -12 -47 -46q-41 -37 -51 -37q-12 0 -96 77l-2 4q6 11 92 77
q2 0 6 2v0v0v1v0z" />
    <glyph glyph-name="l" unicode="l" horiz-adv-x="922" 
d="M586 736q10 0 112 -92q32 -16 32 -30v-4q0 -16 -60 -46l-222 -170q-49 0 -101 -40q-186 -122 -200 -122h-1v2q0 30 120 128q38 37 50 37h7q10 0 23 -2q26 4 26 24q94 70 174 151q6 5 10 29q40 24 40 44q0 16 -22 48v2q6 40 14 40v0zM698 454q9 0 111 -90q28 -16 31 -32
q-1 -18 -65 -53l-218 -166q-52 0 -120 -53q-132 -83 -181 -111l-2 4q0 32 112 124q45 42 59 42q28 -2 31 -2q16 0 26 28q72 50 172 146q7 34 27 44q20 9 20 31q0 16 -22 46q4 40 16 40v0zM178 182q10 0 98 -78q0 -12 -47 -46q-41 -37 -51 -37q-12 0 -96 77l-2 4q6 11 92 77
q2 0 6 2v0v0v1v0z" />
    <glyph glyph-name="m" unicode="M" horiz-adv-x="781" 
d="M84 726q35 -6 50 -6h70q11 0 27 2q6 0 10 -12l-2 -13q-6 -448 -22 -448q-6 -30 -28 -252l-20 -96h-2q-20 8 -20 28v76q0 192 -2 540q-5 85 -5 97l4 10q0 26 -56 40l-8 34l4 2v-2zM390 550q44 -28 44 -72q22 -208 36 -208q16 -16 16 -72q0 -7 26 -79v-2q-2 -6 -12 -6h-142
l-43 -11q-6 15 -6 29v4q16 27 74 44q16 12 16 23v4q0 7 -10 23l6 120q0 48 -8 200l4 2zM580 430q42 -32 42 -63q24 -219 38 -219q16 -14 16 -74l26 -74v-2q-2 -6 -12 -6h-142l-44 -12h-2q0 5 -6 31q14 28 60 42q32 10 32 34q0 7 -10 21q0 24 6 118q0 13 -8 203l4 2v0v1v-2z
" />
    <glyph glyph-name="m" unicode="m" horiz-adv-x="781" 
d="M84 726q35 -6 50 -6h70q11 0 27 2q6 0 10 -12l-2 -13q-6 -448 -22 -448q-6 -30 -28 -252l-20 -96h-2q-20 8 -20 28v76q0 192 -2 540q-5 85 -5 97l4 10q0 26 -56 40l-8 34l4 2v-2zM390 550q44 -28 44 -72q22 -208 36 -208q16 -16 16 -72q0 -7 26 -79v-2q-2 -6 -12 -6h-142
l-43 -11q-6 15 -6 29v4q16 27 74 44q16 12 16 23v4q0 7 -10 23l6 120q0 48 -8 200l4 2zM580 430q42 -32 42 -63q24 -219 38 -219q16 -14 16 -74l26 -74v-2q-2 -6 -12 -6h-142l-44 -12h-2q0 5 -6 31q14 28 60 42q32 10 32 34q0 7 -10 21q0 24 6 118q0 13 -8 203l4 2v0v1v-2z
" />
    <glyph glyph-name="n" unicode="N" horiz-adv-x="884" 
d="M462 723h6q76 -60 92 -76v-6q-76 -68 -96 -78q-10 0 -98 76v8q86 76 96 76v0v0zM792 360q8 -2 12 -8l-2 -14v-134q0 -4 -4 -4q-20 0 -42 27q-36 8 -36 19q-14 10 -21 10h-5q-8 0 -16 -6q-44 6 -92 6h-282q-72 0 -202 -2q-14 0 -22 22q68 22 452 48q60 18 189 30
q11 0 71 6v0v0zM794 135q8 -3 8 -6v-150l-2 -3q-22 0 -48 30q-24 0 -38 22q-3 0 -8 4h-14l-14 -4q-16 0 -82 6q-184 -2 -292 -2h-202q-14 0 -22 20q0 6 122 22q396 29 396 44q114 12 196 18v0v0v1v-2z" />
    <glyph glyph-name="n" unicode="n" horiz-adv-x="884" 
d="M462 723h6q76 -60 92 -76v-6q-76 -68 -96 -78q-10 0 -98 76v8q86 76 96 76v0v0zM792 360q8 -2 12 -8l-2 -14v-134q0 -4 -4 -4q-20 0 -42 27q-36 8 -36 19q-14 10 -21 10h-5q-8 0 -16 -6q-44 6 -92 6h-282q-72 0 -202 -2q-14 0 -22 22q68 22 452 48q60 18 189 30
q11 0 71 6v0v0zM794 135q8 -3 8 -6v-150l-2 -3q-22 0 -48 30q-24 0 -38 22q-3 0 -8 4h-14l-14 -4q-16 0 -82 6q-184 -2 -292 -2h-202q-14 0 -22 20q0 6 122 22q396 29 396 44q114 12 196 18v0v0v1v-2z" />
    <glyph glyph-name="o" unicode="O" horiz-adv-x="911" 
d="M624 720q34 -12 46 -12h148q10 0 13 -7q-58 -136 -66 -142q-22 0 -36 -94l-4 -2q-32 6 -32 32q-2 26 -4 96q4 16 14 38q0 24 -56 31q-8 0 -34 30q5 32 10 32v0zM328 710q48 -4 80 -4h121q7 -2 7 -14v-12q0 -18 -26 -30q-28 -44 -55 -90q-7 -4 -46 -10l-2 4v32l-2 12
q6 26 12 32v10q0 16 -62 24q-24 7 -24 31q-4 0 -5 13v2h2zM522 454q10 0 112 -90q32 -16 32 -34q-2 -15 -62 -48l-222 -168q-51 0 -120 -53q-122 -78 -180 -110l-2 4q0 32 112 124q45 42 59 42q5 0 29 -2q20 0 27 24q90 68 170 144q6 8 15 36q37 20 37 44q0 18 -20 42v6
q0 38 14 38v0v0v1h-1z" />
    <glyph glyph-name="o" unicode="o" horiz-adv-x="911" 
d="M624 720q34 -12 46 -12h148q10 0 13 -7q-58 -136 -66 -142q-22 0 -36 -94l-4 -2q-32 6 -32 32q-2 26 -4 96q4 16 14 38q0 24 -56 31q-8 0 -34 30q5 32 10 32v0zM328 710q48 -4 80 -4h121q7 -2 7 -14v-12q0 -18 -26 -30q-28 -44 -55 -90q-7 -4 -46 -10l-2 4v32l-2 12
q6 26 12 32v10q0 16 -62 24q-24 7 -24 31q-4 0 -5 13v2h2zM522 454q10 0 112 -90q32 -16 32 -34q-2 -15 -62 -48l-222 -168q-51 0 -120 -53q-122 -78 -180 -110l-2 4q0 32 112 124q45 42 59 42q5 0 29 -2q20 0 27 24q90 68 170 144q6 8 15 36q37 20 37 44q0 18 -20 42v6
q0 38 14 38v0v0v1h-1z" />
    <glyph glyph-name="p" unicode="P" horiz-adv-x="666" 
d="M374 724q40 -12 50 -12h148q11 0 14 -7q-61 -142 -65 -142q-24 0 -36 -94l-4 -2q-35 7 -35 33v18q0 28 -2 76q5 18 14 40q0 22 -64 30l-26 28l6 32v0zM84 714q42 -4 78 -4h120q8 -2 8 -18v-2q0 -30 -20 -30q-12 -12 -62 -99l-44 -8q-2 4 -2 6q0 16 -2 42q4 20 13 32v4
q0 22 -44 26q-40 7 -40 23q-4 16 -8 25l4 2zM210 388h6q70 -54 92 -76v-6q-85 -76 -96 -76h-2q-10 0 -96 74v8q86 76 96 76v0v0v1v-1z" />
    <glyph glyph-name="p" unicode="p" horiz-adv-x="666" 
d="M374 724q40 -12 50 -12h148q11 0 14 -7q-61 -142 -65 -142q-24 0 -36 -94l-4 -2q-35 7 -35 33v18q0 28 -2 76q5 18 14 40q0 22 -64 30l-26 28l6 32v0zM84 714q42 -4 78 -4h120q8 -2 8 -18v-2q0 -30 -20 -30q-12 -12 -62 -99l-44 -8q-2 4 -2 6q0 16 -2 42q4 20 13 32v4
q0 22 -44 26q-40 7 -40 23q-4 16 -8 25l4 2zM210 388h6q70 -54 92 -76v-6q-85 -76 -96 -76h-2q-10 0 -96 74v8q86 76 96 76v0v0v1v-1z" />
    <glyph glyph-name="q" unicode="Q" horiz-adv-x="901" 
d="M626 730q33 -12 40 -12h142q11 0 15 -8q-31 -68 -31 -132q-32 -35 -32 -99q-20 -166 -26 -166q-22 -26 -34 -33q-3 0 -3 4q7 194 7 200q-5 89 -5 117q9 16 9 26q0 22 -68 44q-24 24 -24 27q5 32 10 32v0v0zM212 598q10 0 96 -76l2 -4q-27 -30 -97 -79h-4q-20 9 -97 77v4
q86 78 98 78v0h2zM522 454q24 -9 74 -57q30 -30 61 -48q8 -9 8 -19q0 -14 -60 -46l-224 -170q-51 0 -120 -53q-120 -77 -180 -111l-2 4q0 34 124 134q32 32 48 32q24 -2 27 -2q20 0 29 28q72 49 170 143q6 11 13 33q37 22 37 40v1q0 24 -20 46v8q0 32 14 36v0v0v1h1z" />
    <glyph glyph-name="q" unicode="q" horiz-adv-x="901" 
d="M626 730q33 -12 40 -12h142q11 0 15 -8q-31 -68 -31 -132q-32 -35 -32 -99q-20 -166 -26 -166q-22 -26 -34 -33q-3 0 -3 4q7 194 7 200q-5 89 -5 117q9 16 9 26q0 22 -68 44q-24 24 -24 27q5 32 10 32v0v0zM212 598q10 0 96 -76l2 -4q-27 -30 -97 -79h-4q-20 9 -97 77v4
q86 78 98 78v0h2zM522 454q24 -9 74 -57q30 -30 61 -48q8 -9 8 -19q0 -14 -60 -46l-224 -170q-51 0 -120 -53q-120 -77 -180 -111l-2 4q0 34 124 134q32 32 48 32q24 -2 27 -2q20 0 29 28q72 49 170 143q6 11 13 33q37 22 37 40v1q0 24 -20 46v8q0 32 14 36v0v0v1h1z" />
    <glyph glyph-name="r" unicode="R" horiz-adv-x="836" 
d="M80 726h2q34 -6 50 -6h72q10 0 30 2l6 -8q-7 -458 -19 -458q-8 -22 -30 -256l-20 -100h-2q-20 10 -20 22q-2 476 -2 596q0 16 -5 116l2 24q0 13 -52 31q-10 20 -10 36v0zM560 674q33 -14 44 -14h140q12 -1 12 -6l-24 -75q-6 -62 -10 -65q-24 -14 -36 -160
q-12 -100 -18 -100q-16 -18 -34 -32q0 4 -4 4q8 152 8 200l-6 118q10 16 10 24v4q0 24 -64 42l-26 26v4q0 20 8 32v0v-2zM306 432q40 -4 76 -4h124q6 -2 6 -12v-19q0 -12 -26 -24q-54 -92 -56 -92q-38 -7 -44 -7l-2 4v45q0 7 12 37q0 20 -64 28q-24 6 -24 32q-3 0 -4 12
q2 0 2 2v0v0v1v-3z" />
    <glyph glyph-name="r" unicode="r" horiz-adv-x="836" 
d="M80 726h2q34 -6 50 -6h72q10 0 30 2l6 -8q-7 -458 -19 -458q-8 -22 -30 -256l-20 -100h-2q-20 10 -20 22q-2 476 -2 596q0 16 -5 116l2 24q0 13 -52 31q-10 20 -10 36v0zM560 674q33 -14 44 -14h140q12 -1 12 -6l-24 -75q-6 -62 -10 -65q-24 -14 -36 -160
q-12 -100 -18 -100q-16 -18 -34 -32q0 4 -4 4q8 152 8 200l-6 118q10 16 10 24v4q0 24 -64 42l-26 26v4q0 20 8 32v0v-2zM306 432q40 -4 76 -4h124q6 -2 6 -12v-19q0 -12 -26 -24q-54 -92 -56 -92q-38 -7 -44 -7l-2 4v45q0 7 12 37q0 20 -64 28q-24 6 -24 32q-3 0 -4 12
q2 0 2 2v0v0v1v-3z" />
    <glyph glyph-name="s" unicode="S" horiz-adv-x="863" 
d="M284 726q32 -6 48 -6h72q10 0 30 2l6 -8q-8 -458 -21 -458q-10 -42 -30 -258q-2 -5 -20 -99h-2q-20 8 -20 30q0 93 -2 598l-6 106q2 17 2 27q0 16 -54 32q-8 30 -8 34l4 2zM590 706q20 -9 44 -13h144q6 0 6 -8q-31 -66 -31 -132q-28 -16 -38 -134q-12 -138 -28 -138
q-20 -24 -29 -24l-2 4l8 200q-6 93 -6 119q10 10 10 23q0 24 -66 44q-26 24 -26 28q4 32 12 32v0zM90 418q33 -14 51 -14h139q4 -1 4 -4v-2l-24 -75q-6 -70 -14 -70q-18 -16 -32 -148q-10 -114 -24 -114l-26 -24h-2l-4 2q6 89 8 199q0 20 -6 122q6 0 10 18v6q0 22 -64 42
l-26 26v2q0 26 10 32v0v0v1v1z" />
    <glyph glyph-name="s" unicode="s" horiz-adv-x="863" 
d="M284 726q32 -6 48 -6h72q10 0 30 2l6 -8q-8 -458 -21 -458q-10 -42 -30 -258q-2 -5 -20 -99h-2q-20 8 -20 30q0 93 -2 598l-6 106q2 17 2 27q0 16 -54 32q-8 30 -8 34l4 2zM590 706q20 -9 44 -13h144q6 0 6 -8q-31 -66 -31 -132q-28 -16 -38 -134q-12 -138 -28 -138
q-20 -24 -29 -24l-2 4l8 200q-6 93 -6 119q10 10 10 23q0 24 -66 44q-26 24 -26 28q4 32 12 32v0zM90 418q33 -14 51 -14h139q4 -1 4 -4v-2l-24 -75q-6 -70 -14 -70q-18 -16 -32 -148q-10 -114 -24 -114l-26 -24h-2l-4 2q6 89 8 199q0 20 -6 122q6 0 10 18v6q0 22 -64 42
l-26 26v2q0 26 10 32v0v0v1v1z" />
    <glyph glyph-name="t" unicode="T" 
d="M580 714q32 -13 50 -13h138q3 0 6 -6v-2q-30 -70 -30 -132q-32 -34 -32 -105q-20 -164 -28 -164l-30 -28h-2l-4 2q8 154 8 202l-6 120q6 0 9 22q0 26 -66 44l-24 26v4q1 30 9 30v0h2zM326 626q33 -11 40 -11h142q11 0 14 -8q-32 -74 -32 -136q-30 -28 -30 -92
q-20 -172 -28 -172l-32 -30q-4 0 -4 4q5 157 5 198q0 45 -5 121q5 0 9 18v6q0 24 -64 42q-26 22 -26 32q5 28 10 28v0h1zM794 150q8 -2 8 -5v-150l-2 -4q-36 8 -36 20q-8 8 -38 15q-11 20 -27 20h-8l-14 -4q-16 0 -82 6q-184 -2 -292 -2h-202q-14 0 -21 20q56 22 444 48
q130 31 206 31q0 2 64 5v0v0v1v-1z" />
    <glyph glyph-name="t" unicode="t" 
d="M580 714q32 -13 50 -13h138q3 0 6 -6v-2q-30 -70 -30 -132q-32 -34 -32 -105q-20 -164 -28 -164l-30 -28h-2l-4 2q8 154 8 202l-6 120q6 0 9 22q0 26 -66 44l-24 26v4q1 30 9 30v0h2zM326 626q33 -11 40 -11h142q11 0 14 -8q-32 -74 -32 -136q-30 -28 -30 -92
q-20 -172 -28 -172l-32 -30q-4 0 -4 4q5 157 5 198q0 45 -5 121q5 0 9 18v6q0 24 -64 42q-26 22 -26 32q5 28 10 28v0h1zM794 150q8 -2 8 -5v-150l-2 -4q-36 8 -36 20q-8 8 -38 15q-11 20 -27 20h-8l-14 -4q-16 0 -82 6q-184 -2 -292 -2h-202q-14 0 -21 20q56 22 444 48
q130 31 206 31q0 2 64 5v0v0v1v-1z" />
    <glyph glyph-name="u" unicode="U" horiz-adv-x="850" 
d="M390 740q34 -14 44 -14h146q3 0 6 -6v-4q-30 -71 -30 -133q-32 -32 -32 -106q-20 -158 -28 -158q-18 -22 -33 -34q0 4 -4 4q6 87 8 199q0 26 -6 122q10 6 10 22v2q0 24 -66 44q-24 22 -24 25v2q0 18 8 34v0zM610 726q30 -6 46 -6h104q2 0 8 -8q0 -4 -2 -22
q-7 -436 -17 -436q-24 -230 -52 -355h-2q-18 0 -20 35v234q0 410 -8 470q4 8 4 14q0 22 -56 38q0 3 -7 34q2 0 2 2v0v0zM164 704q40 -37 40 -55q24 -224 35 -224q14 -16 14 -32q1 -49 29 -119v-2q0 -3 -6 -7h-146q-10 0 -44 -14q-5 0 -8 32v4q15 27 75 45q14 14 14 24v4
q0 6 -10 22l6 118q0 42 -8 201l6 4v0v1z" />
    <glyph glyph-name="u" unicode="u" horiz-adv-x="850" 
d="M390 740q34 -14 44 -14h146q3 0 6 -6v-4q-30 -71 -30 -133q-32 -32 -32 -106q-20 -158 -28 -158q-18 -22 -33 -34q0 4 -4 4q6 87 8 199q0 26 -6 122q10 6 10 22v2q0 24 -66 44q-24 22 -24 25v2q0 18 8 34v0zM610 726q30 -6 46 -6h104q2 0 8 -8q0 -4 -2 -22
q-7 -436 -17 -436q-24 -230 -52 -355h-2q-18 0 -20 35v234q0 410 -8 470q4 8 4 14q0 22 -56 38q0 3 -7 34q2 0 2 2v0v0zM164 704q40 -37 40 -55q24 -224 35 -224q14 -16 14 -32q1 -49 29 -119v-2q0 -3 -6 -7h-146q-10 0 -44 -14q-5 0 -8 32v4q15 27 75 45q14 14 14 24v4
q0 6 -10 22l6 118q0 42 -8 201l6 4v0v1z" />
    <glyph glyph-name="v" unicode="V" horiz-adv-x="987" 
d="M222 733q46 -38 66 -90l44 -16q90 -131 90 -136q1 -36 19 -36q42 -32 42 -67l-4 -2q-60 28 -60 44q-52 68 -136 130q-38 24 -64 68q-18 4 -26 4q-28 0 -63 -22q-48 7 -48 11q22 7 142 113v0zM758 673h2q28 -16 98 -80q44 -30 46 -40v-4q0 -16 -56 -44q-102 -76 -228 -174
q-52 0 -100 -40q-160 -102 -200 -122l-2 4v2q0 33 154 155q6 6 18 9q14 -2 22 -2h6q20 0 25 24q85 62 177 152q5 28 21 38q26 13 26 29v6q0 16 -22 44q0 24 14 42v0zM702 154q47 -4 86 -4h112q8 -1 8 -19q0 -24 -18 -29q-6 0 -63 -96q-10 -4 -44 -10l-2 4q-2 35 -2 44
q0 6 12 38q0 20 -62 27q-22 6 -22 22q-2 0 -7 22l3 2v0v1z" />
    <glyph glyph-name="v" unicode="v" horiz-adv-x="987" 
d="M222 733q46 -38 66 -90l44 -16q90 -131 90 -136q1 -36 19 -36q42 -32 42 -67l-4 -2q-60 28 -60 44q-52 68 -136 130q-38 24 -64 68q-18 4 -26 4q-28 0 -63 -22q-48 7 -48 11q22 7 142 113v0zM758 673h2q28 -16 98 -80q44 -30 46 -40v-4q0 -16 -56 -44q-102 -76 -228 -174
q-52 0 -100 -40q-160 -102 -200 -122l-2 4v2q0 33 154 155q6 6 18 9q14 -2 22 -2h6q20 0 25 24q85 62 177 152q5 28 21 38q26 13 26 29v6q0 16 -22 44q0 24 14 42v0zM702 154q47 -4 86 -4h112q8 -1 8 -19q0 -24 -18 -29q-6 0 -63 -96q-10 -4 -44 -10l-2 4q-2 35 -2 44
q0 6 12 38q0 20 -62 27q-22 6 -22 22q-2 0 -7 22l3 2v0v1z" />
    <glyph glyph-name="w" unicode="W" 
d="M594 636q44 -4 84 -4h114q6 -2 6 -12v-16q0 -18 -24 -27l-56 -91q-8 -4 -47 -10l-2 4v46q0 9 12 35q0 20 -64 28q-24 7 -24 31q-4 0 -4 12l4 2zM348 570h6q40 -35 64 -90q48 -10 48 -24q86 -118 86 -128q2 -12 2 -26q56 -34 56 -67v-6q0 -4 -4 -4q-55 24 -65 52
q-72 82 -142 129q-34 24 -52 60q-24 4 -29 4q-24 0 -63 -22l-46 7v2q39 23 138 113v0h1zM788 160q14 -3 14 -8v-152h-4q-22 0 -42 24q-28 10 -34 15q0 10 -24 18h-2q-10 0 -20 -6q-56 6 -98 6h-36q-150 0 -440 -2q-20 8 -20 22v2q70 18 452 46q56 18 212 31q20 0 44 4v0v0v1
z" />
    <glyph glyph-name="w" unicode="w" 
d="M594 636q44 -4 84 -4h114q6 -2 6 -12v-16q0 -18 -24 -27l-56 -91q-8 -4 -47 -10l-2 4v46q0 9 12 35q0 20 -64 28q-24 7 -24 31q-4 0 -4 12l4 2zM348 570h6q40 -35 64 -90q48 -10 48 -24q86 -118 86 -128q2 -12 2 -26q56 -34 56 -67v-6q0 -4 -4 -4q-55 24 -65 52
q-72 82 -142 129q-34 24 -52 60q-24 4 -29 4q-24 0 -63 -22l-46 7v2q39 23 138 113v0h1zM788 160q14 -3 14 -8v-152h-4q-22 0 -42 24q-28 10 -34 15q0 10 -24 18h-2q-10 0 -20 -6q-56 6 -98 6h-36q-150 0 -440 -2q-20 8 -20 22v2q70 18 452 46q56 18 212 31q20 0 44 4v0v0v1
z" />
    <glyph glyph-name="x" unicode="X" horiz-adv-x="901" 
d="M184 676q10 0 97 -76v-6q-88 -78 -97 -78q-8 0 -96 76l-2 4q20 26 94 80h4v0zM676 672h4q9 0 117 -95q18 0 26 -28q-4 -16 -55 -42q-106 -77 -231 -174q-52 0 -112 -48q-179 -114 -189 -114q-2 4 -2 6q0 33 161 160q11 2 11 4l10 -2h22q16 0 22 24q83 60 174 150
q6 10 10 30q38 20 38 42v4q0 12 -20 44v2q1 34 13 38v0zM790 162q12 -4 12 -8v-150l-2 -4q-26 3 -46 27q-26 6 -38 21q0 6 -18 10h-2q-10 0 -20 -6q-56 6 -98 6h-36q-150 0 -440 -2q-20 8 -20 22q53 20 434 46q140 30 206 30q6 2 70 8v0v0v1z" />
    <glyph glyph-name="x" unicode="x" horiz-adv-x="901" 
d="M184 676q10 0 97 -76v-6q-88 -78 -97 -78q-8 0 -96 76l-2 4q20 26 94 80h4v0zM676 672h4q9 0 117 -95q18 0 26 -28q-4 -16 -55 -42q-106 -77 -231 -174q-52 0 -112 -48q-179 -114 -189 -114q-2 4 -2 6q0 33 161 160q11 2 11 4l10 -2h22q16 0 22 24q83 60 174 150
q6 10 10 30q38 20 38 42v4q0 12 -20 44v2q1 34 13 38v0zM790 162q12 -4 12 -8v-150l-2 -4q-26 3 -46 27q-26 6 -38 21q0 6 -18 10h-2q-10 0 -20 -6q-56 6 -98 6h-36q-150 0 -440 -2q-20 8 -20 22q53 20 434 46q140 30 206 30q6 2 70 8v0v0v1z" />
    <glyph glyph-name="y" unicode="Y" horiz-adv-x="750" 
d="M474 760q33 -14 44 -14h146q3 0 6 -6v-2q-30 -71 -30 -133q-30 -32 -30 -86q-20 -169 -28 -180l-34 -32q-4 0 -4 4q8 169 8 199l-6 118q10 15 10 27q0 24 -64 42l-26 26v6q0 18 8 30v0v1zM92 670q28 -11 38 -11h150q16 0 17 -6v-4q-56 -134 -68 -142q-20 0 -36 -94h-4
q-32 8 -32 30q-2 76 -2 102l12 34v6q0 16 -62 28q-26 22 -26 27q0 32 12 32v0zM338 450q40 -30 40 -55q24 -224 37 -224q16 -14 16 -68q0 -10 26 -82v-3q-2 -6 -12 -6h-142q-6 0 -42 -12q-5 0 -8 32v2q18 28 73 44q16 12 16 24v5q-4 18 -10 18q6 95 6 122q0 70 -8 199l6 3v0
v1h2z" />
    <glyph glyph-name="y" unicode="y" horiz-adv-x="750" 
d="M474 760q33 -14 44 -14h146q3 0 6 -6v-2q-30 -71 -30 -133q-30 -32 -30 -86q-20 -169 -28 -180l-34 -32q-4 0 -4 4q8 169 8 199l-6 118q10 15 10 27q0 24 -64 42l-26 26v6q0 18 8 30v0v1zM92 670q28 -11 38 -11h150q16 0 17 -6v-4q-56 -134 -68 -142q-20 0 -36 -94h-4
q-32 8 -32 30q-2 76 -2 102l12 34v6q0 16 -62 28q-26 22 -26 27q0 32 12 32v0zM338 450q40 -30 40 -55q24 -224 37 -224q16 -14 16 -68q0 -10 26 -82v-3q-2 -6 -12 -6h-142q-6 0 -42 -12q-5 0 -8 32v2q18 28 73 44q16 12 16 24v5q-4 18 -10 18q6 95 6 122q0 70 -8 199l6 3v0
v1h2z" />
    <glyph glyph-name="z" unicode="Z" horiz-adv-x="901" 
d="M624 740q35 -14 44 -14h146q3 0 9 -8q-26 -48 -35 -138q-16 0 -29 -89q-16 -176 -30 -176q-24 -24 -32 -24q5 168 5 200q0 40 -5 122q5 0 9 18v8q0 22 -58 38q-14 9 -32 29q0 18 8 34v0v0zM86 738h2q39 -12 50 -12h140q3 0 8 -8q-30 -66 -30 -130q-34 -40 -34 -116
q-18 -154 -26 -154l-32 -31q-4 0 -4 4l8 202q-6 78 -6 121q4 0 10 20q0 26 -68 46l-24 26q0 5 6 33v0v-1zM366 726q32 -6 48 -6h106q1 0 7 -6q-10 -458 -21 -458q-10 -34 -32 -266q-16 -82 -20 -90h-2q-5 0 -17 16q-2 232 -2 355v220q0 56 -8 148q4 6 4 12v2q0 24 -48 34
q-8 0 -17 38q2 0 2 2v0v0v1v-2z" />
    <glyph glyph-name="z" unicode="z" horiz-adv-x="901" 
d="M624 740q35 -14 44 -14h146q3 0 9 -8q-26 -48 -35 -138q-16 0 -29 -89q-16 -176 -30 -176q-24 -24 -32 -24q5 168 5 200q0 40 -5 122q5 0 9 18v8q0 22 -58 38q-14 9 -32 29q0 18 8 34v0v0zM86 738h2q39 -12 50 -12h140q3 0 8 -8q-30 -66 -30 -130q-34 -40 -34 -116
q-18 -154 -26 -154l-32 -31q-4 0 -4 4l8 202q-6 78 -6 121q4 0 10 20q0 26 -68 46l-24 26q0 5 6 33v0v-1zM366 726q32 -6 48 -6h106q1 0 7 -6q-10 -458 -21 -458q-10 -34 -32 -266q-16 -82 -20 -90h-2q-5 0 -17 16q-2 232 -2 355v220q0 56 -8 148q4 6 4 12v2q0 24 -48 34
q-8 0 -17 38q2 0 2 2v0v0v1v-2z" />
    <glyph glyph-name="glyph38" horiz-adv-x="512" 
d="M0 0v1v-1z" />
    <glyph glyph-name="glyph39" horiz-adv-x="512" 
d="M0 0v1v-1z" />
    <glyph glyph-name="glyph40" horiz-adv-x="512" 
d="M0 0v1v-1z" />
    <glyph glyph-name="glyph41" horiz-adv-x="512" 
d="M0 0v1v-1z" />
    <glyph glyph-name="glyph42" horiz-adv-x="512" 
d="M0 0v1v-1z" />
    <glyph glyph-name="glyph43" horiz-adv-x="512" 
d="M0 0v1v-1z" />
    <glyph glyph-name="glyph44" horiz-adv-x="512" 
d="M0 0v1v-1z" />
    <glyph glyph-name="glyph45" horiz-adv-x="512" 
d="M0 0v1v-1z" />
    <glyph glyph-name="glyph46" horiz-adv-x="512" 
d="M0 0v1v-1z" />
    <glyph glyph-name="glyph47" horiz-adv-x="512" 
d="M0 0v1v-1z" />
    <glyph glyph-name="glyph48" horiz-adv-x="512" 
d="M0 0v1v-1z" />
    <glyph glyph-name="glyph49" horiz-adv-x="512" 
d="M0 0v1v-1z" />
    <glyph glyph-name="glyph50" horiz-adv-x="512" 
d="M0 0v1v-1z" />
    <glyph glyph-name="glyph51" horiz-adv-x="512" 
d="M0 0v1v-1z" />
    <glyph glyph-name="glyph52" horiz-adv-x="512" 
d="M0 0v1v-1z" />
    <glyph glyph-name="glyph53" horiz-adv-x="512" 
d="M0 0v1v-1z" />
    <glyph glyph-name="exclam" unicode="!" horiz-adv-x="790" 
d="M328 710q48 -4 80 -4h121q7 -2 7 -14v-12q0 -18 -26 -30q-28 -44 -55 -90q-7 -4 -46 -10l-2 4v32l-2 12q6 26 12 32v10q0 16 -62 24q-24 7 -24 31q-4 0 -5 13v2h2zM522 454q10 0 112 -90q32 -16 32 -34q-2 -15 -62 -48l-222 -168q-51 0 -120 -53q-122 -78 -180 -110l-2 4
q0 32 112 124q45 42 59 42q5 0 29 -2q20 0 27 24q90 68 170 144q6 8 15 36q37 20 37 44q0 18 -20 42v6q0 38 14 38v0v0v1h-1z" />
    <glyph glyph-name="glyph55" horiz-adv-x="512" 
 />
    <glyph glyph-name="at" unicode="@" horiz-adv-x="844" 
d="M224 664q40 -39 64 -91q41 0 65 -48q68 -94 68 -101l4 -22v-6q56 -38 56 -73v-4l-2 -3q-60 26 -60 44q-64 79 -134 128q-45 30 -61 63q-3 10 -27 10h-13q-24 0 -54 -22q-48 8 -48 12v2q24 6 136 108q3 2 9 2v0zM602 479q20 -7 109 -88q30 -17 34 -29v-7q0 -18 -46 -38
q-98 -73 -237 -181q-48 0 -92 -34q-170 -112 -208 -128l-2 3q0 35 160 163q8 4 12 4q20 -2 31 -2q18 0 25 26q76 53 172 147q8 13 10 29q40 26 40 46q0 14 -22 48q5 40 14 40v0v1zM668 142q20 -10 97 -78v-6q-87 -77 -99 -77q-10 0 -95 77l-2 4q14 20 95 80h4v0v1v-1z" />
    <glyph glyph-name="numbersign" unicode="#" horiz-adv-x="934" 
d="M444 731q34 -14 44 -14h146q3 0 6 -6v-4q-24 -53 -31 -133q-24 -16 -38 -134q-12 -90 -30 -90q0 -3 -22 -23l-6 4q8 104 8 154q0 24 -6 119q10 8 10 22v2q0 25 -66 44q-24 22 -24 30q0 16 8 31v0zM222 664q50 -45 59 -84q0 -7 34 -13q14 -6 62 -78q44 -62 44 -71
q0 -26 18 -34q40 -28 40 -65l-2 -3q-62 28 -62 46q-48 66 -134 128q-43 30 -59 63q-3 10 -27 10h-13q-23 0 -55 -22q-48 8 -48 12v2q24 6 134 106q5 3 8 3v0h1zM710 479h2q27 -12 95 -76q50 -35 50 -46v-2q0 -16 -68 -53l-217 -166q-52 0 -98 -40q-194 -122 -200 -122l-2 3
v2q0 34 162 163q4 0 8 2q20 -2 31 -2q16 0 25 26q84 62 174 151q6 28 21 38q26 12 26 30v2q0 22 -20 46v8q0 26 11 36v0v0zM300 307q10 0 98 -76v-8q-86 -76 -96 -76q-11 0 -98 76v6q46 43 96 77v0v0v1v0z" />
    <glyph glyph-name="dollar" unicode="$" horiz-adv-x="960" 
d="M324 727q8 0 11 -4v-4q0 -3 -1 -7q-24 -56 -28 -70q-3 -12 -10 -82q-1 -2 -5 -7q-6 -7 -9 -13q-13 -20 -19 -50q-28 -228 -31 -239q-3 -10 -45 -46q-2 -2 -3 -2q-4 0 -4 6v3q10 148 10 218v27l-8 134q14 13 14 27q0 6 -3 12q-7 18 -31 26l-40 15q-10 1 -38 31q-1 3 -1 7
q0 12 8 36q46 -18 56 -18h182h-5zM822 724q6 0 9 -4q1 -2 1 -6q0 -3 -1 -6q-24 -56 -28 -70q-4 -12 -10 -82q-1 -1 -6 -7t-8 -12q-14 -20 -20 -50q-29 -228 -32 -240q-3 -10 -45 -46q-2 -1 -4 -1q-3 0 -3 8v2q10 152 10 222v21l-8 134q13 14 13 28q0 6 -3 12q-8 18 -30 26
l-42 14q-10 1 -38 32q-1 2 -1 6q0 12 8 36q46 -18 55 -18h182zM594 454q7 0 10 -4q1 -2 1 -4q0 -3 -2 -6q-24 -58 -28 -72q-3 -12 -9 -82q-1 -2 -7 -7q-5 -6 -9 -12q-14 -20 -20 -50q-28 -171 -32 -183q-3 -10 -44 -46q-3 -2 -4 -2q-3 0 -3 8v2q9 144 9 180v6l-8 134
q14 13 14 27q0 6 -2 14q-8 18 -32 25l-41 16q-10 1 -38 31q-2 2 -2 7q0 12 8 36q46 -18 56 -18h182v0v1zM324 727q8 0 11 -4v-4q0 -3 -1 -7q-24 -56 -28 -70q-3 -12 -10 -82q-1 -2 -5 -7q-6 -7 -9 -13q-13 -20 -19 -50q-28 -228 -31 -239q-3 -10 -45 -46q-2 -2 -3 -2
q-4 0 -4 6v3q10 148 10 218v27l-8 134q14 13 14 27q0 6 -3 12q-7 18 -31 26l-40 15q-10 1 -38 31q-1 3 -1 7q0 12 8 36q46 -18 56 -18h182h-5zM822 724q6 0 9 -4q1 -2 1 -6q0 -3 -1 -6q-24 -56 -28 -70q-4 -12 -10 -82q-1 -1 -6 -7t-8 -12q-14 -20 -20 -50
q-29 -228 -32 -240q-3 -10 -45 -46q-2 -1 -4 -1q-3 0 -3 8v2q10 152 10 222v21l-8 134q13 14 13 28q0 6 -3 12q-8 18 -30 26l-42 14q-10 1 -38 32q-1 2 -1 6q0 12 8 36q46 -18 55 -18h182zM594 454q7 0 10 -4q1 -2 1 -4q0 -3 -2 -6q-24 -58 -28 -72q-3 -12 -9 -82
q-1 -2 -7 -7q-5 -6 -9 -12q-14 -20 -20 -50q-28 -171 -32 -183q-3 -10 -44 -46q-3 -2 -4 -2q-3 0 -3 8v2q9 144 9 180v6l-8 134q14 13 14 27q0 6 -2 14q-8 18 -32 25l-41 16q-10 1 -38 31q-2 2 -2 7q0 12 8 36q46 -18 56 -18h182v0v1z" />
    <glyph glyph-name="percent" unicode="%" horiz-adv-x="789" 
d="M95 729l108 1q3 0 4 -8q1 -3 1 -6q0 -4 -1 -6q-8 -370 -13 -394q-6 -26 -14 -109q-13 -129 -25 -171l-13 -75q-20 4 -20 22l-2 576q-1 14 -7 96q4 7 4 12q0 14 -20 24q-14 8 -30 11q-3 4 -10 34l38 -6v-1zM264 45q22 24 28 25l32 12q18 5 23 19q2 5 2 9q0 12 -9 22l6 104
v18q0 54 -8 173v1q0 6 3 6q1 0 3 -2q31 -28 33 -35q2 -10 24 -187q1 -4 25 -54q5 -54 7 -64q3 -9 21 -54q2 -4 2 -6q0 -6 -9 -6h-135q-6 0 -40 -12q-6 18 -6 28q0 3 1 5v0zM553 469q35 -14 41 -14h136q8 0 8 -6q0 -2 -1 -5q-18 -45 -20 -55q-4 -9 -9 -63q-24 -49 -25 -54
q-20 -178 -23 -186q-2 -8 -33 -37q-2 -1 -3 -1q-2 0 -2 5v2q7 114 7 169v21l-6 104q10 10 10 21q0 4 -2 9q-6 14 -24 20l-30 12q-7 1 -29 23q-1 2 -1 6q0 9 6 29v0v0v1v-1z" />
    <glyph glyph-name="asciicircum" unicode="^" horiz-adv-x="890" 
d="M87 42q117 106 126 108q5 2 11 2q3 0 10 -1t11 -1q7 0 13 2q10 4 12 12q2 9 7 13q2 2 52 42q43 34 67 56l23 23q13 11 17 17q14 14 15 34q4 6 14 13q11 7 15 10q11 10 11 24q0 8 -3 16q-2 5 -10 17q-8 10 -8 14q0 32 12 40q1 -2 15 -10q16 -9 24 -17q68 -62 84 -70
q17 -7 17 -21v-1q-1 -16 -25 -26q-20 -8 -134 -96q-116 -88 -115 -88q-1 -1 -20 -3q-20 -1 -36 -9q-8 -4 -126 -80q-108 -69 -115 -69h-1q-1 1 -1 3q0 6 7 18q11 20 27 34v0zM116 736q36 -14 43 -14h142q10 0 10 -6q0 -4 -2 -8q-20 -46 -22 -56q-3 -10 -7 -68
q-26 -51 -27 -55q-22 -186 -25 -195q-2 -8 -34 -36q-2 -2 -3 -2q-3 0 -3 5v2q8 125 8 181v18l-6 110q10 10 10 22q0 5 -2 10q-6 16 -24 21l-32 12q-6 1 -28 25q-1 2 -1 5q0 10 6 30v0zM630 736q36 -14 44 -14h141q10 0 10 -6q0 -4 -2 -8q-18 -46 -22 -56q-3 -10 -7 -68
q-26 -51 -27 -55q-22 -186 -25 -195q-2 -8 -34 -36q-2 -2 -3 -2q-3 0 -3 5v2q8 124 8 182v18l-6 110q10 10 10 22q0 5 -2 10q-6 16 -24 21l-32 12q-6 1 -28 25q-1 2 -1 5q0 10 6 30v0v0v1z" />
    <glyph glyph-name="ampersand" unicode="&#x26;" horiz-adv-x="850" 
d="M44 446q0 8 6 8q2 0 6 -2q48 -18 58 -21q12 -3 70 -7q52 -26 58 -27q190 -22 200 -26q8 -3 38 -35q2 -2 2 -3q0 -2 -6 -2h-2q-122 8 -182 8q-12 0 -21 -1l-113 -6q-11 10 -23 10q-5 0 -10 -2q-16 -6 -22 -24l-12 -34q-1 -7 -27 -29q-2 -1 -6 -1q-10 0 -30 6q14 37 14 44
v146zM78 734q20 -9 167 -29q144 -18 147 -18q2 0 18 -13q16 -14 34 -19q8 -2 150 -34q128 -28 133 -33v-1q0 -6 -20 -11q-18 -4 -36 -4h-6q-162 8 -170 12l-10 8q-2 2 -6 8q-5 6 -7 10q-6 5 -12 8q-5 2 -10 2q-3 0 -6 -1q-8 -5 -14 -5h-1q-4 0 -70 8q-56 6 -90 7
q-14 0 -34 2q-12 1 -19 1h-5q-22 -1 -36 -13q-2 -1 -4 -1q-6 0 -14 2q-14 2 -20 2h-2q-22 0 -34 -24q-2 -4 -4 -18t-4 -16q-20 -20 -34 -20h-4v2q0 3 -4 16q-5 18 -5 30q-3 93 -10 113q-2 7 -2 13q0 9 7 15q6 6 16 6t22 -6v0zM764 345q-20 -8 -138 -98q-120 -92 -118 -92
q-2 -1 -22 -3q-20 -1 -36 -9q-7 -4 -129 -82q-110 -70 -117 -70q-2 1 -2 3q0 6 8 20q11 20 27 33q121 108 130 111q5 2 11 2q4 0 11 -1t11 -1q7 0 14 2q10 4 12 11q3 10 7 14q3 2 55 43q44 34 68 58q9 10 25 23q14 12 18 16q14 16 15 36q4 5 14 12q12 8 16 11q10 10 10 24
q0 8 -4 17q-1 5 -10 17q-8 10 -8 13q0 35 14 42q1 -2 15 -10q18 -10 26 -18q68 -64 86 -72q16 -8 16 -22v-2q-1 -16 -25 -28v0v0v1v-1z" />
    <glyph glyph-name="asterisk" unicode="*" horiz-adv-x="860" 
d="M89 733q20 -8 166 -28q144 -18 147 -18q2 0 16 -13q15 -12 33 -18q8 -2 147 -33q128 -28 132 -33v0v-1q0 -6 -20 -12q-18 -4 -35 -4h-6q-160 8 -170 12q-5 4 -9 8q-2 2 -7 8q-4 6 -7 8q-5 5 -11 9q-6 2 -10 2t-6 -2q-8 -4 -14 -4h-1q-3 0 -67 7q-55 7 -88 7q-14 0 -34 2
q-17 1 -23 1q-22 -1 -36 -15h-3q-6 0 -15 1q-14 3 -18 3h-1q-22 0 -36 -24q-2 -3 -4 -17q-1 -13 -4 -15q-20 -20 -34 -20q-3 0 -4 2v1q0 4 -3 16q-5 18 -6 30q-2 92 -10 112q-2 6 -2 12q0 10 7 16q6 6 15 6q10 0 22 -6v0h-1zM756 74q4 -10 22 -57q2 -4 2 -8q0 -6 -10 -6
h-144q-6 0 -43 -14q-7 20 -7 30q0 3 2 5q22 24 29 25l33 14q18 5 24 21q2 5 2 10q0 12 -10 22l6 112v16q0 58 -8 186v2q0 6 3 6q1 0 3 -2q33 -30 35 -38q3 -10 25 -198q1 -5 27 -57q4 -58 7 -70v0zM480 384q-4 -3 -9 -3q-6 0 -10 3l-83 68q-5 4 -5 8t5 7l83 68q4 3 10 3
q5 0 9 -3l84 -68q6 -3 6 -7t-6 -8l-84 -68v0v1v-1z" />
    <glyph glyph-name="parenleft" unicode="(" horiz-adv-x="900" 
d="M164 724q42 -33 42 -61q24 -219 36 -219t20 -81q0 -6 24 -72l-6 -4h-137q-14 0 -54 -13q-8 18 -8 32q12 27 74 47q16 11 16 23v6q0 9 -10 21q6 70 6 124q0 36 -6 195l4 2h-1zM714 720q8 0 97 -76v-6q-9 -14 -94 -78h-4q-9 0 -96 76v8q86 76 98 76v0h-1zM538 454
q10 0 112 -90q29 -16 32 -32q0 -18 -52 -42l-232 -176q-52 0 -122 -53q-120 -77 -179 -111l-2 4q0 34 124 134q32 32 48 32q24 -2 27 -2q24 4 24 22q100 80 154 130q32 28 32 52q38 22 38 46q0 16 -22 46q4 40 15 40v0v0v1z" />
    <glyph glyph-name="parenright" unicode=")" horiz-adv-x="900" 
d="M828 346q-8 -1 -20 -9l-26 -40q-24 -40 -30 -54q-2 -5 -49 -11l-1 47v1q0 16 11 34q1 2 1 5q0 7 -7 13q-8 8 -16 9l-32 5q-7 1 -29 9q-4 6 -12 40q52 -4 60 -4h146q7 0 8 -11q2 -10 2 -17q0 -14 -6 -16v0v-1zM593 712q-20 -49 -23 -59q-3 -12 -9 -72q-26 -54 -27 -58
q-24 -197 -27 -207q-2 -8 -37 -38q-1 -2 -2 -2q-3 0 -3 6v2q8 131 8 191v18l-6 116q10 11 10 23q0 5 -2 10q-7 16 -25 21l-34 14q-8 1 -32 27q-1 1 -1 6q0 10 7 30q37 -16 45 -16h150q10 0 10 -6q0 -3 -2 -7v0v1zM562 -14q-1 -1 -3 -1q-5 0 -19 8q-20 11 -33 27
q-112 123 -115 132q-2 6 -2 12q0 3 1 11t1 12q0 7 -2 14q-4 12 -11 14q-10 2 -15 7q-1 4 -43 56q-36 45 -60 71q-9 10 -23 25q-11 14 -17 19q-16 16 -36 17q-6 4 -13 14q-8 12 -12 16q-10 11 -26 11q-8 0 -18 -3q-5 -2 -16 -10q-12 -9 -14 -9q-36 0 -43 14q2 1 10 15
q10 18 18 26q66 70 76 88q7 18 23 18h1q18 -1 28 -28q10 -20 102 -140l94 -122q1 -1 3 -21q1 -22 9 -38q4 -8 85 -133q72 -114 72 -122l-1 -1v0v1h-1z" />
    <glyph glyph-name="period" unicode="." horiz-adv-x="644" 
d="M199 293q34 -12 40 -12h154q10 0 13 -7q-58 -138 -65 -143q-22 0 -36 -94l-4 -2q-34 7 -34 33v38q0 22 -2 58l14 38q0 20 -64 30q-26 26 -26 30q6 30 10 30v0v1zM423 564q-8 -1 -20 -9l-26 -40q-24 -40 -30 -54q-2 -5 -49 -11l-1 47v1q0 16 11 34q1 2 1 5q0 7 -7 13
q-8 8 -16 9l-32 5q-7 1 -29 9q-4 6 -12 40q52 -4 60 -4h146q7 0 8 -11q2 -10 2 -17q0 -14 -6 -16v0v-1z" />
    <glyph glyph-name="question" unicode="?" horiz-adv-x="697" 
d="M357 150h12q90 -72 92 -78v-2q-3 -8 -93 -78h-12q-84 66 -91 76v6q7 10 91 76v0v0v1zM188 336h12q90 -72 92 -78v-2q-3 -8 -93 -78h-12q-84 66 -91 76v6q7 10 91 76v0v0v1zM315 568q42 -4 78 -4h120q8 -2 8 -18v-2q0 -30 -20 -30q-12 -12 -62 -99l-44 -8q-2 4 -2 6
q0 16 -2 42q4 20 13 32v4q0 22 -44 26q-40 7 -40 23q-4 16 -8 25l4 2z" />
    <glyph glyph-name="comma" unicode="," horiz-adv-x="587" 
d="M266 446q42 -32 42 -62q24 -218 36 -218q16 -12 16 -61q2 -26 28 -92q-7 -6 -15 -6h-141q-6 0 -42 -12q-8 18 -8 34q16 26 78 46q12 11 15 25q-10 26 -10 27q0 35 6 111l-8 205l4 1v0v1z" />
    <glyph glyph-name="quotesingle" unicode="'" horiz-adv-x="512" 
d="M350 606q-8 -1 -20 -9l-26 -40q-24 -40 -30 -54q-2 -5 -49 -11l-1 47v1q0 16 11 34q1 2 1 5q0 7 -7 13q-8 8 -16 9l-32 5q-7 1 -29 9q-4 6 -12 40q52 -4 60 -4h146q7 0 8 -11q2 -10 2 -17q0 -14 -6 -16v0v-1z" />
    <glyph glyph-name="ordfeminine" unicode="&#xaa;" horiz-adv-x="911" 
d="M624 720q34 -12 40 -12h154q10 0 13 -7q-58 -138 -65 -143q-22 0 -36 -94l-4 -2q-34 7 -34 33v38q0 22 -2 58l14 38q0 20 -64 30q-26 26 -26 30q6 30 10 30v0v1zM292 608q7 0 96 -76v-8q-88 -76 -98 -76t-97 76v8q87 76 99 76v0v0zM520 454h2q23 -8 112 -91
q30 -12 30 -28q2 0 2 -2q-1 -18 -65 -53l-218 -166q-51 0 -120 -53q-122 -78 -180 -110l-2 4q0 34 124 134q32 32 48 32q24 -2 27 -2q20 0 27 24q87 66 175 149q7 34 29 46q18 8 18 28v2q0 16 -22 46q5 40 14 40v0v0v1z" />
    <glyph glyph-name="uni00B2" unicode="&#xb2;" horiz-adv-x="844" 
d="M224 664q40 -39 64 -91q41 0 65 -48q68 -94 68 -101l4 -22v-6q56 -38 56 -73v-4l-2 -3q-60 26 -60 44q-64 79 -134 128q-45 30 -61 63q-3 10 -27 10h-13q-24 0 -54 -22q-48 8 -48 12v2q24 6 136 108q3 2 9 2v0zM602 479q20 -7 109 -88q30 -17 34 -29v-7q0 -18 -46 -38
q-98 -73 -237 -181q-48 0 -92 -34q-170 -112 -208 -128l-2 3q0 35 160 163q8 4 12 4q20 -2 31 -2q18 0 25 26q76 53 172 147q8 13 10 29q40 26 40 46q0 14 -22 48q5 40 14 40v0v1zM668 142q20 -10 97 -78v-6q-87 -77 -99 -77q-10 0 -95 77l-2 4q14 20 95 80h4v0v1v-1z" />
    <glyph glyph-name="uni00B3" unicode="&#xb3;" horiz-adv-x="936" 
d="M444 731q34 -14 44 -14h146q3 0 6 -6v-4q-24 -53 -31 -133q-24 -16 -38 -134q-12 -90 -30 -90q0 -3 -22 -23l-6 4q8 104 8 154q0 24 -6 119q10 8 10 22v2q0 25 -66 44q-24 22 -24 30q0 16 8 31v0zM222 664q50 -45 59 -84q0 -7 34 -13q14 -6 62 -78q44 -62 44 -71
q0 -26 18 -34q40 -28 40 -65l-2 -3q-62 28 -62 46q-48 66 -134 128q-43 30 -59 63q-3 10 -27 10h-13q-23 0 -55 -22q-48 8 -48 12v2q24 6 134 106q5 3 8 3v0h1zM710 479h2q27 -12 95 -76q50 -35 50 -46v-2q0 -16 -68 -53l-217 -166q-52 0 -98 -40q-194 -122 -200 -122l-2 3
v2q0 34 162 163q4 0 8 2q20 -2 31 -2q16 0 25 26q84 62 174 151q6 28 21 38q26 12 26 30v2q0 22 -20 46v8q0 26 11 36v0v0zM300 307q10 0 98 -76v-8q-86 -76 -96 -76q-11 0 -98 76v6q46 43 96 77v0v0v1v0z" />
    <glyph glyph-name="uni00B9" unicode="&#xb9;" horiz-adv-x="890" 
d="M568 718q9 0 111 -90q30 -17 32 -25v-10q0 -16 -48 -38q-106 -79 -233 -178q-50 0 -102 -40q-164 -108 -199 -122l-2 4q0 32 156 158q6 5 18 8l10 -2h17q18 0 26 22l110 91q72 58 72 84q0 5 36 33q4 12 4 15q0 20 -22 49q0 26 14 42v0v-1zM170 682h12q70 -54 92 -76v-6
q-8 -10 -92 -76h-6q-12 0 -96 76v8q7 7 90 73v0v1zM688 450q42 -32 42 -62q24 -218 36 -218q16 -12 16 -61q2 -26 28 -92q-7 -6 -15 -6h-141q-6 0 -42 -12q-8 18 -8 34q16 26 78 46q12 11 15 25q-10 26 -10 27q0 35 6 111l-8 205l4 1v0v1z" />
    <glyph glyph-name="ordmasculine" unicode="&#xba;" horiz-adv-x="911" 
d="M624 720q34 -12 46 -12h148q10 0 13 -7q-58 -136 -66 -142q-22 0 -36 -94l-4 -2q-32 6 -32 32q-2 26 -4 96q4 16 14 38q0 24 -56 31q-8 0 -34 30q5 32 10 32v0zM328 710q48 -4 80 -4h121q7 -2 7 -14v-12q0 -18 -26 -30q-28 -44 -55 -90q-7 -4 -46 -10l-2 4v32l-2 12
q6 26 12 32v10q0 16 -62 24q-24 7 -24 31q-4 0 -5 13v2h2zM522 454q10 0 112 -90q32 -16 32 -34q-2 -15 -62 -48l-222 -168q-51 0 -120 -53q-122 -78 -180 -110l-2 4q0 32 112 124q45 42 59 42q5 0 29 -2q20 0 27 24q90 68 170 144q6 8 15 36q37 20 37 44q0 18 -20 42v6
q0 38 14 38v0v0v1h-1z" />
    <glyph glyph-name="Ccaron" unicode="&#x10c;" 
d="M122.67 1480q117 -106 126 -108q5 -2 11 -2q3 0 10 1t11 1q7 0 13 -2q10 -4 12 -12q2 -9 7 -13q2 -2 52 -42q43 -34 67 -56l23 -23q13 -11 17 -17q14 -14 15 -34q4 -6 14 -13q11 -7 15 -10q11 -10 11 -24q0 -8 -3 -16q-2 -5 -10 -17q-8 -10 -8 -14q0 -32 12 -40
q1 2 15 10q16 9 24 17q68 62 84 70q17 7 17 21v1q-1 16 -25 26q-20 8 -134 96q-116 88 -115 88q-1 1 -20 3q-20 1 -36 9q-8 4 -126 80q-108 69 -115 69h-1q-1 -1 -1 -3q0 -6 7 -18q11 -20 27 -34v0zM151.67 786q36 14 43 14h142q10 0 10 6q0 4 -2 8q-20 46 -22 56
q-3 10 -7 68q-26 51 -27 55q-22 186 -25 195q-2 8 -34 36q-2 2 -3 2q-3 0 -3 -5v-2q8 -125 8 -181v-18l-6 -110q10 -10 10 -22q0 -5 -2 -10q-6 -16 -24 -21l-32 -12q-6 -1 -28 -25q-1 -2 -1 -5q0 -10 6 -30v0zM665.67 786q36 14 44 14h141q10 0 10 6q0 4 -2 8q-18 46 -22 56
q-3 10 -7 68q-26 51 -27 55q-22 186 -25 195q-2 8 -34 36q-2 2 -3 2q-3 0 -3 -5v-2q8 -124 8 -182v-18l-6 -110q10 -10 10 -22q0 -5 -2 -10q-6 -16 -24 -21l-32 -12q-6 -1 -28 -25q-1 -2 -1 -5q0 -10 6 -30v0v0v-1zM790 720q12 -4 12 -8v-150l-2 -4q-26 4 -46 28
q-26 6 -37 21q0 6 -18 10q-10 0 -20 -6q-60 6 -103 6q-154 0 -474 -2q-20 7 -20 21q58 20 454 48q48 18 256 36v0h-2zM792 496q10 -2 10 -5v-150q0 -4 -4 -4q-36 7 -36 23q-10 6 -34 11q-18 22 -29 22h-8q-2 0 -16 -4q-64 4 -88 4h-416q-26 0 -68 -2q-24 6 -24 21
q64 22 449 49q127 30 208 30q0 1 55 5v0h1zM386 328q32 -13 50 -13h152q4 -1 4 -4v-4q-60 -143 -70 -144q-16 0 -32 -92h-2q-34 6 -34 28q-2 72 -2 104l12 34q0 24 -60 30q-28 25 -28 30q3 30 10 31v0v0v1v-1z" />
    <glyph glyph-name="ccaron" unicode="&#x10d;" 
d="M122.67 1480q117 -106 126 -108q5 -2 11 -2q3 0 10 1t11 1q7 0 13 -2q10 -4 12 -12q2 -9 7 -13q2 -2 52 -42q43 -34 67 -56l23 -23q13 -11 17 -17q14 -14 15 -34q4 -6 14 -13q11 -7 15 -10q11 -10 11 -24q0 -8 -3 -16q-2 -5 -10 -17q-8 -10 -8 -14q0 -32 12 -40
q1 2 15 10q16 9 24 17q68 62 84 70q17 7 17 21v1q-1 16 -25 26q-20 8 -134 96q-116 88 -115 88q-1 1 -20 3q-20 1 -36 9q-8 4 -126 80q-108 69 -115 69h-1q-1 -1 -1 -3q0 -6 7 -18q11 -20 27 -34v0zM151.67 786q36 14 43 14h142q10 0 10 6q0 4 -2 8q-20 46 -22 56
q-3 10 -7 68q-26 51 -27 55q-22 186 -25 195q-2 8 -34 36q-2 2 -3 2q-3 0 -3 -5v-2q8 -125 8 -181v-18l-6 -110q10 -10 10 -22q0 -5 -2 -10q-6 -16 -24 -21l-32 -12q-6 -1 -28 -25q-1 -2 -1 -5q0 -10 6 -30v0zM665.67 786q36 14 44 14h141q10 0 10 6q0 4 -2 8q-18 46 -22 56
q-3 10 -7 68q-26 51 -27 55q-22 186 -25 195q-2 8 -34 36q-2 2 -3 2q-3 0 -3 -5v-2q8 -124 8 -182v-18l-6 -110q10 -10 10 -22q0 -5 -2 -10q-6 -16 -24 -21l-32 -12q-6 -1 -28 -25q-1 -2 -1 -5q0 -10 6 -30v0v0v-1zM790 720q12 -4 12 -8v-150l-2 -4q-26 4 -46 28
q-26 6 -37 21q0 6 -18 10q-10 0 -20 -6q-60 6 -103 6q-154 0 -474 -2q-20 7 -20 21q58 20 454 48q48 18 256 36v0h-2zM792 496q10 -2 10 -5v-150q0 -4 -4 -4q-36 7 -36 23q-10 6 -34 11q-18 22 -29 22h-8q-2 0 -16 -4q-64 4 -88 4h-416q-26 0 -68 -2q-24 6 -24 21
q64 22 449 49q127 30 208 30q0 1 55 5v0h1zM386 328q32 -13 50 -13h152q4 -1 4 -4v-4q-60 -143 -70 -144q-16 0 -32 -92h-2q-34 6 -34 28q-2 72 -2 104l12 34q0 24 -60 30q-28 25 -28 30q3 30 10 31v0v0v1v-1z" />
    <glyph glyph-name="Dcaron" unicode="&#x10e;" horiz-adv-x="896" 
d="M-494.697 1485q117 -106 126 -108q5 -2 11 -2q3 0 10 1t11 1q7 0 13 -2q10 -4 12 -12q2 -9 7 -13q2 -2 52 -42q43 -34 67 -56l23 -23q13 -11 17 -17q14 -14 15 -34q4 -6 14 -13q11 -7 15 -10q11 -10 11 -24q0 -8 -3 -16q-2 -5 -10 -17q-8 -10 -8 -14q0 -32 12 -40
q1 2 15 10q16 9 24 17q68 62 84 70q17 7 17 21v1q-1 16 -25 26q-20 8 -134 96q-116 88 -115 88q-1 1 -20 3q-20 1 -36 9q-8 4 -126 80q-108 69 -115 69h-1q-1 -1 -1 -3q0 -6 7 -18q11 -20 27 -34v0zM-465.697 791q36 14 43 14h142q10 0 10 6q0 4 -2 8q-20 46 -22 56
q-3 10 -7 68q-26 51 -27 55q-22 186 -25 195q-2 8 -34 36q-2 2 -3 2q-3 0 -3 -5v-2q8 -125 8 -181v-18l-6 -110q10 -10 10 -22q0 -5 -2 -10q-6 -16 -24 -21l-32 -12q-6 -1 -28 -25q-1 -2 -1 -5q0 -10 6 -30v0zM48.3027 791q36 14 44 14h141q10 0 10 6q0 4 -2 8
q-18 46 -22 56q-3 10 -7 68q-26 51 -27 55q-22 186 -25 195q-2 8 -34 36q-2 2 -3 2q-3 0 -3 -5v-2q8 -124 8 -182v-18l-6 -110q10 -10 10 -22q0 -5 -2 -10q-6 -16 -24 -21l-32 -12q-6 -1 -28 -25q-1 -2 -1 -5q0 -10 6 -30v0v0v-1zM84 726q35 -6 50 -6h38q20 0 63 2
q5 -10 6 -10q-2 -20 -2 -23q-7 -446 -17 -446q-24 -234 -52 -342q-7 0 -21 16q-2 72 -2 104v265q0 287 -7 353q4 7 4 19q0 16 -56 35l-8 32l4 2v-1zM620 726q33 -14 50 -14h140q3 0 6 -6l-24 -74q-4 -74 -18 -74q-14 -20 -28 -128q-12 -86 -27 -86q-18 -22 -23 -22q0 4 -4 4
q8 114 8 155q0 17 -6 117q6 0 10 20v3q0 24 -66 44q-24 24 -24 27v2q0 17 7 31v0zM468 710q9 0 96 -76v-8q-88 -76 -96 -76q-12 0 -98 78v6q88 76 98 76v0v0v1v-1z" />
    <glyph glyph-name="Ecaron" unicode="&#x11a;" 
d="M128.176 1480q117 -106 126 -108q5 -2 11 -2q3 0 10 1t11 1q7 0 13 -2q10 -4 12 -12q2 -9 7 -13q2 -2 52 -42q43 -34 67 -56l23 -23q13 -11 17 -17q14 -14 15 -34q4 -6 14 -13q11 -7 15 -10q11 -10 11 -24q0 -8 -3 -16q-2 -5 -10 -17q-8 -10 -8 -14q0 -32 12 -40
q1 2 15 10q16 9 24 17q68 62 84 70q17 7 17 21v1q-1 16 -25 26q-20 8 -134 96q-116 88 -115 88q-1 1 -20 3q-20 1 -36 9q-8 4 -126 80q-108 69 -115 69h-1q-1 -1 -1 -3q0 -6 7 -18q11 -20 27 -34v0zM157.176 786q36 14 43 14h142q10 0 10 6q0 4 -2 8q-20 46 -22 56
q-3 10 -7 68q-26 51 -27 55q-22 186 -25 195q-2 8 -34 36q-2 2 -3 2q-3 0 -3 -5v-2q8 -125 8 -181v-18l-6 -110q10 -10 10 -22q0 -5 -2 -10q-6 -16 -24 -21l-32 -12q-6 -1 -28 -25q-1 -2 -1 -5q0 -10 6 -30v0zM671.176 786q36 14 44 14h141q10 0 10 6q0 4 -2 8
q-18 46 -22 56q-3 10 -7 68q-26 51 -27 55q-22 186 -25 195q-2 8 -34 36q-2 2 -3 2q-3 0 -3 -5v-2q8 -124 8 -182v-18l-6 -110q10 -10 10 -22q0 -5 -2 -10q-6 -16 -24 -21l-32 -12q-6 -1 -28 -25q-1 -2 -1 -5q0 -10 6 -30v0v0v-1zM798 718l4 -6v-150l-2 -4q-26 4 -39 22
q0 8 -30 12q-18 24 -33 24q-6 0 -18 -6l-86 6q-352 -2 -491 -2q-16 0 -22 22q64 20 457 48q52 18 193 29q52 4 68 4v0zM538 454q10 0 112 -90q32 -16 32 -34q0 -14 -60 -46l-223 -170q-52 0 -120 -53q-150 -96 -180 -111l-2 4q0 34 124 134q32 32 48 32q24 -2 27 -2
q20 0 26 24q100 76 170 144q6 8 16 36q36 20 36 44q0 18 -22 44q4 42 15 42v0zM252 412q7 0 96 -76v-6q-87 -78 -98 -78h-2q-77 55 -97 80q26 30 96 79h4v0v1h1z" />
    <glyph glyph-name="ecaron" unicode="&#x11b;" 
d="M128.176 1480q117 -106 126 -108q5 -2 11 -2q3 0 10 1t11 1q7 0 13 -2q10 -4 12 -12q2 -9 7 -13q2 -2 52 -42q43 -34 67 -56l23 -23q13 -11 17 -17q14 -14 15 -34q4 -6 14 -13q11 -7 15 -10q11 -10 11 -24q0 -8 -3 -16q-2 -5 -10 -17q-8 -10 -8 -14q0 -32 12 -40
q1 2 15 10q16 9 24 17q68 62 84 70q17 7 17 21v1q-1 16 -25 26q-20 8 -134 96q-116 88 -115 88q-1 1 -20 3q-20 1 -36 9q-8 4 -126 80q-108 69 -115 69h-1q-1 -1 -1 -3q0 -6 7 -18q11 -20 27 -34v0zM157.176 786q36 14 43 14h142q10 0 10 6q0 4 -2 8q-20 46 -22 56
q-3 10 -7 68q-26 51 -27 55q-22 186 -25 195q-2 8 -34 36q-2 2 -3 2q-3 0 -3 -5v-2q8 -125 8 -181v-18l-6 -110q10 -10 10 -22q0 -5 -2 -10q-6 -16 -24 -21l-32 -12q-6 -1 -28 -25q-1 -2 -1 -5q0 -10 6 -30v0zM671.176 786q36 14 44 14h141q10 0 10 6q0 4 -2 8
q-18 46 -22 56q-3 10 -7 68q-26 51 -27 55q-22 186 -25 195q-2 8 -34 36q-2 2 -3 2q-3 0 -3 -5v-2q8 -124 8 -182v-18l-6 -110q10 -10 10 -22q0 -5 -2 -10q-6 -16 -24 -21l-32 -12q-6 -1 -28 -25q-1 -2 -1 -5q0 -10 6 -30v0v0v-1zM798 718l4 -6v-150l-2 -4q-26 4 -39 22
q0 8 -30 12q-18 24 -33 24q-6 0 -18 -6l-86 6q-352 -2 -491 -2q-16 0 -22 22q64 20 457 48q52 18 193 29q52 4 68 4v0zM538 454q10 0 112 -90q32 -16 32 -34q0 -14 -60 -46l-223 -170q-52 0 -120 -53q-150 -96 -180 -111l-2 4q0 34 124 134q32 32 48 32q24 -2 27 -2
q20 0 26 24q100 76 170 144q6 8 16 36q36 20 36 44q0 18 -22 44q4 42 15 42v0zM252 412q7 0 96 -76v-6q-87 -78 -98 -78h-2q-77 55 -97 80q26 30 96 79h4v0v1h1z" />
    <glyph glyph-name="IJ" unicode="&#x132;" horiz-adv-x="1730" 
d="M1144 714h4q45 -42 63 -92q42 0 58 -38q76 -100 76 -118q0 -22 16 -30q42 -30 42 -58v-10q-58 22 -58 36q-42 62 -156 149q-22 10 -48 54q-8 4 -16 4h-26q-8 0 -50 -20q-8 0 -46 8v4q24 8 140 109v0zM1528 562q42 -32 42 -62q24 -218 36 -218q16 -11 16 -61q3 -26 27 -90
q-7 -6 -15 -6h-136q-9 0 -49 -12q-6 26 -6 34q18 26 78 46q12 12 12 20v10q0 10 -10 18l2 8q2 66 6 106l-8 206l4 2zM1072 402q35 -14 44 -14h146q3 0 6 -6v-4q-24 -54 -31 -135q-29 -30 -29 -88q-20 -160 -26 -172q-28 -28 -36 -33q0 4 -4 4q6 87 8 197q0 28 -6 124
q10 6 10 22v2q0 24 -66 44q-24 20 -24 30q0 14 7 32v0v0v1zM308 726q35 -6 49 -6h39q20 0 63 2q4 -10 6 -10q0 -4 -2 -22q-5 -442 -21 -442q-27 -250 -39 -298q-5 -46 -9 -50q-22 0 -22 54v256q0 366 -8 430q4 6 4 12q0 22 -55 40l-8 32l4 2h-1zM638 718q32 -12 40 -12h150
q16 0 17 -5q0 -12 -64 -144q-25 0 -39 -96h-3q-33 9 -33 25q-2 49 -2 77v28q0 13 12 31v4q0 24 -56 32q-7 0 -32 28v4q2 30 10 30v0v-2zM82 538q2 0 2 -2q43 -2 63 -2h126q11 0 14 -7v-22q0 -18 -19 -22q-18 -22 -60 -96q-32 -8 -46 -8l-2 4v46q0 12 12 32q0 24 -68 32
q-16 0 -24 44q2 0 2 2v0v0v1v-2z" />
    <glyph glyph-name="ij" unicode="&#x133;" horiz-adv-x="1730" 
d="M1144 714h4q45 -42 63 -92q42 0 58 -38q76 -100 76 -118q0 -22 16 -30q42 -30 42 -58v-10q-58 22 -58 36q-42 62 -156 149q-22 10 -48 54q-8 4 -16 4h-26q-8 0 -50 -20q-8 0 -46 8v4q24 8 140 109v0zM1528 562q42 -32 42 -62q24 -218 36 -218q16 -11 16 -61q3 -26 27 -90
q-7 -6 -15 -6h-136q-9 0 -49 -12q-6 26 -6 34q18 26 78 46q12 12 12 20v10q0 10 -10 18l2 8q2 66 6 106l-8 206l4 2zM1072 402q35 -14 44 -14h146q3 0 6 -6v-4q-24 -54 -31 -135q-29 -30 -29 -88q-20 -160 -26 -172q-28 -28 -36 -33q0 4 -4 4q6 87 8 197q0 28 -6 124
q10 6 10 22v2q0 24 -66 44q-24 20 -24 30q0 14 7 32v0v0v1zM308 726q35 -6 49 -6h39q20 0 63 2q4 -10 6 -10q0 -4 -2 -22q-5 -442 -21 -442q-27 -250 -39 -298q-5 -46 -9 -50q-22 0 -22 54v256q0 366 -8 430q4 6 4 12q0 22 -55 40l-8 32l4 2h-1zM638 718q32 -12 40 -12h150
q16 0 17 -5q0 -12 -64 -144q-25 0 -39 -96h-3q-33 9 -33 25q-2 49 -2 77v28q0 13 12 31v4q0 24 -56 32q-7 0 -32 28v4q2 30 10 30v0v-2zM82 538q2 0 2 -2q43 -2 63 -2h126q11 0 14 -7v-22q0 -18 -19 -22q-18 -22 -60 -96q-32 -8 -46 -8l-2 4v46q0 12 12 32q0 24 -68 32
q-16 0 -24 44q2 0 2 2v0v0v1v-2z" />
    <glyph glyph-name="Ncaron" unicode="&#x147;" horiz-adv-x="884" 
d="M-201.837 1481q117 -106 126 -108q5 -2 11 -2q3 0 10 1t11 1q7 0 13 -2q10 -4 12 -12q2 -9 7 -13q2 -2 52 -42q43 -34 67 -56l23 -23q13 -11 17 -17q14 -14 15 -34q4 -6 14 -13q11 -7 15 -10q11 -10 11 -24q0 -8 -3 -16q-2 -5 -10 -17q-8 -10 -8 -14q0 -32 12 -40
q1 2 15 10q16 9 24 17q68 62 84 70q17 7 17 21v1q-1 16 -25 26q-20 8 -134 96q-116 88 -115 88q-1 1 -20 3q-20 1 -36 9q-8 4 -126 80q-108 69 -115 69h-1q-1 -1 -1 -3q0 -6 7 -18q11 -20 27 -34v0zM-172.837 787q36 14 43 14h142q10 0 10 6q0 4 -2 8q-20 46 -22 56
q-3 10 -7 68q-26 51 -27 55q-22 186 -25 195q-2 8 -34 36q-2 2 -3 2q-3 0 -3 -5v-2q8 -125 8 -181v-18l-6 -110q10 -10 10 -22q0 -5 -2 -10q-6 -16 -24 -21l-32 -12q-6 -1 -28 -25q-1 -2 -1 -5q0 -10 6 -30v0zM341.163 787q36 14 44 14h141q10 0 10 6q0 4 -2 8
q-18 46 -22 56q-3 10 -7 68q-26 51 -27 55q-22 186 -25 195q-2 8 -34 36q-2 2 -3 2q-3 0 -3 -5v-2q8 -124 8 -182v-18l-6 -110q10 -10 10 -22q0 -5 -2 -10q-6 -16 -24 -21l-32 -12q-6 -1 -28 -25q-1 -2 -1 -5q0 -10 6 -30v0v0v-1zM462 723h6q76 -60 92 -76v-6
q-76 -68 -96 -78q-10 0 -98 76v8q86 76 96 76v0v0zM792 360q8 -2 12 -8l-2 -14v-134q0 -4 -4 -4q-20 0 -42 27q-36 8 -36 19q-14 10 -21 10h-5q-8 0 -16 -6q-44 6 -92 6h-282q-72 0 -202 -2q-14 0 -22 22q68 22 452 48q60 18 189 30q11 0 71 6v0v0zM794 135q8 -3 8 -6v-150
l-2 -3q-22 0 -48 30q-24 0 -38 22q-3 0 -8 4h-14l-14 -4q-16 0 -82 6q-184 -2 -292 -2h-202q-14 0 -22 20q0 6 122 22q396 29 396 44q114 12 196 18v0v0v1v-2z" />
    <glyph glyph-name="ncaron" unicode="&#x148;" horiz-adv-x="884" 
d="M-614.001 1481q117 -106 126 -108q5 -2 11 -2q3 0 10 1t11 1q7 0 13 -2q10 -4 12 -12q2 -9 7 -13q2 -2 52 -42q43 -34 67 -56l23 -23q13 -11 17 -17q14 -14 15 -34q4 -6 14 -13q11 -7 15 -10q11 -10 11 -24q0 -8 -3 -16q-2 -5 -10 -17q-8 -10 -8 -14q0 -32 12 -40
q1 2 15 10q16 9 24 17q68 62 84 70q17 7 17 21v1q-1 16 -25 26q-20 8 -134 96q-116 88 -115 88q-1 1 -20 3q-20 1 -36 9q-8 4 -126 80q-108 69 -115 69h-1q-1 -1 -1 -3q0 -6 7 -18q11 -20 27 -34v0zM-585.001 787q36 14 43 14h142q10 0 10 6q0 4 -2 8q-20 46 -22 56
q-3 10 -7 68q-26 51 -27 55q-22 186 -25 195q-2 8 -34 36q-2 2 -3 2q-3 0 -3 -5v-2q8 -125 8 -181v-18l-6 -110q10 -10 10 -22q0 -5 -2 -10q-6 -16 -24 -21l-32 -12q-6 -1 -28 -25q-1 -2 -1 -5q0 -10 6 -30v0zM-71.001 787q36 14 44 14h141q10 0 10 6q0 4 -2 8
q-18 46 -22 56q-3 10 -7 68q-26 51 -27 55q-22 186 -25 195q-2 8 -34 36q-2 2 -3 2q-3 0 -3 -5v-2q8 -124 8 -182v-18l-6 -110q10 -10 10 -22q0 -5 -2 -10q-6 -16 -24 -21l-32 -12q-6 -1 -28 -25q-1 -2 -1 -5q0 -10 6 -30v0v0v-1zM462 723h6q76 -60 92 -76v-6
q-76 -68 -96 -78q-10 0 -98 76v8q86 76 96 76v0v0zM792 360q8 -2 12 -8l-2 -14v-134q0 -4 -4 -4q-20 0 -42 27q-36 8 -36 19q-14 10 -21 10h-5q-8 0 -16 -6q-44 6 -92 6h-282q-72 0 -202 -2q-14 0 -22 22q68 22 452 48q60 18 189 30q11 0 71 6v0v0zM794 135q8 -3 8 -6v-150
l-2 -3q-22 0 -48 30q-24 0 -38 22q-3 0 -8 4h-14l-14 -4q-16 0 -82 6q-184 -2 -292 -2h-202q-14 0 -22 20q0 6 122 22q396 29 396 44q114 12 196 18v0v0v1v-2z" />
    <glyph glyph-name="OE" unicode="&#x152;" horiz-adv-x="1793" 
d="M1709 718l4 -6v-150l-2 -4q-26 4 -39 22q0 8 -30 12q-18 24 -33 24q-6 0 -18 -6l-86 6q-352 -2 -491 -2q-16 0 -22 22q64 20 457 48q52 18 193 29q52 4 68 4v0zM1449 454q10 0 112 -90q32 -16 32 -34q0 -14 -60 -46l-223 -170q-52 0 -120 -53q-150 -96 -180 -111l-2 4
q0 34 124 134q32 32 48 32q24 -2 27 -2q20 0 26 24q100 76 170 144q6 8 16 36q36 20 36 44q0 18 -22 44q4 42 15 42v0zM1163 412q7 0 96 -76v-6q-87 -78 -98 -78h-2q-77 55 -97 80q26 30 96 79h4v0v1h1zM624 720q34 -12 46 -12h148q10 0 13 -7q-58 -136 -66 -142
q-22 0 -36 -94l-4 -2q-32 6 -32 32q-2 26 -4 96q4 16 14 38q0 24 -56 31q-8 0 -34 30q5 32 10 32v0zM328 710q48 -4 80 -4h121q7 -2 7 -14v-12q0 -18 -26 -30q-28 -44 -55 -90q-7 -4 -46 -10l-2 4v32l-2 12q6 26 12 32v10q0 16 -62 24q-24 7 -24 31q-4 0 -5 13v2h2zM522 454
q10 0 112 -90q32 -16 32 -34q-2 -15 -62 -48l-222 -168q-51 0 -120 -53q-122 -78 -180 -110l-2 4q0 32 112 124q45 42 59 42q5 0 29 -2q20 0 27 24q90 68 170 144q6 8 15 36q37 20 37 44q0 18 -20 42v6q0 38 14 38v0v0v1h-1z" />
    <glyph glyph-name="oe" unicode="&#x153;" horiz-adv-x="1793" 
d="M1709 718l4 -6v-150l-2 -4q-26 4 -39 22q0 8 -30 12q-18 24 -33 24q-6 0 -18 -6l-86 6q-352 -2 -491 -2q-16 0 -22 22q64 20 457 48q52 18 193 29q52 4 68 4v0zM1449 454q10 0 112 -90q32 -16 32 -34q0 -14 -60 -46l-223 -170q-52 0 -120 -53q-150 -96 -180 -111l-2 4
q0 34 124 134q32 32 48 32q24 -2 27 -2q20 0 26 24q100 76 170 144q6 8 16 36q36 20 36 44q0 18 -22 44q4 42 15 42v0zM1163 412q7 0 96 -76v-6q-87 -78 -98 -78h-2q-77 55 -97 80q26 30 96 79h4v0v1h1zM624 720q34 -12 46 -12h148q10 0 13 -7q-58 -136 -66 -142
q-22 0 -36 -94l-4 -2q-32 6 -32 32q-2 26 -4 96q4 16 14 38q0 24 -56 31q-8 0 -34 30q5 32 10 32v0zM328 710q48 -4 80 -4h121q7 -2 7 -14v-12q0 -18 -26 -30q-28 -44 -55 -90q-7 -4 -46 -10l-2 4v32l-2 12q6 26 12 32v10q0 16 -62 24q-24 7 -24 31q-4 0 -5 13v2h2zM522 454
q10 0 112 -90q32 -16 32 -34q-2 -15 -62 -48l-222 -168q-51 0 -120 -53q-122 -78 -180 -110l-2 4q0 32 112 124q45 42 59 42q5 0 29 -2q20 0 27 24q90 68 170 144q6 8 15 36q37 20 37 44q0 18 -20 42v6q0 38 14 38v0v0v1h-1z" />
    <glyph glyph-name="Rcaron" unicode="&#x158;" horiz-adv-x="836" 
d="M-585.837 1484q117 -106 126 -108q5 -2 11 -2q3 0 10 1t11 1q7 0 13 -2q10 -4 12 -12q2 -9 7 -13q2 -2 52 -42q43 -34 67 -56l23 -23q13 -11 17 -17q14 -14 15 -34q4 -6 14 -13q11 -7 15 -10q11 -10 11 -24q0 -8 -3 -16q-2 -5 -10 -17q-8 -10 -8 -14q0 -32 12 -40
q1 2 15 10q16 9 24 17q68 62 84 70q17 7 17 21v1q-1 16 -25 26q-20 8 -134 96q-116 88 -115 88q-1 1 -20 3q-20 1 -36 9q-8 4 -126 80q-108 69 -115 69h-1q-1 -1 -1 -3q0 -6 7 -18q11 -20 27 -34v0zM-556.837 790q36 14 43 14h142q10 0 10 6q0 4 -2 8q-20 46 -22 56
q-3 10 -7 68q-26 51 -27 55q-22 186 -25 195q-2 8 -34 36q-2 2 -3 2q-3 0 -3 -5v-2q8 -125 8 -181v-18l-6 -110q10 -10 10 -22q0 -5 -2 -10q-6 -16 -24 -21l-32 -12q-6 -1 -28 -25q-1 -2 -1 -5q0 -10 6 -30v0zM-42.8369 790q36 14 44 14h141q10 0 10 6q0 4 -2 8
q-18 46 -22 56q-3 10 -7 68q-26 51 -27 55q-22 186 -25 195q-2 8 -34 36q-2 2 -3 2q-3 0 -3 -5v-2q8 -124 8 -182v-18l-6 -110q10 -10 10 -22q0 -5 -2 -10q-6 -16 -24 -21l-32 -12q-6 -1 -28 -25q-1 -2 -1 -5q0 -10 6 -30v0v0v-1zM80 726h2q34 -6 50 -6h72q10 0 30 2l6 -8
q-7 -458 -19 -458q-8 -22 -30 -256l-20 -100h-2q-20 10 -20 22q-2 476 -2 596q0 16 -5 116l2 24q0 13 -52 31q-10 20 -10 36v0zM560 674q33 -14 44 -14h140q12 -1 12 -6l-24 -75q-6 -62 -10 -65q-24 -14 -36 -160q-12 -100 -18 -100q-16 -18 -34 -32q0 4 -4 4q8 152 8 200
l-6 118q10 16 10 24v4q0 24 -64 42l-26 26v4q0 20 8 32v0v-2zM306 432q40 -4 76 -4h124q6 -2 6 -12v-19q0 -12 -26 -24q-54 -92 -56 -92q-38 -7 -44 -7l-2 4v45q0 7 12 37q0 20 -64 28q-24 6 -24 32q-3 0 -4 12q2 0 2 2v0v0v1v-3z" />
    <glyph glyph-name="rcaron" unicode="&#x159;" horiz-adv-x="836" 
d="M-541.504 1484q117 -106 126 -108q5 -2 11 -2q3 0 10 1t11 1q7 0 13 -2q10 -4 12 -12q2 -9 7 -13q2 -2 52 -42q43 -34 67 -56l23 -23q13 -11 17 -17q14 -14 15 -34q4 -6 14 -13q11 -7 15 -10q11 -10 11 -24q0 -8 -3 -16q-2 -5 -10 -17q-8 -10 -8 -14q0 -32 12 -40
q1 2 15 10q16 9 24 17q68 62 84 70q17 7 17 21v1q-1 16 -25 26q-20 8 -134 96q-116 88 -115 88q-1 1 -20 3q-20 1 -36 9q-8 4 -126 80q-108 69 -115 69h-1q-1 -1 -1 -3q0 -6 7 -18q11 -20 27 -34v0zM-512.504 790q36 14 43 14h142q10 0 10 6q0 4 -2 8q-20 46 -22 56
q-3 10 -7 68q-26 51 -27 55q-22 186 -25 195q-2 8 -34 36q-2 2 -3 2q-3 0 -3 -5v-2q8 -125 8 -181v-18l-6 -110q10 -10 10 -22q0 -5 -2 -10q-6 -16 -24 -21l-32 -12q-6 -1 -28 -25q-1 -2 -1 -5q0 -10 6 -30v0zM1.49609 790q36 14 44 14h141q10 0 10 6q0 4 -2 8
q-18 46 -22 56q-3 10 -7 68q-26 51 -27 55q-22 186 -25 195q-2 8 -34 36q-2 2 -3 2q-3 0 -3 -5v-2q8 -124 8 -182v-18l-6 -110q10 -10 10 -22q0 -5 -2 -10q-6 -16 -24 -21l-32 -12q-6 -1 -28 -25q-1 -2 -1 -5q0 -10 6 -30v0v0v-1zM80 726h2q34 -6 50 -6h72q10 0 30 2l6 -8
q-7 -458 -19 -458q-8 -22 -30 -256l-20 -100h-2q-20 10 -20 22q-2 476 -2 596q0 16 -5 116l2 24q0 13 -52 31q-10 20 -10 36v0zM560 674q33 -14 44 -14h140q12 -1 12 -6l-24 -75q-6 -62 -10 -65q-24 -14 -36 -160q-12 -100 -18 -100q-16 -18 -34 -32q0 4 -4 4q8 152 8 200
l-6 118q10 16 10 24v4q0 24 -64 42l-26 26v4q0 20 8 32v0v-2zM306 432q40 -4 76 -4h124q6 -2 6 -12v-19q0 -12 -26 -24q-54 -92 -56 -92q-38 -7 -44 -7l-2 4v45q0 7 12 37q0 20 -64 28q-24 6 -24 32q-3 0 -4 12q2 0 2 2v0v0v1v-3z" />
    <glyph glyph-name="Scaron" unicode="&#x160;" horiz-adv-x="863" 
d="M-383.837 1486q117 -106 126 -108q5 -2 11 -2q3 0 10 1t11 1q7 0 13 -2q10 -4 12 -12q2 -9 7 -13q2 -2 52 -42q43 -34 67 -56l23 -23q13 -11 17 -17q14 -14 15 -34q4 -6 14 -13q11 -7 15 -10q11 -10 11 -24q0 -8 -3 -16q-2 -5 -10 -17q-8 -10 -8 -14q0 -32 12 -40
q1 2 15 10q16 9 24 17q68 62 84 70q17 7 17 21v1q-1 16 -25 26q-20 8 -134 96q-116 88 -115 88q-1 1 -20 3q-20 1 -36 9q-8 4 -126 80q-108 69 -115 69h-1q-1 -1 -1 -3q0 -6 7 -18q11 -20 27 -34v0zM-354.837 792q36 14 43 14h142q10 0 10 6q0 4 -2 8q-20 46 -22 56
q-3 10 -7 68q-26 51 -27 55q-22 186 -25 195q-2 8 -34 36q-2 2 -3 2q-3 0 -3 -5v-2q8 -125 8 -181v-18l-6 -110q10 -10 10 -22q0 -5 -2 -10q-6 -16 -24 -21l-32 -12q-6 -1 -28 -25q-1 -2 -1 -5q0 -10 6 -30v0zM159.163 792q36 14 44 14h141q10 0 10 6q0 4 -2 8
q-18 46 -22 56q-3 10 -7 68q-26 51 -27 55q-22 186 -25 195q-2 8 -34 36q-2 2 -3 2q-3 0 -3 -5v-2q8 -124 8 -182v-18l-6 -110q10 -10 10 -22q0 -5 -2 -10q-6 -16 -24 -21l-32 -12q-6 -1 -28 -25q-1 -2 -1 -5q0 -10 6 -30v0v0v-1zM284 726q32 -6 48 -6h72q10 0 30 2l6 -8
q-8 -458 -21 -458q-10 -42 -30 -258q-2 -5 -20 -99h-2q-20 8 -20 30q0 93 -2 598l-6 106q2 17 2 27q0 16 -54 32q-8 30 -8 34l4 2zM590 706q20 -9 44 -13h144q6 0 6 -8q-31 -66 -31 -132q-28 -16 -38 -134q-12 -138 -28 -138q-20 -24 -29 -24l-2 4l8 200q-6 93 -6 119
q10 10 10 23q0 24 -66 44q-26 24 -26 28q4 32 12 32v0zM90 418q33 -14 51 -14h139q4 -1 4 -4v-2l-24 -75q-6 -70 -14 -70q-18 -16 -32 -148q-10 -114 -24 -114l-26 -24h-2l-4 2q6 89 8 199q0 20 -6 122q6 0 10 18v6q0 22 -64 42l-26 26v2q0 26 10 32v0v0v1v1z" />
    <glyph glyph-name="scaron" unicode="&#x161;" horiz-adv-x="863" 
d="M-383.837 1486q117 -106 126 -108q5 -2 11 -2q3 0 10 1t11 1q7 0 13 -2q10 -4 12 -12q2 -9 7 -13q2 -2 52 -42q43 -34 67 -56l23 -23q13 -11 17 -17q14 -14 15 -34q4 -6 14 -13q11 -7 15 -10q11 -10 11 -24q0 -8 -3 -16q-2 -5 -10 -17q-8 -10 -8 -14q0 -32 12 -40
q1 2 15 10q16 9 24 17q68 62 84 70q17 7 17 21v1q-1 16 -25 26q-20 8 -134 96q-116 88 -115 88q-1 1 -20 3q-20 1 -36 9q-8 4 -126 80q-108 69 -115 69h-1q-1 -1 -1 -3q0 -6 7 -18q11 -20 27 -34v0zM-354.837 792q36 14 43 14h142q10 0 10 6q0 4 -2 8q-20 46 -22 56
q-3 10 -7 68q-26 51 -27 55q-22 186 -25 195q-2 8 -34 36q-2 2 -3 2q-3 0 -3 -5v-2q8 -125 8 -181v-18l-6 -110q10 -10 10 -22q0 -5 -2 -10q-6 -16 -24 -21l-32 -12q-6 -1 -28 -25q-1 -2 -1 -5q0 -10 6 -30v0zM159.163 792q36 14 44 14h141q10 0 10 6q0 4 -2 8
q-18 46 -22 56q-3 10 -7 68q-26 51 -27 55q-22 186 -25 195q-2 8 -34 36q-2 2 -3 2q-3 0 -3 -5v-2q8 -124 8 -182v-18l-6 -110q10 -10 10 -22q0 -5 -2 -10q-6 -16 -24 -21l-32 -12q-6 -1 -28 -25q-1 -2 -1 -5q0 -10 6 -30v0v0v-1zM284 726q32 -6 48 -6h72q10 0 30 2l6 -8
q-8 -458 -21 -458q-10 -42 -30 -258q-2 -5 -20 -99h-2q-20 8 -20 30q0 93 -2 598l-6 106q2 17 2 27q0 16 -54 32q-8 30 -8 34l4 2zM590 706q20 -9 44 -13h144q6 0 6 -8q-31 -66 -31 -132q-28 -16 -38 -134q-12 -138 -28 -138q-20 -24 -29 -24l-2 4l8 200q-6 93 -6 119
q10 10 10 23q0 24 -66 44q-26 24 -26 28q4 32 12 32v0zM90 418q33 -14 51 -14h139q4 -1 4 -4v-2l-24 -75q-6 -70 -14 -70q-18 -16 -32 -148q-10 -114 -24 -114l-26 -24h-2l-4 2q6 89 8 199q0 20 -6 122q6 0 10 18v6q0 22 -64 42l-26 26v2q0 26 10 32v0v0v1v1z" />
    <glyph glyph-name="Tcaron" unicode="&#x164;" 
d="M-93.8115 1480q117 -106 126 -108q5 -2 11 -2q3 0 10 1t11 1q7 0 13 -2q10 -4 12 -12q2 -9 7 -13q2 -2 52 -42q43 -34 67 -56l23 -23q13 -11 17 -17q14 -14 15 -34q4 -6 14 -13q11 -7 15 -10q11 -10 11 -24q0 -8 -3 -16q-2 -5 -10 -17q-8 -10 -8 -14q0 -32 12 -40
q1 2 15 10q16 9 24 17q68 62 84 70q17 7 17 21v1q-1 16 -25 26q-20 8 -134 96q-116 88 -115 88q-1 1 -20 3q-20 1 -36 9q-8 4 -126 80q-108 69 -115 69h-1q-1 -1 -1 -3q0 -6 7 -18q11 -20 27 -34v0zM-64.8115 786q36 14 43 14h142q10 0 10 6q0 4 -2 8q-20 46 -22 56
q-3 10 -7 68q-26 51 -27 55q-22 186 -25 195q-2 8 -34 36q-2 2 -3 2q-3 0 -3 -5v-2q8 -125 8 -181v-18l-6 -110q10 -10 10 -22q0 -5 -2 -10q-6 -16 -24 -21l-32 -12q-6 -1 -28 -25q-1 -2 -1 -5q0 -10 6 -30v0zM449.188 786q36 14 44 14h141q10 0 10 6q0 4 -2 8
q-18 46 -22 56q-3 10 -7 68q-26 51 -27 55q-22 186 -25 195q-2 8 -34 36q-2 2 -3 2q-3 0 -3 -5v-2q8 -124 8 -182v-18l-6 -110q10 -10 10 -22q0 -5 -2 -10q-6 -16 -24 -21l-32 -12q-6 -1 -28 -25q-1 -2 -1 -5q0 -10 6 -30v0v0v-1zM580 714q32 -13 50 -13h138q3 0 6 -6v-2
q-30 -70 -30 -132q-32 -34 -32 -105q-20 -164 -28 -164l-30 -28h-2l-4 2q8 154 8 202l-6 120q6 0 9 22q0 26 -66 44l-24 26v4q1 30 9 30v0h2zM326 626q33 -11 40 -11h142q11 0 14 -8q-32 -74 -32 -136q-30 -28 -30 -92q-20 -172 -28 -172l-32 -30q-4 0 -4 4q5 157 5 198
q0 45 -5 121q5 0 9 18v6q0 24 -64 42q-26 22 -26 32q5 28 10 28v0h1zM794 150q8 -2 8 -5v-150l-2 -4q-36 8 -36 20q-8 8 -38 15q-11 20 -27 20h-8l-14 -4q-16 0 -82 6q-184 -2 -292 -2h-202q-14 0 -21 20q56 22 444 48q130 31 206 31q0 2 64 5v0v0v1v-1z" />
    <glyph glyph-name="Zcaron" unicode="&#x17d;" horiz-adv-x="901" 
d="M-42.8369 1498q117 -106 126 -108q5 -2 11 -2q3 0 10 1t11 1q7 0 13 -2q10 -4 12 -12q2 -9 7 -13q2 -2 52 -42q43 -34 67 -56l23 -23q13 -11 17 -17q14 -14 15 -34q4 -6 14 -13q11 -7 15 -10q11 -10 11 -24q0 -8 -3 -16q-2 -5 -10 -17q-8 -10 -8 -14q0 -32 12 -40
q1 2 15 10q16 9 24 17q68 62 84 70q17 7 17 21v1q-1 16 -25 26q-20 8 -134 96q-116 88 -115 88q-1 1 -20 3q-20 1 -36 9q-8 4 -126 80q-108 69 -115 69h-1q-1 -1 -1 -3q0 -6 7 -18q11 -20 27 -34v0zM-13.8369 804q36 14 43 14h142q10 0 10 6q0 4 -2 8q-20 46 -22 56
q-3 10 -7 68q-26 51 -27 55q-22 186 -25 195q-2 8 -34 36q-2 2 -3 2q-3 0 -3 -5v-2q8 -125 8 -181v-18l-6 -110q10 -10 10 -22q0 -5 -2 -10q-6 -16 -24 -21l-32 -12q-6 -1 -28 -25q-1 -2 -1 -5q0 -10 6 -30v0zM500.163 804q36 14 44 14h141q10 0 10 6q0 4 -2 8
q-18 46 -22 56q-3 10 -7 68q-26 51 -27 55q-22 186 -25 195q-2 8 -34 36q-2 2 -3 2q-3 0 -3 -5v-2q8 -124 8 -182v-18l-6 -110q10 -10 10 -22q0 -5 -2 -10q-6 -16 -24 -21l-32 -12q-6 -1 -28 -25q-1 -2 -1 -5q0 -10 6 -30v0v0v-1zM624 740q35 -14 44 -14h146q3 0 9 -8
q-26 -48 -35 -138q-16 0 -29 -89q-16 -176 -30 -176q-24 -24 -32 -24q5 168 5 200q0 40 -5 122q5 0 9 18v8q0 22 -58 38q-14 9 -32 29q0 18 8 34v0v0zM86 738h2q39 -12 50 -12h140q3 0 8 -8q-30 -66 -30 -130q-34 -40 -34 -116q-18 -154 -26 -154l-32 -31q-4 0 -4 4l8 202
q-6 78 -6 121q4 0 10 20q0 26 -68 46l-24 26q0 5 6 33v0v-1zM366 726q32 -6 48 -6h106q1 0 7 -6q-10 -458 -21 -458q-10 -34 -32 -266q-16 -82 -20 -90h-2q-5 0 -17 16q-2 232 -2 355v220q0 56 -8 148q4 6 4 12v2q0 24 -48 34q-8 0 -17 38q2 0 2 2v0v0v1v-2z" />
    <glyph glyph-name="zcaron" unicode="&#x17e;" horiz-adv-x="901" 
d="M-42.8369 1498q117 -106 126 -108q5 -2 11 -2q3 0 10 1t11 1q7 0 13 -2q10 -4 12 -12q2 -9 7 -13q2 -2 52 -42q43 -34 67 -56l23 -23q13 -11 17 -17q14 -14 15 -34q4 -6 14 -13q11 -7 15 -10q11 -10 11 -24q0 -8 -3 -16q-2 -5 -10 -17q-8 -10 -8 -14q0 -32 12 -40
q1 2 15 10q16 9 24 17q68 62 84 70q17 7 17 21v1q-1 16 -25 26q-20 8 -134 96q-116 88 -115 88q-1 1 -20 3q-20 1 -36 9q-8 4 -126 80q-108 69 -115 69h-1q-1 -1 -1 -3q0 -6 7 -18q11 -20 27 -34v0zM-13.8369 804q36 14 43 14h142q10 0 10 6q0 4 -2 8q-20 46 -22 56
q-3 10 -7 68q-26 51 -27 55q-22 186 -25 195q-2 8 -34 36q-2 2 -3 2q-3 0 -3 -5v-2q8 -125 8 -181v-18l-6 -110q10 -10 10 -22q0 -5 -2 -10q-6 -16 -24 -21l-32 -12q-6 -1 -28 -25q-1 -2 -1 -5q0 -10 6 -30v0zM500.163 804q36 14 44 14h141q10 0 10 6q0 4 -2 8
q-18 46 -22 56q-3 10 -7 68q-26 51 -27 55q-22 186 -25 195q-2 8 -34 36q-2 2 -3 2q-3 0 -3 -5v-2q8 -124 8 -182v-18l-6 -110q10 -10 10 -22q0 -5 -2 -10q-6 -16 -24 -21l-32 -12q-6 -1 -28 -25q-1 -2 -1 -5q0 -10 6 -30v0v0v-1zM624 740q35 -14 44 -14h146q3 0 9 -8
q-26 -48 -35 -138q-16 0 -29 -89q-16 -176 -30 -176q-24 -24 -32 -24q5 168 5 200q0 40 -5 122q5 0 9 18v8q0 22 -58 38q-14 9 -32 29q0 18 8 34v0v0zM86 738h2q39 -12 50 -12h140q3 0 8 -8q-30 -66 -30 -130q-34 -40 -34 -116q-18 -154 -26 -154l-32 -31q-4 0 -4 4l8 202
q-6 78 -6 121q4 0 10 20q0 26 -68 46l-24 26q0 5 6 33v0v-1zM366 726q32 -6 48 -6h106q1 0 7 -6q-10 -458 -21 -458q-10 -34 -32 -266q-16 -82 -20 -90h-2q-5 0 -17 16q-2 232 -2 355v220q0 56 -8 148q4 6 4 12v2q0 24 -48 34q-8 0 -17 38q2 0 2 2v0v0v1v-2z" />
    <glyph glyph-name="longs" unicode="&#x17f;" horiz-adv-x="863" 
d="M284 726q32 -6 48 -6h72q10 0 30 2l6 -8q-8 -458 -21 -458q-10 -42 -30 -258q-2 -5 -20 -99h-2q-20 8 -20 30q0 93 -2 598l-6 106q2 17 2 27q0 16 -54 32q-8 30 -8 34l4 2zM590 706q20 -9 44 -13h144q6 0 6 -8q-31 -66 -31 -132q-28 -16 -38 -134q-12 -138 -28 -138
q-20 -24 -29 -24l-2 4l8 200q-6 93 -6 119q10 10 10 23q0 24 -66 44q-26 24 -26 28q4 32 12 32v0zM90 418q33 -14 51 -14h139q4 -1 4 -4v-2l-24 -75q-6 -70 -14 -70q-18 -16 -32 -148q-10 -114 -24 -114l-26 -24h-2l-4 2q6 89 8 199q0 20 -6 122q6 0 10 18v6q0 22 -64 42
l-26 26v2q0 26 10 32v0v0v1v1z" />
    <glyph glyph-name="Ohorn" unicode="&#x1a0;" horiz-adv-x="911" 
d="M1065.63 722q42 -32 42 -62q24 -218 36 -218q16 -12 16 -61q2 -26 28 -92q-7 -6 -15 -6h-141q-6 0 -42 -12q-8 18 -8 34q16 26 78 46q12 11 15 25q-10 26 -10 27q0 35 6 111l-8 205l4 1v0v1zM624 720q34 -12 46 -12h148q10 0 13 -7q-58 -136 -66 -142q-22 0 -36 -94
l-4 -2q-32 6 -32 32q-2 26 -4 96q4 16 14 38q0 24 -56 31q-8 0 -34 30q5 32 10 32v0zM328 710q48 -4 80 -4h121q7 -2 7 -14v-12q0 -18 -26 -30q-28 -44 -55 -90q-7 -4 -46 -10l-2 4v32l-2 12q6 26 12 32v10q0 16 -62 24q-24 7 -24 31q-4 0 -5 13v2h2zM522 454q10 0 112 -90
q32 -16 32 -34q-2 -15 -62 -48l-222 -168q-51 0 -120 -53q-122 -78 -180 -110l-2 4q0 32 112 124q45 42 59 42q5 0 29 -2q20 0 27 24q90 68 170 144q6 8 15 36q37 20 37 44q0 18 -20 42v6q0 38 14 38v0v0v1h-1z" />
    <glyph glyph-name="ohorn" unicode="&#x1a1;" horiz-adv-x="911" 
d="M1065.63 722q42 -32 42 -62q24 -218 36 -218q16 -12 16 -61q2 -26 28 -92q-7 -6 -15 -6h-141q-6 0 -42 -12q-8 18 -8 34q16 26 78 46q12 11 15 25q-10 26 -10 27q0 35 6 111l-8 205l4 1v0v1zM624 720q34 -12 46 -12h148q10 0 13 -7q-58 -136 -66 -142q-22 0 -36 -94
l-4 -2q-32 6 -32 32q-2 26 -4 96q4 16 14 38q0 24 -56 31q-8 0 -34 30q5 32 10 32v0zM328 710q48 -4 80 -4h121q7 -2 7 -14v-12q0 -18 -26 -30q-28 -44 -55 -90q-7 -4 -46 -10l-2 4v32l-2 12q6 26 12 32v10q0 16 -62 24q-24 7 -24 31q-4 0 -5 13v2h2zM522 454q10 0 112 -90
q32 -16 32 -34q-2 -15 -62 -48l-222 -168q-51 0 -120 -53q-122 -78 -180 -110l-2 4q0 32 112 124q45 42 59 42q5 0 29 -2q20 0 27 24q90 68 170 144q6 8 15 36q37 20 37 44q0 18 -20 42v6q0 38 14 38v0v0v1h-1z" />
    <glyph glyph-name="Uhorn" unicode="&#x1af;" horiz-adv-x="850" 
d="M832.631 740q42 -32 42 -62q24 -218 36 -218q16 -12 16 -61q2 -26 28 -92q-7 -6 -15 -6h-141q-6 0 -42 -12q-8 18 -8 34q16 26 78 46q12 11 15 25q-10 26 -10 27q0 35 6 111l-8 205l4 1v0v1zM390 740q34 -14 44 -14h146q3 0 6 -6v-4q-30 -71 -30 -133q-32 -32 -32 -106
q-20 -158 -28 -158q-18 -22 -33 -34q0 4 -4 4q6 87 8 199q0 26 -6 122q10 6 10 22v2q0 24 -66 44q-24 22 -24 25v2q0 18 8 34v0zM610 726q30 -6 46 -6h104q2 0 8 -8q0 -4 -2 -22q-7 -436 -17 -436q-24 -230 -52 -355h-2q-18 0 -20 35v234q0 410 -8 470q4 8 4 14q0 22 -56 38
q0 3 -7 34q2 0 2 2v0v0zM164 704q40 -37 40 -55q24 -224 35 -224q14 -16 14 -32q1 -49 29 -119v-2q0 -3 -6 -7h-146q-10 0 -44 -14q-5 0 -8 32v4q15 27 75 45q14 14 14 24v4q0 6 -10 22l6 118q0 42 -8 201l6 4v0v1z" />
    <glyph glyph-name="uhorn" unicode="&#x1b0;" horiz-adv-x="850" 
d="M832.631 740q42 -32 42 -62q24 -218 36 -218q16 -12 16 -61q2 -26 28 -92q-7 -6 -15 -6h-141q-6 0 -42 -12q-8 18 -8 34q16 26 78 46q12 11 15 25q-10 26 -10 27q0 35 6 111l-8 205l4 1v0v1zM390 740q34 -14 44 -14h146q3 0 6 -6v-4q-30 -71 -30 -133q-32 -32 -32 -106
q-20 -158 -28 -158q-18 -22 -33 -34q0 4 -4 4q6 87 8 199q0 26 -6 122q10 6 10 22v2q0 24 -66 44q-24 22 -24 25v2q0 18 8 34v0zM610 726q30 -6 46 -6h104q2 0 8 -8q0 -4 -2 -22q-7 -436 -17 -436q-24 -230 -52 -355h-2q-18 0 -20 35v234q0 410 -8 470q4 8 4 14q0 22 -56 38
q0 3 -7 34q2 0 2 2v0v0zM164 704q40 -37 40 -55q24 -224 35 -224q14 -16 14 -32q1 -49 29 -119v-2q0 -3 -6 -7h-146q-10 0 -44 -14q-5 0 -8 32v4q15 27 75 45q14 14 14 24v4q0 6 -10 22l6 118q0 42 -8 201l6 4v0v1z" />
    <glyph glyph-name="uni01C4" unicode="&#x1c4;" horiz-adv-x="1797" 
d="M853.163 1498q117 -106 126 -108q5 -2 11 -2q3 0 10 1t11 1q7 0 13 -2q10 -4 12 -12q2 -9 7 -13q2 -2 52 -42q43 -34 67 -56l23 -23q13 -11 17 -17q14 -14 15 -34q4 -6 14 -13q11 -7 15 -10q11 -10 11 -24q0 -8 -3 -16q-2 -5 -10 -17q-8 -10 -8 -14q0 -32 12 -40
q1 2 15 10q16 9 24 17q68 62 84 70q17 7 17 21v1q-1 16 -25 26q-20 8 -134 96q-116 88 -115 88q-1 1 -20 3q-20 1 -36 9q-8 4 -126 80q-108 69 -115 69h-1q-1 -1 -1 -3q0 -6 7 -18q11 -20 27 -34v0zM882.163 804q36 14 43 14h142q10 0 10 6q0 4 -2 8q-20 46 -22 56
q-3 10 -7 68q-26 51 -27 55q-22 186 -25 195q-2 8 -34 36q-2 2 -3 2q-3 0 -3 -5v-2q8 -125 8 -181v-18l-6 -110q10 -10 10 -22q0 -5 -2 -10q-6 -16 -24 -21l-32 -12q-6 -1 -28 -25q-1 -2 -1 -5q0 -10 6 -30v0zM1396.16 804q36 14 44 14h141q10 0 10 6q0 4 -2 8
q-18 46 -22 56q-3 10 -7 68q-26 51 -27 55q-22 186 -25 195q-2 8 -34 36q-2 2 -3 2q-3 0 -3 -5v-2q8 -124 8 -182v-18l-6 -110q10 -10 10 -22q0 -5 -2 -10q-6 -16 -24 -21l-32 -12q-6 -1 -28 -25q-1 -2 -1 -5q0 -10 6 -30v0v0v-1zM1520 740q35 -14 44 -14h146q3 0 9 -8
q-26 -48 -35 -138q-16 0 -29 -89q-16 -176 -30 -176q-24 -24 -32 -24q5 168 5 200q0 40 -5 122q5 0 9 18v8q0 22 -58 38q-14 9 -32 29q0 18 8 34v0v0zM982 738h2q39 -12 50 -12h140q3 0 8 -8q-30 -66 -30 -130q-34 -40 -34 -116q-18 -154 -26 -154l-32 -31q-4 0 -4 4l8 202
q-6 78 -6 121q4 0 10 20q0 26 -68 46l-24 26q0 5 6 33v0v-1zM1262 726q32 -6 48 -6h106q1 0 7 -6q-10 -458 -21 -458q-10 -34 -32 -266q-16 -82 -20 -90h-2q-5 0 -17 16q-2 232 -2 355v220q0 56 -8 148q4 6 4 12v2q0 24 -48 34q-8 0 -17 38q2 0 2 2v0v0v1v-2zM84 726
q35 -6 50 -6h38q20 0 63 2q5 -10 6 -10q-2 -20 -2 -23q-7 -446 -17 -446q-24 -234 -52 -342q-7 0 -21 16q-2 72 -2 104v265q0 287 -7 353q4 7 4 19q0 16 -56 35l-8 32l4 2v-1zM620 726q33 -14 50 -14h140q3 0 6 -6l-24 -74q-4 -74 -18 -74q-14 -20 -28 -128q-12 -86 -27 -86
q-18 -22 -23 -22q0 4 -4 4q8 114 8 155q0 17 -6 117q6 0 10 20v3q0 24 -66 44q-24 24 -24 27v2q0 17 7 31v0zM468 710q9 0 96 -76v-8q-88 -76 -96 -76q-12 0 -98 78v6q88 76 98 76v0v0v1v-1z" />
    <glyph glyph-name="uni01C5" unicode="&#x1c5;" horiz-adv-x="1797" 
d="M853.163 1498q117 -106 126 -108q5 -2 11 -2q3 0 10 1t11 1q7 0 13 -2q10 -4 12 -12q2 -9 7 -13q2 -2 52 -42q43 -34 67 -56l23 -23q13 -11 17 -17q14 -14 15 -34q4 -6 14 -13q11 -7 15 -10q11 -10 11 -24q0 -8 -3 -16q-2 -5 -10 -17q-8 -10 -8 -14q0 -32 12 -40
q1 2 15 10q16 9 24 17q68 62 84 70q17 7 17 21v1q-1 16 -25 26q-20 8 -134 96q-116 88 -115 88q-1 1 -20 3q-20 1 -36 9q-8 4 -126 80q-108 69 -115 69h-1q-1 -1 -1 -3q0 -6 7 -18q11 -20 27 -34v0zM882.163 804q36 14 43 14h142q10 0 10 6q0 4 -2 8q-20 46 -22 56
q-3 10 -7 68q-26 51 -27 55q-22 186 -25 195q-2 8 -34 36q-2 2 -3 2q-3 0 -3 -5v-2q8 -125 8 -181v-18l-6 -110q10 -10 10 -22q0 -5 -2 -10q-6 -16 -24 -21l-32 -12q-6 -1 -28 -25q-1 -2 -1 -5q0 -10 6 -30v0zM1396.16 804q36 14 44 14h141q10 0 10 6q0 4 -2 8
q-18 46 -22 56q-3 10 -7 68q-26 51 -27 55q-22 186 -25 195q-2 8 -34 36q-2 2 -3 2q-3 0 -3 -5v-2q8 -124 8 -182v-18l-6 -110q10 -10 10 -22q0 -5 -2 -10q-6 -16 -24 -21l-32 -12q-6 -1 -28 -25q-1 -2 -1 -5q0 -10 6 -30v0v0v-1zM1520 740q35 -14 44 -14h146q3 0 9 -8
q-26 -48 -35 -138q-16 0 -29 -89q-16 -176 -30 -176q-24 -24 -32 -24q5 168 5 200q0 40 -5 122q5 0 9 18v8q0 22 -58 38q-14 9 -32 29q0 18 8 34v0v0zM982 738h2q39 -12 50 -12h140q3 0 8 -8q-30 -66 -30 -130q-34 -40 -34 -116q-18 -154 -26 -154l-32 -31q-4 0 -4 4l8 202
q-6 78 -6 121q4 0 10 20q0 26 -68 46l-24 26q0 5 6 33v0v-1zM1262 726q32 -6 48 -6h106q1 0 7 -6q-10 -458 -21 -458q-10 -34 -32 -266q-16 -82 -20 -90h-2q-5 0 -17 16q-2 232 -2 355v220q0 56 -8 148q4 6 4 12v2q0 24 -48 34q-8 0 -17 38q2 0 2 2v0v0v1v-2zM84 726
q35 -6 50 -6h38q20 0 63 2q5 -10 6 -10q-2 -20 -2 -23q-7 -446 -17 -446q-24 -234 -52 -342q-7 0 -21 16q-2 72 -2 104v265q0 287 -7 353q4 7 4 19q0 16 -56 35l-8 32l4 2v-1zM620 726q33 -14 50 -14h140q3 0 6 -6l-24 -74q-4 -74 -18 -74q-14 -20 -28 -128q-12 -86 -27 -86
q-18 -22 -23 -22q0 4 -4 4q8 114 8 155q0 17 -6 117q6 0 10 20v3q0 24 -66 44q-24 24 -24 27v2q0 17 7 31v0zM468 710q9 0 96 -76v-8q-88 -76 -96 -76q-12 0 -98 78v6q88 76 98 76v0v0v1v-1z" />
    <glyph glyph-name="uni01C6" unicode="&#x1c6;" horiz-adv-x="1797" 
d="M853.163 1498q117 -106 126 -108q5 -2 11 -2q3 0 10 1t11 1q7 0 13 -2q10 -4 12 -12q2 -9 7 -13q2 -2 52 -42q43 -34 67 -56l23 -23q13 -11 17 -17q14 -14 15 -34q4 -6 14 -13q11 -7 15 -10q11 -10 11 -24q0 -8 -3 -16q-2 -5 -10 -17q-8 -10 -8 -14q0 -32 12 -40
q1 2 15 10q16 9 24 17q68 62 84 70q17 7 17 21v1q-1 16 -25 26q-20 8 -134 96q-116 88 -115 88q-1 1 -20 3q-20 1 -36 9q-8 4 -126 80q-108 69 -115 69h-1q-1 -1 -1 -3q0 -6 7 -18q11 -20 27 -34v0zM882.163 804q36 14 43 14h142q10 0 10 6q0 4 -2 8q-20 46 -22 56
q-3 10 -7 68q-26 51 -27 55q-22 186 -25 195q-2 8 -34 36q-2 2 -3 2q-3 0 -3 -5v-2q8 -125 8 -181v-18l-6 -110q10 -10 10 -22q0 -5 -2 -10q-6 -16 -24 -21l-32 -12q-6 -1 -28 -25q-1 -2 -1 -5q0 -10 6 -30v0zM1396.16 804q36 14 44 14h141q10 0 10 6q0 4 -2 8
q-18 46 -22 56q-3 10 -7 68q-26 51 -27 55q-22 186 -25 195q-2 8 -34 36q-2 2 -3 2q-3 0 -3 -5v-2q8 -124 8 -182v-18l-6 -110q10 -10 10 -22q0 -5 -2 -10q-6 -16 -24 -21l-32 -12q-6 -1 -28 -25q-1 -2 -1 -5q0 -10 6 -30v0v0v-1zM1520 740q35 -14 44 -14h146q3 0 9 -8
q-26 -48 -35 -138q-16 0 -29 -89q-16 -176 -30 -176q-24 -24 -32 -24q5 168 5 200q0 40 -5 122q5 0 9 18v8q0 22 -58 38q-14 9 -32 29q0 18 8 34v0v0zM982 738h2q39 -12 50 -12h140q3 0 8 -8q-30 -66 -30 -130q-34 -40 -34 -116q-18 -154 -26 -154l-32 -31q-4 0 -4 4l8 202
q-6 78 -6 121q4 0 10 20q0 26 -68 46l-24 26q0 5 6 33v0v-1zM1262 726q32 -6 48 -6h106q1 0 7 -6q-10 -458 -21 -458q-10 -34 -32 -266q-16 -82 -20 -90h-2q-5 0 -17 16q-2 232 -2 355v220q0 56 -8 148q4 6 4 12v2q0 24 -48 34q-8 0 -17 38q2 0 2 2v0v0v1v-2zM84 726
q35 -6 50 -6h38q20 0 63 2q5 -10 6 -10q-2 -20 -2 -23q-7 -446 -17 -446q-24 -234 -52 -342q-7 0 -21 16q-2 72 -2 104v265q0 287 -7 353q4 7 4 19q0 16 -56 35l-8 32l4 2v-1zM620 726q33 -14 50 -14h140q3 0 6 -6l-24 -74q-4 -74 -18 -74q-14 -20 -28 -128q-12 -86 -27 -86
q-18 -22 -23 -22q0 4 -4 4q8 114 8 155q0 17 -6 117q6 0 10 20v3q0 24 -66 44q-24 24 -24 27v2q0 17 7 31v0zM468 710q9 0 96 -76v-8q-88 -76 -96 -76q-12 0 -98 78v6q88 76 98 76v0v0v1v-1z" />
    <glyph glyph-name="uni01C7" unicode="&#x1c7;" horiz-adv-x="1728" 
d="M1142 714h4q45 -42 63 -92q42 0 58 -38q76 -100 76 -118q0 -22 16 -30q42 -30 42 -58v-10q-58 22 -58 36q-42 62 -156 149q-22 10 -48 54q-8 4 -16 4h-26q-8 0 -50 -20q-8 0 -46 8v4q24 8 140 109v0zM1526 562q42 -32 42 -62q24 -218 36 -218q16 -11 16 -61q3 -26 27 -90
q-7 -6 -15 -6h-136q-9 0 -49 -12q-6 26 -6 34q18 26 78 46q12 12 12 20v10q0 10 -10 18l2 8q2 66 6 106l-8 206l4 2zM1070 402q35 -14 44 -14h146q3 0 6 -6v-4q-24 -54 -31 -135q-29 -30 -29 -88q-20 -160 -26 -172q-28 -28 -36 -33q0 4 -4 4q6 87 8 197q0 28 -6 124
q10 6 10 22v2q0 24 -66 44q-24 20 -24 30q0 14 7 32v0v0v1zM586 736q10 0 112 -92q32 -16 32 -30v-4q0 -16 -60 -46l-222 -170q-49 0 -101 -40q-186 -122 -200 -122h-1v2q0 30 120 128q38 37 50 37h7q10 0 23 -2q26 4 26 24q94 70 174 151q6 5 10 29q40 24 40 44
q0 16 -22 48v2q6 40 14 40v0zM698 454q9 0 111 -90q28 -16 31 -32q-1 -18 -65 -53l-218 -166q-52 0 -120 -53q-132 -83 -181 -111l-2 4q0 32 112 124q45 42 59 42q28 -2 31 -2q16 0 26 28q72 50 172 146q7 34 27 44q20 9 20 31q0 16 -22 46q4 40 16 40v0zM178 182
q10 0 98 -78q0 -12 -47 -46q-41 -37 -51 -37q-12 0 -96 77l-2 4q6 11 92 77q2 0 6 2v0v0v1v0z" />
    <glyph glyph-name="uni01C8" unicode="&#x1c8;" horiz-adv-x="1728" 
d="M1142 714h4q45 -42 63 -92q42 0 58 -38q76 -100 76 -118q0 -22 16 -30q42 -30 42 -58v-10q-58 22 -58 36q-42 62 -156 149q-22 10 -48 54q-8 4 -16 4h-26q-8 0 -50 -20q-8 0 -46 8v4q24 8 140 109v0zM1526 562q42 -32 42 -62q24 -218 36 -218q16 -11 16 -61q3 -26 27 -90
q-7 -6 -15 -6h-136q-9 0 -49 -12q-6 26 -6 34q18 26 78 46q12 12 12 20v10q0 10 -10 18l2 8q2 66 6 106l-8 206l4 2zM1070 402q35 -14 44 -14h146q3 0 6 -6v-4q-24 -54 -31 -135q-29 -30 -29 -88q-20 -160 -26 -172q-28 -28 -36 -33q0 4 -4 4q6 87 8 197q0 28 -6 124
q10 6 10 22v2q0 24 -66 44q-24 20 -24 30q0 14 7 32v0v0v1zM586 736q10 0 112 -92q32 -16 32 -30v-4q0 -16 -60 -46l-222 -170q-49 0 -101 -40q-186 -122 -200 -122h-1v2q0 30 120 128q38 37 50 37h7q10 0 23 -2q26 4 26 24q94 70 174 151q6 5 10 29q40 24 40 44
q0 16 -22 48v2q6 40 14 40v0zM698 454q9 0 111 -90q28 -16 31 -32q-1 -18 -65 -53l-218 -166q-52 0 -120 -53q-132 -83 -181 -111l-2 4q0 32 112 124q45 42 59 42q28 -2 31 -2q16 0 26 28q72 50 172 146q7 34 27 44q20 9 20 31q0 16 -22 46q4 40 16 40v0zM178 182
q10 0 98 -78q0 -12 -47 -46q-41 -37 -51 -37q-12 0 -96 77l-2 4q6 11 92 77q2 0 6 2v0v0v1v0z" />
    <glyph glyph-name="uni01C9" unicode="&#x1c9;" horiz-adv-x="1728" 
d="M1142 714h4q45 -42 63 -92q42 0 58 -38q76 -100 76 -118q0 -22 16 -30q42 -30 42 -58v-10q-58 22 -58 36q-42 62 -156 149q-22 10 -48 54q-8 4 -16 4h-26q-8 0 -50 -20q-8 0 -46 8v4q24 8 140 109v0zM1526 562q42 -32 42 -62q24 -218 36 -218q16 -11 16 -61q3 -26 27 -90
q-7 -6 -15 -6h-136q-9 0 -49 -12q-6 26 -6 34q18 26 78 46q12 12 12 20v10q0 10 -10 18l2 8q2 66 6 106l-8 206l4 2zM1070 402q35 -14 44 -14h146q3 0 6 -6v-4q-24 -54 -31 -135q-29 -30 -29 -88q-20 -160 -26 -172q-28 -28 -36 -33q0 4 -4 4q6 87 8 197q0 28 -6 124
q10 6 10 22v2q0 24 -66 44q-24 20 -24 30q0 14 7 32v0v0v1zM586 736q10 0 112 -92q32 -16 32 -30v-4q0 -16 -60 -46l-222 -170q-49 0 -101 -40q-186 -122 -200 -122h-1v2q0 30 120 128q38 37 50 37h7q10 0 23 -2q26 4 26 24q94 70 174 151q6 5 10 29q40 24 40 44
q0 16 -22 48v2q6 40 14 40v0zM698 454q9 0 111 -90q28 -16 31 -32q-1 -18 -65 -53l-218 -166q-52 0 -120 -53q-132 -83 -181 -111l-2 4q0 32 112 124q45 42 59 42q28 -2 31 -2q16 0 26 28q72 50 172 146q7 34 27 44q20 9 20 31q0 16 -22 46q4 40 16 40v0zM178 182
q10 0 98 -78q0 -12 -47 -46q-41 -37 -51 -37q-12 0 -96 77l-2 4q6 11 92 77q2 0 6 2v0v0v1v0z" />
    <glyph glyph-name="uni01CA" unicode="&#x1ca;" horiz-adv-x="1690" 
d="M1104 714h4q45 -42 63 -92q42 0 58 -38q76 -100 76 -118q0 -22 16 -30q42 -30 42 -58v-10q-58 22 -58 36q-42 62 -156 149q-22 10 -48 54q-8 4 -16 4h-26q-8 0 -50 -20q-8 0 -46 8v4q24 8 140 109v0zM1488 562q42 -32 42 -62q24 -218 36 -218q16 -11 16 -61q3 -26 27 -90
q-7 -6 -15 -6h-136q-9 0 -49 -12q-6 26 -6 34q18 26 78 46q12 12 12 20v10q0 10 -10 18l2 8q2 66 6 106l-8 206l4 2zM1032 402q35 -14 44 -14h146q3 0 6 -6v-4q-24 -54 -31 -135q-29 -30 -29 -88q-20 -160 -26 -172q-28 -28 -36 -33q0 4 -4 4q6 87 8 197q0 28 -6 124
q10 6 10 22v2q0 24 -66 44q-24 20 -24 30q0 14 7 32v0v0v1zM462 723h6q76 -60 92 -76v-6q-76 -68 -96 -78q-10 0 -98 76v8q86 76 96 76v0v0zM792 360q8 -2 12 -8l-2 -14v-134q0 -4 -4 -4q-20 0 -42 27q-36 8 -36 19q-14 10 -21 10h-5q-8 0 -16 -6q-44 6 -92 6h-282
q-72 0 -202 -2q-14 0 -22 22q68 22 452 48q60 18 189 30q11 0 71 6v0v0zM794 135q8 -3 8 -6v-150l-2 -3q-22 0 -48 30q-24 0 -38 22q-3 0 -8 4h-14l-14 -4q-16 0 -82 6q-184 -2 -292 -2h-202q-14 0 -22 20q0 6 122 22q396 29 396 44q114 12 196 18v0v0v1v-2z" />
    <glyph glyph-name="uni01CB" unicode="&#x1cb;" horiz-adv-x="1690" 
d="M1104 714h4q45 -42 63 -92q42 0 58 -38q76 -100 76 -118q0 -22 16 -30q42 -30 42 -58v-10q-58 22 -58 36q-42 62 -156 149q-22 10 -48 54q-8 4 -16 4h-26q-8 0 -50 -20q-8 0 -46 8v4q24 8 140 109v0zM1488 562q42 -32 42 -62q24 -218 36 -218q16 -11 16 -61q3 -26 27 -90
q-7 -6 -15 -6h-136q-9 0 -49 -12q-6 26 -6 34q18 26 78 46q12 12 12 20v10q0 10 -10 18l2 8q2 66 6 106l-8 206l4 2zM1032 402q35 -14 44 -14h146q3 0 6 -6v-4q-24 -54 -31 -135q-29 -30 -29 -88q-20 -160 -26 -172q-28 -28 -36 -33q0 4 -4 4q6 87 8 197q0 28 -6 124
q10 6 10 22v2q0 24 -66 44q-24 20 -24 30q0 14 7 32v0v0v1zM462 723h6q76 -60 92 -76v-6q-76 -68 -96 -78q-10 0 -98 76v8q86 76 96 76v0v0zM792 360q8 -2 12 -8l-2 -14v-134q0 -4 -4 -4q-20 0 -42 27q-36 8 -36 19q-14 10 -21 10h-5q-8 0 -16 -6q-44 6 -92 6h-282
q-72 0 -202 -2q-14 0 -22 22q68 22 452 48q60 18 189 30q11 0 71 6v0v0zM794 135q8 -3 8 -6v-150l-2 -3q-22 0 -48 30q-24 0 -38 22q-3 0 -8 4h-14l-14 -4q-16 0 -82 6q-184 -2 -292 -2h-202q-14 0 -22 20q0 6 122 22q396 29 396 44q114 12 196 18v0v0v1v-2z" />
    <glyph glyph-name="uni01CC" unicode="&#x1cc;" horiz-adv-x="1690" 
d="M1104 714h4q45 -42 63 -92q42 0 58 -38q76 -100 76 -118q0 -22 16 -30q42 -30 42 -58v-10q-58 22 -58 36q-42 62 -156 149q-22 10 -48 54q-8 4 -16 4h-26q-8 0 -50 -20q-8 0 -46 8v4q24 8 140 109v0zM1488 562q42 -32 42 -62q24 -218 36 -218q16 -11 16 -61q3 -26 27 -90
q-7 -6 -15 -6h-136q-9 0 -49 -12q-6 26 -6 34q18 26 78 46q12 12 12 20v10q0 10 -10 18l2 8q2 66 6 106l-8 206l4 2zM1032 402q35 -14 44 -14h146q3 0 6 -6v-4q-24 -54 -31 -135q-29 -30 -29 -88q-20 -160 -26 -172q-28 -28 -36 -33q0 4 -4 4q6 87 8 197q0 28 -6 124
q10 6 10 22v2q0 24 -66 44q-24 20 -24 30q0 14 7 32v0v0v1zM462 723h6q76 -60 92 -76v-6q-76 -68 -96 -78q-10 0 -98 76v8q86 76 96 76v0v0zM792 360q8 -2 12 -8l-2 -14v-134q0 -4 -4 -4q-20 0 -42 27q-36 8 -36 19q-14 10 -21 10h-5q-8 0 -16 -6q-44 6 -92 6h-282
q-72 0 -202 -2q-14 0 -22 22q68 22 452 48q60 18 189 30q11 0 71 6v0v0zM794 135q8 -3 8 -6v-150l-2 -3q-22 0 -48 30q-24 0 -38 22q-3 0 -8 4h-14l-14 -4q-16 0 -82 6q-184 -2 -292 -2h-202q-14 0 -22 20q0 6 122 22q396 29 396 44q114 12 196 18v0v0v1v-2z" />
    <glyph glyph-name="uni01CD" unicode="&#x1cd;" horiz-adv-x="911" 
d="M-44.3301 1480q117 -106 126 -108q5 -2 11 -2q3 0 10 1t11 1q7 0 13 -2q10 -4 12 -12q2 -9 7 -13q2 -2 52 -42q43 -34 67 -56l23 -23q13 -11 17 -17q14 -14 15 -34q4 -6 14 -13q11 -7 15 -10q11 -10 11 -24q0 -8 -3 -16q-2 -5 -10 -17q-8 -10 -8 -14q0 -32 12 -40
q1 2 15 10q16 9 24 17q68 62 84 70q17 7 17 21v1q-1 16 -25 26q-20 8 -134 96q-116 88 -115 88q-1 1 -20 3q-20 1 -36 9q-8 4 -126 80q-108 69 -115 69h-1q-1 -1 -1 -3q0 -6 7 -18q11 -20 27 -34v0zM-15.3301 786q36 14 43 14h142q10 0 10 6q0 4 -2 8q-20 46 -22 56
q-3 10 -7 68q-26 51 -27 55q-22 186 -25 195q-2 8 -34 36q-2 2 -3 2q-3 0 -3 -5v-2q8 -125 8 -181v-18l-6 -110q10 -10 10 -22q0 -5 -2 -10q-6 -16 -24 -21l-32 -12q-6 -1 -28 -25q-1 -2 -1 -5q0 -10 6 -30v0zM498.67 786q36 14 44 14h141q10 0 10 6q0 4 -2 8q-18 46 -22 56
q-3 10 -7 68q-26 51 -27 55q-22 186 -25 195q-2 8 -34 36q-2 2 -3 2q-3 0 -3 -5v-2q8 -124 8 -182v-18l-6 -110q10 -10 10 -22q0 -5 -2 -10q-6 -16 -24 -21l-32 -12q-6 -1 -28 -25q-1 -2 -1 -5q0 -10 6 -30v0v0v-1zM624 720q34 -12 40 -12h154q10 0 13 -7q-58 -138 -65 -143
q-22 0 -36 -94l-4 -2q-34 7 -34 33v38q0 22 -2 58l14 38q0 20 -64 30q-26 26 -26 30q6 30 10 30v0v1zM292 608q7 0 96 -76v-8q-88 -76 -98 -76t-97 76v8q87 76 99 76v0v0zM520 454h2q23 -8 112 -91q30 -12 30 -28q2 0 2 -2q-1 -18 -65 -53l-218 -166q-51 0 -120 -53
q-122 -78 -180 -110l-2 4q0 34 124 134q32 32 48 32q24 -2 27 -2q20 0 27 24q87 66 175 149q7 34 29 46q18 8 18 28v2q0 16 -22 46q5 40 14 40v0v0v1z" />
    <glyph glyph-name="uni01CE" unicode="&#x1ce;" horiz-adv-x="911" 
d="M-44.3301 1480q117 -106 126 -108q5 -2 11 -2q3 0 10 1t11 1q7 0 13 -2q10 -4 12 -12q2 -9 7 -13q2 -2 52 -42q43 -34 67 -56l23 -23q13 -11 17 -17q14 -14 15 -34q4 -6 14 -13q11 -7 15 -10q11 -10 11 -24q0 -8 -3 -16q-2 -5 -10 -17q-8 -10 -8 -14q0 -32 12 -40
q1 2 15 10q16 9 24 17q68 62 84 70q17 7 17 21v1q-1 16 -25 26q-20 8 -134 96q-116 88 -115 88q-1 1 -20 3q-20 1 -36 9q-8 4 -126 80q-108 69 -115 69h-1q-1 -1 -1 -3q0 -6 7 -18q11 -20 27 -34v0zM-15.3301 786q36 14 43 14h142q10 0 10 6q0 4 -2 8q-20 46 -22 56
q-3 10 -7 68q-26 51 -27 55q-22 186 -25 195q-2 8 -34 36q-2 2 -3 2q-3 0 -3 -5v-2q8 -125 8 -181v-18l-6 -110q10 -10 10 -22q0 -5 -2 -10q-6 -16 -24 -21l-32 -12q-6 -1 -28 -25q-1 -2 -1 -5q0 -10 6 -30v0zM498.67 786q36 14 44 14h141q10 0 10 6q0 4 -2 8q-18 46 -22 56
q-3 10 -7 68q-26 51 -27 55q-22 186 -25 195q-2 8 -34 36q-2 2 -3 2q-3 0 -3 -5v-2q8 -124 8 -182v-18l-6 -110q10 -10 10 -22q0 -5 -2 -10q-6 -16 -24 -21l-32 -12q-6 -1 -28 -25q-1 -2 -1 -5q0 -10 6 -30v0v0v-1zM624 720q34 -12 40 -12h154q10 0 13 -7q-58 -138 -65 -143
q-22 0 -36 -94l-4 -2q-34 7 -34 33v38q0 22 -2 58l14 38q0 20 -64 30q-26 26 -26 30q6 30 10 30v0v1zM292 608q7 0 96 -76v-8q-88 -76 -98 -76t-97 76v8q87 76 99 76v0v0zM520 454h2q23 -8 112 -91q30 -12 30 -28q2 0 2 -2q-1 -18 -65 -53l-218 -166q-51 0 -120 -53
q-122 -78 -180 -110l-2 4q0 34 124 134q32 32 48 32q24 -2 27 -2q20 0 27 24q87 66 175 149q7 34 29 46q18 8 18 28v2q0 16 -22 46q5 40 14 40v0v0v1z" />
    <glyph glyph-name="uni01CF" unicode="&#x1cf;" horiz-adv-x="924" 
d="M-358.337 1484q117 -106 126 -108q5 -2 11 -2q3 0 10 1t11 1q7 0 13 -2q10 -4 12 -12q2 -9 7 -13q2 -2 52 -42q43 -34 67 -56l23 -23q13 -11 17 -17q14 -14 15 -34q4 -6 14 -13q11 -7 15 -10q11 -10 11 -24q0 -8 -3 -16q-2 -5 -10 -17q-8 -10 -8 -14q0 -32 12 -40
q1 2 15 10q16 9 24 17q68 62 84 70q17 7 17 21v1q-1 16 -25 26q-20 8 -134 96q-116 88 -115 88q-1 1 -20 3q-20 1 -36 9q-8 4 -126 80q-108 69 -115 69h-1q-1 -1 -1 -3q0 -6 7 -18q11 -20 27 -34v0zM-329.337 790q36 14 43 14h142q10 0 10 6q0 4 -2 8q-20 46 -22 56
q-3 10 -7 68q-26 51 -27 55q-22 186 -25 195q-2 8 -34 36q-2 2 -3 2q-3 0 -3 -5v-2q8 -125 8 -181v-18l-6 -110q10 -10 10 -22q0 -5 -2 -10q-6 -16 -24 -21l-32 -12q-6 -1 -28 -25q-1 -2 -1 -5q0 -10 6 -30v0zM184.663 790q36 14 44 14h141q10 0 10 6q0 4 -2 8
q-18 46 -22 56q-3 10 -7 68q-26 51 -27 55q-22 186 -25 195q-2 8 -34 36q-2 2 -3 2q-3 0 -3 -5v-2q8 -124 8 -182v-18l-6 -110q10 -10 10 -22q0 -5 -2 -10q-6 -16 -24 -21l-32 -12q-6 -1 -28 -25q-1 -2 -1 -5q0 -10 6 -30v0v0v-1zM308 726q35 -6 49 -6h39q20 0 63 2
q4 -10 6 -10q0 -4 -2 -22q-5 -442 -21 -442q-27 -250 -39 -298q-5 -46 -9 -50q-22 0 -22 54v256q0 366 -8 430q4 6 4 12q0 22 -55 40l-8 32l4 2h-1zM638 718q32 -12 40 -12h150q16 0 17 -5q0 -12 -64 -144q-25 0 -39 -96h-3q-33 9 -33 25q-2 49 -2 77v28q0 13 12 31v4
q0 24 -56 32q-7 0 -32 28v4q2 30 10 30v0v-2zM82 538q2 0 2 -2q43 -2 63 -2h126q11 0 14 -7v-22q0 -18 -19 -22q-18 -22 -60 -96q-32 -8 -46 -8l-2 4v46q0 12 12 32q0 24 -68 32q-16 0 -24 44q2 0 2 2v0v0v1v-2z" />
    <glyph glyph-name="uni01D0" unicode="&#x1d0;" horiz-adv-x="1024" 
d="M-1206.14 1480q117 -106 126 -108q5 -2 11 -2q3 0 10 1t11 1q7 0 13 -2q10 -4 12 -12q2 -9 7 -13q2 -2 52 -42q43 -34 67 -56l23 -23q13 -11 17 -17q14 -14 15 -34q4 -6 14 -13q11 -7 15 -10q11 -10 11 -24q0 -8 -3 -16q-2 -5 -10 -17q-8 -10 -8 -14q0 -32 12 -40
q1 2 15 10q16 9 24 17q68 62 84 70q17 7 17 21v1q-1 16 -25 26q-20 8 -134 96q-116 88 -115 88q-1 1 -20 3q-20 1 -36 9q-8 4 -126 80q-108 69 -115 69h-1q-1 -1 -1 -3q0 -6 7 -18q11 -20 27 -34v0zM-1177.14 786q36 14 43 14h142q10 0 10 6q0 4 -2 8q-20 46 -22 56
q-3 10 -7 68q-26 51 -27 55q-22 186 -25 195q-2 8 -34 36q-2 2 -3 2q-3 0 -3 -5v-2q8 -125 8 -181v-18l-6 -110q10 -10 10 -22q0 -5 -2 -10q-6 -16 -24 -21l-32 -12q-6 -1 -28 -25q-1 -2 -1 -5q0 -10 6 -30v0zM-663.14 786q36 14 44 14h141q10 0 10 6q0 4 -2 8
q-18 46 -22 56q-3 10 -7 68q-26 51 -27 55q-22 186 -25 195q-2 8 -34 36q-2 2 -3 2q-3 0 -3 -5v-2q8 -124 8 -182v-18l-6 -110q10 -10 10 -22q0 -5 -2 -10q-6 -16 -24 -21l-32 -12q-6 -1 -28 -25q-1 -2 -1 -5q0 -10 6 -30v0v0v-1z" />
    <glyph glyph-name="uni01D1" unicode="&#x1d1;" horiz-adv-x="911" 
d="M-43.8369 1480q117 -106 126 -108q5 -2 11 -2q3 0 10 1t11 1q7 0 13 -2q10 -4 12 -12q2 -9 7 -13q2 -2 52 -42q43 -34 67 -56l23 -23q13 -11 17 -17q14 -14 15 -34q4 -6 14 -13q11 -7 15 -10q11 -10 11 -24q0 -8 -3 -16q-2 -5 -10 -17q-8 -10 -8 -14q0 -32 12 -40
q1 2 15 10q16 9 24 17q68 62 84 70q17 7 17 21v1q-1 16 -25 26q-20 8 -134 96q-116 88 -115 88q-1 1 -20 3q-20 1 -36 9q-8 4 -126 80q-108 69 -115 69h-1q-1 -1 -1 -3q0 -6 7 -18q11 -20 27 -34v0zM-14.8369 786q36 14 43 14h142q10 0 10 6q0 4 -2 8q-20 46 -22 56
q-3 10 -7 68q-26 51 -27 55q-22 186 -25 195q-2 8 -34 36q-2 2 -3 2q-3 0 -3 -5v-2q8 -125 8 -181v-18l-6 -110q10 -10 10 -22q0 -5 -2 -10q-6 -16 -24 -21l-32 -12q-6 -1 -28 -25q-1 -2 -1 -5q0 -10 6 -30v0zM499.163 786q36 14 44 14h141q10 0 10 6q0 4 -2 8
q-18 46 -22 56q-3 10 -7 68q-26 51 -27 55q-22 186 -25 195q-2 8 -34 36q-2 2 -3 2q-3 0 -3 -5v-2q8 -124 8 -182v-18l-6 -110q10 -10 10 -22q0 -5 -2 -10q-6 -16 -24 -21l-32 -12q-6 -1 -28 -25q-1 -2 -1 -5q0 -10 6 -30v0v0v-1zM624 720q34 -12 46 -12h148q10 0 13 -7
q-58 -136 -66 -142q-22 0 -36 -94l-4 -2q-32 6 -32 32q-2 26 -4 96q4 16 14 38q0 24 -56 31q-8 0 -34 30q5 32 10 32v0zM328 710q48 -4 80 -4h121q7 -2 7 -14v-12q0 -18 -26 -30q-28 -44 -55 -90q-7 -4 -46 -10l-2 4v32l-2 12q6 26 12 32v10q0 16 -62 24q-24 7 -24 31
q-4 0 -5 13v2h2zM522 454q10 0 112 -90q32 -16 32 -34q-2 -15 -62 -48l-222 -168q-51 0 -120 -53q-122 -78 -180 -110l-2 4q0 32 112 124q45 42 59 42q5 0 29 -2q20 0 27 24q90 68 170 144q6 8 15 36q37 20 37 44q0 18 -20 42v6q0 38 14 38v0v0v1h-1z" />
    <glyph glyph-name="uni01D2" unicode="&#x1d2;" horiz-adv-x="911" 
d="M-43.8369 1480q117 -106 126 -108q5 -2 11 -2q3 0 10 1t11 1q7 0 13 -2q10 -4 12 -12q2 -9 7 -13q2 -2 52 -42q43 -34 67 -56l23 -23q13 -11 17 -17q14 -14 15 -34q4 -6 14 -13q11 -7 15 -10q11 -10 11 -24q0 -8 -3 -16q-2 -5 -10 -17q-8 -10 -8 -14q0 -32 12 -40
q1 2 15 10q16 9 24 17q68 62 84 70q17 7 17 21v1q-1 16 -25 26q-20 8 -134 96q-116 88 -115 88q-1 1 -20 3q-20 1 -36 9q-8 4 -126 80q-108 69 -115 69h-1q-1 -1 -1 -3q0 -6 7 -18q11 -20 27 -34v0zM-14.8369 786q36 14 43 14h142q10 0 10 6q0 4 -2 8q-20 46 -22 56
q-3 10 -7 68q-26 51 -27 55q-22 186 -25 195q-2 8 -34 36q-2 2 -3 2q-3 0 -3 -5v-2q8 -125 8 -181v-18l-6 -110q10 -10 10 -22q0 -5 -2 -10q-6 -16 -24 -21l-32 -12q-6 -1 -28 -25q-1 -2 -1 -5q0 -10 6 -30v0zM499.163 786q36 14 44 14h141q10 0 10 6q0 4 -2 8
q-18 46 -22 56q-3 10 -7 68q-26 51 -27 55q-22 186 -25 195q-2 8 -34 36q-2 2 -3 2q-3 0 -3 -5v-2q8 -124 8 -182v-18l-6 -110q10 -10 10 -22q0 -5 -2 -10q-6 -16 -24 -21l-32 -12q-6 -1 -28 -25q-1 -2 -1 -5q0 -10 6 -30v0v0v-1zM624 720q34 -12 46 -12h148q10 0 13 -7
q-58 -136 -66 -142q-22 0 -36 -94l-4 -2q-32 6 -32 32q-2 26 -4 96q4 16 14 38q0 24 -56 31q-8 0 -34 30q5 32 10 32v0zM328 710q48 -4 80 -4h121q7 -2 7 -14v-12q0 -18 -26 -30q-28 -44 -55 -90q-7 -4 -46 -10l-2 4v32l-2 12q6 26 12 32v10q0 16 -62 24q-24 7 -24 31
q-4 0 -5 13v2h2zM522 454q10 0 112 -90q32 -16 32 -34q-2 -15 -62 -48l-222 -168q-51 0 -120 -53q-122 -78 -180 -110l-2 4q0 32 112 124q45 42 59 42q5 0 29 -2q20 0 27 24q90 68 170 144q6 8 15 36q37 20 37 44q0 18 -20 42v6q0 38 14 38v0v0v1h-1z" />
    <glyph glyph-name="uni01D3" unicode="&#x1d3;" horiz-adv-x="850" 
d="M-276.837 1498q117 -106 126 -108q5 -2 11 -2q3 0 10 1t11 1q7 0 13 -2q10 -4 12 -12q2 -9 7 -13q2 -2 52 -42q43 -34 67 -56l23 -23q13 -11 17 -17q14 -14 15 -34q4 -6 14 -13q11 -7 15 -10q11 -10 11 -24q0 -8 -3 -16q-2 -5 -10 -17q-8 -10 -8 -14q0 -32 12 -40
q1 2 15 10q16 9 24 17q68 62 84 70q17 7 17 21v1q-1 16 -25 26q-20 8 -134 96q-116 88 -115 88q-1 1 -20 3q-20 1 -36 9q-8 4 -126 80q-108 69 -115 69h-1q-1 -1 -1 -3q0 -6 7 -18q11 -20 27 -34v0zM-247.837 804q36 14 43 14h142q10 0 10 6q0 4 -2 8q-20 46 -22 56
q-3 10 -7 68q-26 51 -27 55q-22 186 -25 195q-2 8 -34 36q-2 2 -3 2q-3 0 -3 -5v-2q8 -125 8 -181v-18l-6 -110q10 -10 10 -22q0 -5 -2 -10q-6 -16 -24 -21l-32 -12q-6 -1 -28 -25q-1 -2 -1 -5q0 -10 6 -30v0zM266.163 804q36 14 44 14h141q10 0 10 6q0 4 -2 8
q-18 46 -22 56q-3 10 -7 68q-26 51 -27 55q-22 186 -25 195q-2 8 -34 36q-2 2 -3 2q-3 0 -3 -5v-2q8 -124 8 -182v-18l-6 -110q10 -10 10 -22q0 -5 -2 -10q-6 -16 -24 -21l-32 -12q-6 -1 -28 -25q-1 -2 -1 -5q0 -10 6 -30v0v0v-1zM390 740q34 -14 44 -14h146q3 0 6 -6v-4
q-30 -71 -30 -133q-32 -32 -32 -106q-20 -158 -28 -158q-18 -22 -33 -34q0 4 -4 4q6 87 8 199q0 26 -6 122q10 6 10 22v2q0 24 -66 44q-24 22 -24 25v2q0 18 8 34v0zM610 726q30 -6 46 -6h104q2 0 8 -8q0 -4 -2 -22q-7 -436 -17 -436q-24 -230 -52 -355h-2q-18 0 -20 35v234
q0 410 -8 470q4 8 4 14q0 22 -56 38q0 3 -7 34q2 0 2 2v0v0zM164 704q40 -37 40 -55q24 -224 35 -224q14 -16 14 -32q1 -49 29 -119v-2q0 -3 -6 -7h-146q-10 0 -44 -14q-5 0 -8 32v4q15 27 75 45q14 14 14 24v4q0 6 -10 22l6 118q0 42 -8 201l6 4v0v1z" />
    <glyph glyph-name="uni01D4" unicode="&#x1d4;" horiz-adv-x="850" 
d="M-276.837 1498q117 -106 126 -108q5 -2 11 -2q3 0 10 1t11 1q7 0 13 -2q10 -4 12 -12q2 -9 7 -13q2 -2 52 -42q43 -34 67 -56l23 -23q13 -11 17 -17q14 -14 15 -34q4 -6 14 -13q11 -7 15 -10q11 -10 11 -24q0 -8 -3 -16q-2 -5 -10 -17q-8 -10 -8 -14q0 -32 12 -40
q1 2 15 10q16 9 24 17q68 62 84 70q17 7 17 21v1q-1 16 -25 26q-20 8 -134 96q-116 88 -115 88q-1 1 -20 3q-20 1 -36 9q-8 4 -126 80q-108 69 -115 69h-1q-1 -1 -1 -3q0 -6 7 -18q11 -20 27 -34v0zM-247.837 804q36 14 43 14h142q10 0 10 6q0 4 -2 8q-20 46 -22 56
q-3 10 -7 68q-26 51 -27 55q-22 186 -25 195q-2 8 -34 36q-2 2 -3 2q-3 0 -3 -5v-2q8 -125 8 -181v-18l-6 -110q10 -10 10 -22q0 -5 -2 -10q-6 -16 -24 -21l-32 -12q-6 -1 -28 -25q-1 -2 -1 -5q0 -10 6 -30v0zM266.163 804q36 14 44 14h141q10 0 10 6q0 4 -2 8
q-18 46 -22 56q-3 10 -7 68q-26 51 -27 55q-22 186 -25 195q-2 8 -34 36q-2 2 -3 2q-3 0 -3 -5v-2q8 -124 8 -182v-18l-6 -110q10 -10 10 -22q0 -5 -2 -10q-6 -16 -24 -21l-32 -12q-6 -1 -28 -25q-1 -2 -1 -5q0 -10 6 -30v0v0v-1zM390 740q34 -14 44 -14h146q3 0 6 -6v-4
q-30 -71 -30 -133q-32 -32 -32 -106q-20 -158 -28 -158q-18 -22 -33 -34q0 4 -4 4q6 87 8 199q0 26 -6 122q10 6 10 22v2q0 24 -66 44q-24 22 -24 25v2q0 18 8 34v0zM610 726q30 -6 46 -6h104q2 0 8 -8q0 -4 -2 -22q-7 -436 -17 -436q-24 -230 -52 -355h-2q-18 0 -20 35v234
q0 410 -8 470q4 8 4 14q0 22 -56 38q0 3 -7 34q2 0 2 2v0v0zM164 704q40 -37 40 -55q24 -224 35 -224q14 -16 14 -32q1 -49 29 -119v-2q0 -3 -6 -7h-146q-10 0 -44 -14q-5 0 -8 32v4q15 27 75 45q14 14 14 24v4q0 6 -10 22l6 118q0 42 -8 201l6 4v0v1z" />
    <glyph glyph-name="Gcaron" unicode="&#x1e6;" horiz-adv-x="920" 
d="M-278.337 1486q117 -106 126 -108q5 -2 11 -2q3 0 10 1t11 1q7 0 13 -2q10 -4 12 -12q2 -9 7 -13q2 -2 52 -42q43 -34 67 -56l23 -23q13 -11 17 -17q14 -14 15 -34q4 -6 14 -13q11 -7 15 -10q11 -10 11 -24q0 -8 -3 -16q-2 -5 -10 -17q-8 -10 -8 -14q0 -32 12 -40
q1 2 15 10q16 9 24 17q68 62 84 70q17 7 17 21v1q-1 16 -25 26q-20 8 -134 96q-116 88 -115 88q-1 1 -20 3q-20 1 -36 9q-8 4 -126 80q-108 69 -115 69h-1q-1 -1 -1 -3q0 -6 7 -18q11 -20 27 -34v0zM-249.337 792q36 14 43 14h142q10 0 10 6q0 4 -2 8q-20 46 -22 56
q-3 10 -7 68q-26 51 -27 55q-22 186 -25 195q-2 8 -34 36q-2 2 -3 2q-3 0 -3 -5v-2q8 -125 8 -181v-18l-6 -110q10 -10 10 -22q0 -5 -2 -10q-6 -16 -24 -21l-32 -12q-6 -1 -28 -25q-1 -2 -1 -5q0 -10 6 -30v0zM264.663 792q36 14 44 14h141q10 0 10 6q0 4 -2 8
q-18 46 -22 56q-3 10 -7 68q-26 51 -27 55q-22 186 -25 195q-2 8 -34 36q-2 2 -3 2q-3 0 -3 -5v-2q8 -124 8 -182v-18l-6 -110q10 -10 10 -22q0 -5 -2 -10q-6 -16 -24 -21l-32 -12q-6 -1 -28 -25q-1 -2 -1 -5q0 -10 6 -30v0v0v-1zM390 728q30 -14 48 -14h139q8 -4 8 -9
q-32 -68 -32 -132q-28 -33 -28 -73q-24 -145 -32 -145l-32 -31q-4 0 -4 4q6 130 8 157l-8 116q6 0 10 18v7q0 24 -62 40q-28 24 -28 30q0 20 10 32v0h3zM696 454q24 -9 74 -57q35 -32 63 -50q6 -8 6 -16q0 -15 -59 -46l-224 -170q-49 0 -113 -48q-138 -89 -188 -115l-2 4v2
q2 32 124 132q34 32 48 32q24 -2 27 -2q20 0 30 26q89 68 174 150q5 30 19 38q26 13 26 31v7q0 16 -20 40v8q3 36 15 36v0v-2zM178 160q8 0 97 -78q0 -12 -47 -46q-41 -36 -51 -36q-9 0 -92 70q-5 0 -6 10q22 26 94 78l4 2v0v1z" />
    <glyph glyph-name="gcaron" unicode="&#x1e7;" horiz-adv-x="920" 
d="M-278.337 1486q117 -106 126 -108q5 -2 11 -2q3 0 10 1t11 1q7 0 13 -2q10 -4 12 -12q2 -9 7 -13q2 -2 52 -42q43 -34 67 -56l23 -23q13 -11 17 -17q14 -14 15 -34q4 -6 14 -13q11 -7 15 -10q11 -10 11 -24q0 -8 -3 -16q-2 -5 -10 -17q-8 -10 -8 -14q0 -32 12 -40
q1 2 15 10q16 9 24 17q68 62 84 70q17 7 17 21v1q-1 16 -25 26q-20 8 -134 96q-116 88 -115 88q-1 1 -20 3q-20 1 -36 9q-8 4 -126 80q-108 69 -115 69h-1q-1 -1 -1 -3q0 -6 7 -18q11 -20 27 -34v0zM-249.337 792q36 14 43 14h142q10 0 10 6q0 4 -2 8q-20 46 -22 56
q-3 10 -7 68q-26 51 -27 55q-22 186 -25 195q-2 8 -34 36q-2 2 -3 2q-3 0 -3 -5v-2q8 -125 8 -181v-18l-6 -110q10 -10 10 -22q0 -5 -2 -10q-6 -16 -24 -21l-32 -12q-6 -1 -28 -25q-1 -2 -1 -5q0 -10 6 -30v0zM264.663 792q36 14 44 14h141q10 0 10 6q0 4 -2 8
q-18 46 -22 56q-3 10 -7 68q-26 51 -27 55q-22 186 -25 195q-2 8 -34 36q-2 2 -3 2q-3 0 -3 -5v-2q8 -124 8 -182v-18l-6 -110q10 -10 10 -22q0 -5 -2 -10q-6 -16 -24 -21l-32 -12q-6 -1 -28 -25q-1 -2 -1 -5q0 -10 6 -30v0v0v-1zM390 728q30 -14 48 -14h139q8 -4 8 -9
q-32 -68 -32 -132q-28 -33 -28 -73q-24 -145 -32 -145l-32 -31q-4 0 -4 4q6 130 8 157l-8 116q6 0 10 18v7q0 24 -62 40q-28 24 -28 30q0 20 10 32v0h3zM696 454q24 -9 74 -57q35 -32 63 -50q6 -8 6 -16q0 -15 -59 -46l-224 -170q-49 0 -113 -48q-138 -89 -188 -115l-2 4v2
q2 32 124 132q34 32 48 32q24 -2 27 -2q20 0 30 26q89 68 174 150q5 30 19 38q26 13 26 31v7q0 16 -20 40v8q3 36 15 36v0v-2zM178 160q8 0 97 -78q0 -12 -47 -46q-41 -36 -51 -36q-9 0 -92 70q-5 0 -6 10q22 26 94 78l4 2v0v1z" />
    <glyph glyph-name="uni01E8" unicode="&#x1e8;" 
d="M122.67 1480q117 -106 126 -108q5 -2 11 -2q3 0 10 1t11 1q7 0 13 -2q10 -4 12 -12q2 -9 7 -13q2 -2 52 -42q43 -34 67 -56l23 -23q13 -11 17 -17q14 -14 15 -34q4 -6 14 -13q11 -7 15 -10q11 -10 11 -24q0 -8 -3 -16q-2 -5 -10 -17q-8 -10 -8 -14q0 -32 12 -40
q1 2 15 10q16 9 24 17q68 62 84 70q17 7 17 21v1q-1 16 -25 26q-20 8 -134 96q-116 88 -115 88q-1 1 -20 3q-20 1 -36 9q-8 4 -126 80q-108 69 -115 69h-1q-1 -1 -1 -3q0 -6 7 -18q11 -20 27 -34v0zM151.67 786q36 14 43 14h142q10 0 10 6q0 4 -2 8q-20 46 -22 56
q-3 10 -7 68q-26 51 -27 55q-22 186 -25 195q-2 8 -34 36q-2 2 -3 2q-3 0 -3 -5v-2q8 -125 8 -181v-18l-6 -110q10 -10 10 -22q0 -5 -2 -10q-6 -16 -24 -21l-32 -12q-6 -1 -28 -25q-1 -2 -1 -5q0 -10 6 -30v0zM665.67 786q36 14 44 14h141q10 0 10 6q0 4 -2 8q-18 46 -22 56
q-3 10 -7 68q-26 51 -27 55q-22 186 -25 195q-2 8 -34 36q-2 2 -3 2q-3 0 -3 -5v-2q8 -124 8 -182v-18l-6 -110q10 -10 10 -22q0 -5 -2 -10q-6 -16 -24 -21l-32 -12q-6 -1 -28 -25q-1 -2 -1 -5q0 -10 6 -30v0v0v-1zM790 720q12 -4 12 -8v-150l-2 -4q-26 4 -46 28
q-26 6 -37 21q0 6 -18 10q-10 0 -20 -6q-60 6 -103 6q-154 0 -474 -2q-20 7 -20 21q58 20 454 48q48 18 256 36v0h-2zM792 496q10 -2 10 -5v-150q0 -4 -4 -4q-36 7 -36 23q-10 6 -34 11q-18 22 -29 22h-8q-2 0 -16 -4q-64 4 -88 4h-416q-26 0 -68 -2q-24 6 -24 21
q64 22 449 49q127 30 208 30q0 1 55 5v0h1zM386 328q32 -13 50 -13h152q4 -1 4 -4v-4q-60 -143 -70 -144q-16 0 -32 -92h-2q-34 6 -34 28q-2 72 -2 104l12 34q0 24 -60 30q-28 25 -28 30q3 30 10 31v0v0v1v-1z" />
    <glyph glyph-name="uni01E9" unicode="&#x1e9;" 
d="M122.67 1480q117 -106 126 -108q5 -2 11 -2q3 0 10 1t11 1q7 0 13 -2q10 -4 12 -12q2 -9 7 -13q2 -2 52 -42q43 -34 67 -56l23 -23q13 -11 17 -17q14 -14 15 -34q4 -6 14 -13q11 -7 15 -10q11 -10 11 -24q0 -8 -3 -16q-2 -5 -10 -17q-8 -10 -8 -14q0 -32 12 -40
q1 2 15 10q16 9 24 17q68 62 84 70q17 7 17 21v1q-1 16 -25 26q-20 8 -134 96q-116 88 -115 88q-1 1 -20 3q-20 1 -36 9q-8 4 -126 80q-108 69 -115 69h-1q-1 -1 -1 -3q0 -6 7 -18q11 -20 27 -34v0zM151.67 786q36 14 43 14h142q10 0 10 6q0 4 -2 8q-20 46 -22 56
q-3 10 -7 68q-26 51 -27 55q-22 186 -25 195q-2 8 -34 36q-2 2 -3 2q-3 0 -3 -5v-2q8 -125 8 -181v-18l-6 -110q10 -10 10 -22q0 -5 -2 -10q-6 -16 -24 -21l-32 -12q-6 -1 -28 -25q-1 -2 -1 -5q0 -10 6 -30v0zM665.67 786q36 14 44 14h141q10 0 10 6q0 4 -2 8q-18 46 -22 56
q-3 10 -7 68q-26 51 -27 55q-22 186 -25 195q-2 8 -34 36q-2 2 -3 2q-3 0 -3 -5v-2q8 -124 8 -182v-18l-6 -110q10 -10 10 -22q0 -5 -2 -10q-6 -16 -24 -21l-32 -12q-6 -1 -28 -25q-1 -2 -1 -5q0 -10 6 -30v0v0v-1zM790 720q12 -4 12 -8v-150l-2 -4q-26 4 -46 28
q-26 6 -37 21q0 6 -18 10q-10 0 -20 -6q-60 6 -103 6q-154 0 -474 -2q-20 7 -20 21q58 20 454 48q48 18 256 36v0h-2zM792 496q10 -2 10 -5v-150q0 -4 -4 -4q-36 7 -36 23q-10 6 -34 11q-18 22 -29 22h-8q-2 0 -16 -4q-64 4 -88 4h-416q-26 0 -68 -2q-24 6 -24 21
q64 22 449 49q127 30 208 30q0 1 55 5v0h1zM386 328q32 -13 50 -13h152q4 -1 4 -4v-4q-60 -143 -70 -144q-16 0 -32 -92h-2q-34 6 -34 28q-2 72 -2 104l12 34q0 24 -60 30q-28 25 -28 30q3 30 10 31v0v0v1v-1z" />
    <glyph glyph-name="uni01F0" unicode="&#x1f0;" horiz-adv-x="806" 
d="M-444.837 1472q117 -106 126 -108q5 -2 11 -2q3 0 10 1t11 1q7 0 13 -2q10 -4 12 -12q2 -9 7 -13q2 -2 52 -42q43 -34 67 -56l23 -23q13 -11 17 -17q14 -14 15 -34q4 -6 14 -13q11 -7 15 -10q11 -10 11 -24q0 -8 -3 -16q-2 -5 -10 -17q-8 -10 -8 -14q0 -32 12 -40
q1 2 15 10q16 9 24 17q68 62 84 70q17 7 17 21v1q-1 16 -25 26q-20 8 -134 96q-116 88 -115 88q-1 1 -20 3q-20 1 -36 9q-8 4 -126 80q-108 69 -115 69h-1q-1 -1 -1 -3q0 -6 7 -18q11 -20 27 -34v0zM-415.837 778q36 14 43 14h142q10 0 10 6q0 4 -2 8q-20 46 -22 56
q-3 10 -7 68q-26 51 -27 55q-22 186 -25 195q-2 8 -34 36q-2 2 -3 2q-3 0 -3 -5v-2q8 -125 8 -181v-18l-6 -110q10 -10 10 -22q0 -5 -2 -10q-6 -16 -24 -21l-32 -12q-6 -1 -28 -25q-1 -2 -1 -5q0 -10 6 -30v0zM98.1631 778q36 14 44 14h141q10 0 10 6q0 4 -2 8
q-18 46 -22 56q-3 10 -7 68q-26 51 -27 55q-22 186 -25 195q-2 8 -34 36q-2 2 -3 2q-3 0 -3 -5v-2q8 -124 8 -182v-18l-6 -110q10 -10 10 -22q0 -5 -2 -10q-6 -16 -24 -21l-32 -12q-6 -1 -28 -25q-1 -2 -1 -5q0 -10 6 -30v0v0v-1zM220 714h4q45 -42 63 -92q42 0 58 -38
q76 -100 76 -118q0 -22 16 -30q42 -30 42 -58v-10q-58 22 -58 36q-42 62 -156 149q-22 10 -48 54q-8 4 -16 4h-26q-8 0 -50 -20q-8 0 -46 8v4q24 8 140 109v0zM604 562q42 -32 42 -62q24 -218 36 -218q16 -11 16 -61q3 -26 27 -90q-7 -6 -15 -6h-136q-9 0 -49 -12
q-6 26 -6 34q18 26 78 46q12 12 12 20v10q0 10 -10 18l2 8q2 66 6 106l-8 206l4 2zM148 402q35 -14 44 -14h146q3 0 6 -6v-4q-24 -54 -31 -135q-29 -30 -29 -88q-20 -160 -26 -172q-28 -28 -36 -33q0 4 -4 4q6 87 8 197q0 28 -6 124q10 6 10 22v2q0 24 -66 44q-24 20 -24 30
q0 14 7 32v0v0v1z" />
    <glyph glyph-name="uni01F1" unicode="&#x1f1;" horiz-adv-x="1797" 
d="M1520 740q35 -14 44 -14h146q3 0 9 -8q-26 -48 -35 -138q-16 0 -29 -89q-16 -176 -30 -176q-24 -24 -32 -24q5 168 5 200q0 40 -5 122q5 0 9 18v8q0 22 -58 38q-14 9 -32 29q0 18 8 34v0v0zM982 738h2q39 -12 50 -12h140q3 0 8 -8q-30 -66 -30 -130q-34 -40 -34 -116
q-18 -154 -26 -154l-32 -31q-4 0 -4 4l8 202q-6 78 -6 121q4 0 10 20q0 26 -68 46l-24 26q0 5 6 33v0v-1zM1262 726q32 -6 48 -6h106q1 0 7 -6q-10 -458 -21 -458q-10 -34 -32 -266q-16 -82 -20 -90h-2q-5 0 -17 16q-2 232 -2 355v220q0 56 -8 148q4 6 4 12v2q0 24 -48 34
q-8 0 -17 38q2 0 2 2v0v0v1v-2zM84 726q35 -6 50 -6h38q20 0 63 2q5 -10 6 -10q-2 -20 -2 -23q-7 -446 -17 -446q-24 -234 -52 -342q-7 0 -21 16q-2 72 -2 104v265q0 287 -7 353q4 7 4 19q0 16 -56 35l-8 32l4 2v-1zM620 726q33 -14 50 -14h140q3 0 6 -6l-24 -74
q-4 -74 -18 -74q-14 -20 -28 -128q-12 -86 -27 -86q-18 -22 -23 -22q0 4 -4 4q8 114 8 155q0 17 -6 117q6 0 10 20v3q0 24 -66 44q-24 24 -24 27v2q0 17 7 31v0zM468 710q9 0 96 -76v-8q-88 -76 -96 -76q-12 0 -98 78v6q88 76 98 76v0v0v1v-1z" />
    <glyph glyph-name="uni01F2" unicode="&#x1f2;" horiz-adv-x="1797" 
d="M1520 740q35 -14 44 -14h146q3 0 9 -8q-26 -48 -35 -138q-16 0 -29 -89q-16 -176 -30 -176q-24 -24 -32 -24q5 168 5 200q0 40 -5 122q5 0 9 18v8q0 22 -58 38q-14 9 -32 29q0 18 8 34v0v0zM982 738h2q39 -12 50 -12h140q3 0 8 -8q-30 -66 -30 -130q-34 -40 -34 -116
q-18 -154 -26 -154l-32 -31q-4 0 -4 4l8 202q-6 78 -6 121q4 0 10 20q0 26 -68 46l-24 26q0 5 6 33v0v-1zM1262 726q32 -6 48 -6h106q1 0 7 -6q-10 -458 -21 -458q-10 -34 -32 -266q-16 -82 -20 -90h-2q-5 0 -17 16q-2 232 -2 355v220q0 56 -8 148q4 6 4 12v2q0 24 -48 34
q-8 0 -17 38q2 0 2 2v0v0v1v-2zM84 726q35 -6 50 -6h38q20 0 63 2q5 -10 6 -10q-2 -20 -2 -23q-7 -446 -17 -446q-24 -234 -52 -342q-7 0 -21 16q-2 72 -2 104v265q0 287 -7 353q4 7 4 19q0 16 -56 35l-8 32l4 2v-1zM620 726q33 -14 50 -14h140q3 0 6 -6l-24 -74
q-4 -74 -18 -74q-14 -20 -28 -128q-12 -86 -27 -86q-18 -22 -23 -22q0 4 -4 4q8 114 8 155q0 17 -6 117q6 0 10 20v3q0 24 -66 44q-24 24 -24 27v2q0 17 7 31v0zM468 710q9 0 96 -76v-8q-88 -76 -96 -76q-12 0 -98 78v6q88 76 98 76v0v0v1v-1z" />
    <glyph glyph-name="uni01F3" unicode="&#x1f3;" horiz-adv-x="1797" 
d="M1520 740q35 -14 44 -14h146q3 0 9 -8q-26 -48 -35 -138q-16 0 -29 -89q-16 -176 -30 -176q-24 -24 -32 -24q5 168 5 200q0 40 -5 122q5 0 9 18v8q0 22 -58 38q-14 9 -32 29q0 18 8 34v0v0zM982 738h2q39 -12 50 -12h140q3 0 8 -8q-30 -66 -30 -130q-34 -40 -34 -116
q-18 -154 -26 -154l-32 -31q-4 0 -4 4l8 202q-6 78 -6 121q4 0 10 20q0 26 -68 46l-24 26q0 5 6 33v0v-1zM1262 726q32 -6 48 -6h106q1 0 7 -6q-10 -458 -21 -458q-10 -34 -32 -266q-16 -82 -20 -90h-2q-5 0 -17 16q-2 232 -2 355v220q0 56 -8 148q4 6 4 12v2q0 24 -48 34
q-8 0 -17 38q2 0 2 2v0v0v1v-2zM84 726q35 -6 50 -6h38q20 0 63 2q5 -10 6 -10q-2 -20 -2 -23q-7 -446 -17 -446q-24 -234 -52 -342q-7 0 -21 16q-2 72 -2 104v265q0 287 -7 353q4 7 4 19q0 16 -56 35l-8 32l4 2v-1zM620 726q33 -14 50 -14h140q3 0 6 -6l-24 -74
q-4 -74 -18 -74q-14 -20 -28 -128q-12 -86 -27 -86q-18 -22 -23 -22q0 4 -4 4q8 114 8 155q0 17 -6 117q6 0 10 20v3q0 24 -66 44q-24 24 -24 27v2q0 17 7 31v0zM468 710q9 0 96 -76v-8q-88 -76 -96 -76q-12 0 -98 78v6q88 76 98 76v0v0v1v-1z" />
    <glyph glyph-name="uni021E" unicode="&#x21e;" horiz-adv-x="790" 
d="M-114.837 1484q117 -106 126 -108q5 -2 11 -2q3 0 10 1t11 1q7 0 13 -2q10 -4 12 -12q2 -9 7 -13q2 -2 52 -42q43 -34 67 -56l23 -23q13 -11 17 -17q14 -14 15 -34q4 -6 14 -13q11 -7 15 -10q11 -10 11 -24q0 -8 -3 -16q-2 -5 -10 -17q-8 -10 -8 -14q0 -32 12 -40
q1 2 15 10q16 9 24 17q68 62 84 70q17 7 17 21v1q-1 16 -25 26q-20 8 -134 96q-116 88 -115 88q-1 1 -20 3q-20 1 -36 9q-8 4 -126 80q-108 69 -115 69h-1q-1 -1 -1 -3q0 -6 7 -18q11 -20 27 -34v0zM-85.8369 790q36 14 43 14h142q10 0 10 6q0 4 -2 8q-20 46 -22 56
q-3 10 -7 68q-26 51 -27 55q-22 186 -25 195q-2 8 -34 36q-2 2 -3 2q-3 0 -3 -5v-2q8 -125 8 -181v-18l-6 -110q10 -10 10 -22q0 -5 -2 -10q-6 -16 -24 -21l-32 -12q-6 -1 -28 -25q-1 -2 -1 -5q0 -10 6 -30v0zM428.163 790q36 14 44 14h141q10 0 10 6q0 4 -2 8
q-18 46 -22 56q-3 10 -7 68q-26 51 -27 55q-22 186 -25 195q-2 8 -34 36q-2 2 -3 2q-3 0 -3 -5v-2q8 -124 8 -182v-18l-6 -110q10 -10 10 -22q0 -5 -2 -10q-6 -16 -24 -21l-32 -12q-6 -1 -28 -25q-1 -2 -1 -5q0 -10 6 -30v0v0v-1zM552 726q35 -6 50 -6h38q20 0 63 2
q4 -8 6 -8q-2 -28 -2 -31q-5 -430 -19 -430q-8 -45 -32 -271q-14 -72 -18 -82q-10 2 -21 16q-2 173 -2 264v246q0 134 -7 212q4 7 4 19q0 16 -56 35q0 6 -8 32l4 2v0zM170 618h8q12 0 96 -77v-6q-20 -20 -90 -75h-6q-11 0 -96 76v6q10 14 90 78v0zM380 438q44 -28 44 -73
q22 -206 33 -206q18 -16 18 -66q0 -17 26 -84v-4q-2 -6 -17 -6h-138q-6 0 -42 -12q-8 12 -8 30v3q16 26 78 46q12 14 12 30q0 6 -10 19l6 120q0 48 -8 200l4 2v0v1h2z" />
    <glyph glyph-name="uni021F" unicode="&#x21f;" horiz-adv-x="790" 
d="M-440.819 1484q117 -106 126 -108q5 -2 11 -2q3 0 10 1t11 1q7 0 13 -2q10 -4 12 -12q2 -9 7 -13q2 -2 52 -42q43 -34 67 -56l23 -23q13 -11 17 -17q14 -14 15 -34q4 -6 14 -13q11 -7 15 -10q11 -10 11 -24q0 -8 -3 -16q-2 -5 -10 -17q-8 -10 -8 -14q0 -32 12 -40
q1 2 15 10q16 9 24 17q68 62 84 70q17 7 17 21v1q-1 16 -25 26q-20 8 -134 96q-116 88 -115 88q-1 1 -20 3q-20 1 -36 9q-8 4 -126 80q-108 69 -115 69h-1q-1 -1 -1 -3q0 -6 7 -18q11 -20 27 -34v0zM-411.819 790q36 14 43 14h142q10 0 10 6q0 4 -2 8q-20 46 -22 56
q-3 10 -7 68q-26 51 -27 55q-22 186 -25 195q-2 8 -34 36q-2 2 -3 2q-3 0 -3 -5v-2q8 -125 8 -181v-18l-6 -110q10 -10 10 -22q0 -5 -2 -10q-6 -16 -24 -21l-32 -12q-6 -1 -28 -25q-1 -2 -1 -5q0 -10 6 -30v0zM102.181 790q36 14 44 14h141q10 0 10 6q0 4 -2 8
q-18 46 -22 56q-3 10 -7 68q-26 51 -27 55q-22 186 -25 195q-2 8 -34 36q-2 2 -3 2q-3 0 -3 -5v-2q8 -124 8 -182v-18l-6 -110q10 -10 10 -22q0 -5 -2 -10q-6 -16 -24 -21l-32 -12q-6 -1 -28 -25q-1 -2 -1 -5q0 -10 6 -30v0v0v-1zM552 726q35 -6 50 -6h38q20 0 63 2
q4 -8 6 -8q-2 -28 -2 -31q-5 -430 -19 -430q-8 -45 -32 -271q-14 -72 -18 -82q-10 2 -21 16q-2 173 -2 264v246q0 134 -7 212q4 7 4 19q0 16 -56 35q0 6 -8 32l4 2v0zM170 618h8q12 0 96 -77v-6q-20 -20 -90 -75h-6q-11 0 -96 76v6q10 14 90 78v0zM380 438q44 -28 44 -73
q22 -206 33 -206q18 -16 18 -66q0 -17 26 -84v-4q-2 -6 -17 -6h-138q-6 0 -42 -12q-8 12 -8 30v3q16 26 78 46q12 14 12 30q0 6 -10 19l6 120q0 48 -8 200l4 2v0v1h2z" />
    <glyph glyph-name="uni02B0" unicode="&#x2b0;" horiz-adv-x="790" 
d="M552 726q35 -6 50 -6h38q20 0 63 2q4 -8 6 -8q-2 -28 -2 -31q-5 -430 -19 -430q-8 -45 -32 -271q-14 -72 -18 -82q-10 2 -21 16q-2 173 -2 264v246q0 134 -7 212q4 7 4 19q0 16 -56 35q0 6 -8 32l4 2v0zM170 618h8q12 0 96 -77v-6q-20 -20 -90 -75h-6q-11 0 -96 76v6
q10 14 90 78v0zM380 438q44 -28 44 -73q22 -206 33 -206q18 -16 18 -66q0 -17 26 -84v-4q-2 -6 -17 -6h-138q-6 0 -42 -12q-8 12 -8 30v3q16 26 78 46q12 14 12 30q0 6 -10 19l6 120q0 48 -8 200l4 2v0v1h2z" />
    <glyph glyph-name="uni02B2" unicode="&#x2b2;" horiz-adv-x="806" 
d="M220 714h4q45 -42 63 -92q42 0 58 -38q76 -100 76 -118q0 -22 16 -30q42 -30 42 -58v-10q-58 22 -58 36q-42 62 -156 149q-22 10 -48 54q-8 4 -16 4h-26q-8 0 -50 -20q-8 0 -46 8v4q24 8 140 109v0zM604 562q42 -32 42 -62q24 -218 36 -218q16 -11 16 -61q3 -26 27 -90
q-7 -6 -15 -6h-136q-9 0 -49 -12q-6 26 -6 34q18 26 78 46q12 12 12 20v10q0 10 -10 18l2 8q2 66 6 106l-8 206l4 2zM148 402q35 -14 44 -14h146q3 0 6 -6v-4q-24 -54 -31 -135q-29 -30 -29 -88q-20 -160 -26 -172q-28 -28 -36 -33q0 4 -4 4q6 87 8 197q0 28 -6 124
q10 6 10 22v2q0 24 -66 44q-24 20 -24 30q0 14 7 32v0v0v1z" />
    <glyph glyph-name="uni02B3" unicode="&#x2b3;" horiz-adv-x="836" 
d="M80 726h2q34 -6 50 -6h72q10 0 30 2l6 -8q-7 -458 -19 -458q-8 -22 -30 -256l-20 -100h-2q-20 10 -20 22q-2 476 -2 596q0 16 -5 116l2 24q0 13 -52 31q-10 20 -10 36v0zM560 674q33 -14 44 -14h140q12 -1 12 -6l-24 -75q-6 -62 -10 -65q-24 -14 -36 -160
q-12 -100 -18 -100q-16 -18 -34 -32q0 4 -4 4q8 152 8 200l-6 118q10 16 10 24v4q0 24 -64 42l-26 26v4q0 20 8 32v0v-2zM306 432q40 -4 76 -4h124q6 -2 6 -12v-19q0 -12 -26 -24q-54 -92 -56 -92q-38 -7 -44 -7l-2 4v45q0 7 12 37q0 20 -64 28q-24 6 -24 32q-3 0 -4 12
q2 0 2 2v0v0v1v-3z" />
    <glyph glyph-name="uni02B7" unicode="&#x2b7;" 
d="M594 636q44 -4 84 -4h114q6 -2 6 -12v-16q0 -18 -24 -27l-56 -91q-8 -4 -47 -10l-2 4v46q0 9 12 35q0 20 -64 28q-24 7 -24 31q-4 0 -4 12l4 2zM348 570h6q40 -35 64 -90q48 -10 48 -24q86 -118 86 -128q2 -12 2 -26q56 -34 56 -67v-6q0 -4 -4 -4q-55 24 -65 52
q-72 82 -142 129q-34 24 -52 60q-24 4 -29 4q-24 0 -63 -22l-46 7v2q39 23 138 113v0h1zM788 160q14 -3 14 -8v-152h-4q-22 0 -42 24q-28 10 -34 15q0 10 -24 18h-2q-10 0 -20 -6q-56 6 -98 6h-36q-150 0 -440 -2q-20 8 -20 22v2q70 18 452 46q56 18 212 31q20 0 44 4v0v0v1
z" />
    <glyph glyph-name="uni02B8" unicode="&#x2b8;" horiz-adv-x="750" 
d="M474 760q33 -14 44 -14h146q3 0 6 -6v-2q-30 -71 -30 -133q-30 -32 -30 -86q-20 -169 -28 -180l-34 -32q-4 0 -4 4q8 169 8 199l-6 118q10 15 10 27q0 24 -64 42l-26 26v6q0 18 8 30v0v1zM92 670q28 -11 38 -11h150q16 0 17 -6v-4q-56 -134 -68 -142q-20 0 -36 -94h-4
q-32 8 -32 30q-2 76 -2 102l12 34v6q0 16 -62 28q-26 22 -26 27q0 32 12 32v0zM338 450q40 -30 40 -55q24 -224 37 -224q16 -14 16 -68q0 -10 26 -82v-3q-2 -6 -12 -6h-142q-6 0 -42 -12q-5 0 -8 32v2q18 28 73 44q16 12 16 24v5q-4 18 -10 18q6 95 6 122q0 70 -8 199l6 3v0
v1h2z" />
    <glyph glyph-name="uni02B9" unicode="&#x2b9;" horiz-adv-x="512" 
d="M350 606q-8 -1 -20 -9l-26 -40q-24 -40 -30 -54q-2 -5 -49 -11l-1 47v1q0 16 11 34q1 2 1 5q0 7 -7 13q-8 8 -16 9l-32 5q-7 1 -29 9q-4 6 -12 40q52 -4 60 -4h146q7 0 8 -11q2 -10 2 -17q0 -14 -6 -16v0v-1z" />
    <glyph glyph-name="uni02BC" unicode="&#x2bc;" horiz-adv-x="512" 
d="M350 606q-8 -1 -20 -9l-26 -40q-24 -40 -30 -54q-2 -5 -49 -11l-1 47v1q0 16 11 34q1 2 1 5q0 7 -7 13q-8 8 -16 9l-32 5q-7 1 -29 9q-4 6 -12 40q52 -4 60 -4h146q7 0 8 -11q2 -10 2 -17q0 -14 -6 -16v0v-1z" />
    <glyph glyph-name="uni02C4" unicode="&#x2c4;" horiz-adv-x="890" 
d="M87 42q117 106 126 108q5 2 11 2q3 0 10 -1t11 -1q7 0 13 2q10 4 12 12q2 9 7 13q2 2 52 42q43 34 67 56l23 23q13 11 17 17q14 14 15 34q4 6 14 13q11 7 15 10q11 10 11 24q0 8 -3 16q-2 5 -10 17q-8 10 -8 14q0 32 12 40q1 -2 15 -10q16 -9 24 -17q68 -62 84 -70
q17 -7 17 -21v-1q-1 -16 -25 -26q-20 -8 -134 -96q-116 -88 -115 -88q-1 -1 -20 -3q-20 -1 -36 -9q-8 -4 -126 -80q-108 -69 -115 -69h-1q-1 1 -1 3q0 6 7 18q11 20 27 34v0zM116 736q36 -14 43 -14h142q10 0 10 -6q0 -4 -2 -8q-20 -46 -22 -56q-3 -10 -7 -68
q-26 -51 -27 -55q-22 -186 -25 -195q-2 -8 -34 -36q-2 -2 -3 -2q-3 0 -3 5v2q8 125 8 181v18l-6 110q10 10 10 22q0 5 -2 10q-6 16 -24 21l-32 12q-6 1 -28 25q-1 2 -1 5q0 10 6 30v0zM630 736q36 -14 44 -14h141q10 0 10 -6q0 -4 -2 -8q-18 -46 -22 -56q-3 -10 -7 -68
q-26 -51 -27 -55q-22 -186 -25 -195q-2 -8 -34 -36q-2 -2 -3 -2q-3 0 -3 5v2q8 124 8 182v18l-6 110q10 10 10 22q0 5 -2 10q-6 16 -24 21l-32 12q-6 1 -28 25q-1 2 -1 5q0 10 6 30v0v0v1z" />
    <glyph glyph-name="circumflex" unicode="&#x2c6;" horiz-adv-x="890" 
d="M87 42q117 106 126 108q5 2 11 2q3 0 10 -1t11 -1q7 0 13 2q10 4 12 12q2 9 7 13q2 2 52 42q43 34 67 56l23 23q13 11 17 17q14 14 15 34q4 6 14 13q11 7 15 10q11 10 11 24q0 8 -3 16q-2 5 -10 17q-8 10 -8 14q0 32 12 40q1 -2 15 -10q16 -9 24 -17q68 -62 84 -70
q17 -7 17 -21v-1q-1 -16 -25 -26q-20 -8 -134 -96q-116 -88 -115 -88q-1 -1 -20 -3q-20 -1 -36 -9q-8 -4 -126 -80q-108 -69 -115 -69h-1q-1 1 -1 3q0 6 7 18q11 20 27 34v0zM116 736q36 -14 43 -14h142q10 0 10 -6q0 -4 -2 -8q-20 -46 -22 -56q-3 -10 -7 -68
q-26 -51 -27 -55q-22 -186 -25 -195q-2 -8 -34 -36q-2 -2 -3 -2q-3 0 -3 5v2q8 125 8 181v18l-6 110q10 10 10 22q0 5 -2 10q-6 16 -24 21l-32 12q-6 1 -28 25q-1 2 -1 5q0 10 6 30v0zM630 736q36 -14 44 -14h141q10 0 10 -6q0 -4 -2 -8q-18 -46 -22 -56q-3 -10 -7 -68
q-26 -51 -27 -55q-22 -186 -25 -195q-2 -8 -34 -36q-2 -2 -3 -2q-3 0 -3 5v2q8 124 8 182v18l-6 110q10 10 10 22q0 5 -2 10q-6 16 -24 21l-32 12q-6 1 -28 25q-1 2 -1 5q0 10 6 30v0v0v1z" />
    <glyph glyph-name="uni02C8" unicode="&#x2c8;" horiz-adv-x="512" 
d="M350 606q-8 -1 -20 -9l-26 -40q-24 -40 -30 -54q-2 -5 -49 -11l-1 47v1q0 16 11 34q1 2 1 5q0 7 -7 13q-8 8 -16 9l-32 5q-7 1 -29 9q-4 6 -12 40q52 -4 60 -4h146q7 0 8 -11q2 -10 2 -17q0 -14 -6 -16v0v-1z" />
    <glyph glyph-name="uni02E1" unicode="&#x2e1;" horiz-adv-x="922" 
d="M586 736q10 0 112 -92q32 -16 32 -30v-4q0 -16 -60 -46l-222 -170q-49 0 -101 -40q-186 -122 -200 -122h-1v2q0 30 120 128q38 37 50 37h7q10 0 23 -2q26 4 26 24q94 70 174 151q6 5 10 29q40 24 40 44q0 16 -22 48v2q6 40 14 40v0zM698 454q9 0 111 -90q28 -16 31 -32
q-1 -18 -65 -53l-218 -166q-52 0 -120 -53q-132 -83 -181 -111l-2 4q0 32 112 124q45 42 59 42q28 -2 31 -2q16 0 26 28q72 50 172 146q7 34 27 44q20 9 20 31q0 16 -22 46q4 40 16 40v0zM178 182q10 0 98 -78q0 -12 -47 -46q-41 -37 -51 -37q-12 0 -96 77l-2 4q6 11 92 77
q2 0 6 2v0v0v1v0z" />
    <glyph glyph-name="uni02E2" unicode="&#x2e2;" horiz-adv-x="863" 
d="M284 726q32 -6 48 -6h72q10 0 30 2l6 -8q-8 -458 -21 -458q-10 -42 -30 -258q-2 -5 -20 -99h-2q-20 8 -20 30q0 93 -2 598l-6 106q2 17 2 27q0 16 -54 32q-8 30 -8 34l4 2zM590 706q20 -9 44 -13h144q6 0 6 -8q-31 -66 -31 -132q-28 -16 -38 -134q-12 -138 -28 -138
q-20 -24 -29 -24l-2 4l8 200q-6 93 -6 119q10 10 10 23q0 24 -66 44q-26 24 -26 28q4 32 12 32v0zM90 418q33 -14 51 -14h139q4 -1 4 -4v-2l-24 -75q-6 -70 -14 -70q-18 -16 -32 -148q-10 -114 -24 -114l-26 -24h-2l-4 2q6 89 8 199q0 20 -6 122q6 0 10 18v6q0 22 -64 42
l-26 26v2q0 26 10 32v0v0v1v1z" />
    <glyph glyph-name="uni02E3" unicode="&#x2e3;" horiz-adv-x="901" 
d="M184 676q10 0 97 -76v-6q-88 -78 -97 -78q-8 0 -96 76l-2 4q20 26 94 80h4v0zM676 672h4q9 0 117 -95q18 0 26 -28q-4 -16 -55 -42q-106 -77 -231 -174q-52 0 -112 -48q-179 -114 -189 -114q-2 4 -2 6q0 33 161 160q11 2 11 4l10 -2h22q16 0 22 24q83 60 174 150
q6 10 10 30q38 20 38 42v4q0 12 -20 44v2q1 34 13 38v0zM790 162q12 -4 12 -8v-150l-2 -4q-26 3 -46 27q-26 6 -38 21q0 6 -18 10h-2q-10 0 -20 -6q-56 6 -98 6h-36q-150 0 -440 -2q-20 8 -20 22q53 20 434 46q140 30 206 30q6 2 70 8v0v0v1z" />
    <glyph glyph-name="uni0302" unicode="&#x302;" horiz-adv-x="890" 
d="M87 42q117 106 126 108q5 2 11 2q3 0 10 -1t11 -1q7 0 13 2q10 4 12 12q2 9 7 13q2 2 52 42q43 34 67 56l23 23q13 11 17 17q14 14 15 34q4 6 14 13q11 7 15 10q11 10 11 24q0 8 -3 16q-2 5 -10 17q-8 10 -8 14q0 32 12 40q1 -2 15 -10q16 -9 24 -17q68 -62 84 -70
q17 -7 17 -21v-1q-1 -16 -25 -26q-20 -8 -134 -96q-116 -88 -115 -88q-1 -1 -20 -3q-20 -1 -36 -9q-8 -4 -126 -80q-108 -69 -115 -69h-1q-1 1 -1 3q0 6 7 18q11 20 27 34v0zM116 736q36 -14 43 -14h142q10 0 10 -6q0 -4 -2 -8q-20 -46 -22 -56q-3 -10 -7 -68
q-26 -51 -27 -55q-22 -186 -25 -195q-2 -8 -34 -36q-2 -2 -3 -2q-3 0 -3 5v2q8 125 8 181v18l-6 110q10 10 10 22q0 5 -2 10q-6 16 -24 21l-32 12q-6 1 -28 25q-1 2 -1 5q0 10 6 30v0zM630 736q36 -14 44 -14h141q10 0 10 -6q0 -4 -2 -8q-18 -46 -22 -56q-3 -10 -7 -68
q-26 -51 -27 -55q-22 -186 -25 -195q-2 -8 -34 -36q-2 -2 -3 -2q-3 0 -3 5v2q8 124 8 182v18l-6 110q10 10 10 22q0 5 -2 10q-6 16 -24 21l-32 12q-6 1 -28 25q-1 2 -1 5q0 10 6 30v0v0v1z" />
    <glyph glyph-name="uni0374" unicode="&#x374;" horiz-adv-x="512" 
d="M350 606q-8 -1 -20 -9l-26 -40q-24 -40 -30 -54q-2 -5 -49 -11l-1 47v1q0 16 11 34q1 2 1 5q0 7 -7 13q-8 8 -16 9l-32 5q-7 1 -29 9q-4 6 -12 40q52 -4 60 -4h146q7 0 8 -11q2 -10 2 -17q0 -14 -6 -16v0v-1z" />
    <glyph glyph-name="Alpha" unicode="&#x391;" horiz-adv-x="911" 
d="M624 720q34 -12 40 -12h154q10 0 13 -7q-58 -138 -65 -143q-22 0 -36 -94l-4 -2q-34 7 -34 33v38q0 22 -2 58l14 38q0 20 -64 30q-26 26 -26 30q6 30 10 30v0v1zM292 608q7 0 96 -76v-8q-88 -76 -98 -76t-97 76v8q87 76 99 76v0v0zM520 454h2q23 -8 112 -91
q30 -12 30 -28q2 0 2 -2q-1 -18 -65 -53l-218 -166q-51 0 -120 -53q-122 -78 -180 -110l-2 4q0 34 124 134q32 32 48 32q24 -2 27 -2q20 0 27 24q87 66 175 149q7 34 29 46q18 8 18 28v2q0 16 -22 46q5 40 14 40v0v0v1z" />
    <glyph glyph-name="Beta" unicode="&#x392;" horiz-adv-x="897" 
d="M814 718l4 -6v-150l-2 -4q-26 4 -40 22q0 8 -30 12q-18 24 -34 24q-5 0 -17 -6l-86 6q-352 -2 -491 -2q-16 0 -22 22q64 20 457 48q51 18 191 29q51 4 69 4v0zM520 454h2q23 -8 112 -91q30 -12 30 -28q2 0 2 -2q-1 -18 -65 -53l-218 -166q-51 0 -120 -53
q-122 -78 -180 -110l-2 4q0 34 124 134q32 32 48 32q24 -2 27 -2q24 4 24 22q100 80 154 130q32 28 32 52q39 22 39 46q0 16 -22 46q5 40 14 40v0zM660 166h12q90 -72 92 -78v-2q-3 -8 -93 -78h-12q-84 66 -91 76v6q7 10 91 76v0v0v1z" />
    <glyph glyph-name="Epsilon" unicode="&#x395;" 
d="M798 718l4 -6v-150l-2 -4q-26 4 -39 22q0 8 -30 12q-18 24 -33 24q-6 0 -18 -6l-86 6q-352 -2 -491 -2q-16 0 -22 22q64 20 457 48q52 18 193 29q52 4 68 4v0zM538 454q10 0 112 -90q32 -16 32 -34q0 -14 -60 -46l-223 -170q-52 0 -120 -53q-150 -96 -180 -111l-2 4
q0 34 124 134q32 32 48 32q24 -2 27 -2q20 0 26 24q100 76 170 144q6 8 16 36q36 20 36 44q0 18 -22 44q4 42 15 42v0zM252 412q7 0 96 -76v-6q-87 -78 -98 -78h-2q-77 55 -97 80q26 30 96 79h4v0v1h1z" />
    <glyph glyph-name="Zeta" unicode="&#x396;" horiz-adv-x="901" 
d="M624 740q35 -14 44 -14h146q3 0 9 -8q-26 -48 -35 -138q-16 0 -29 -89q-16 -176 -30 -176q-24 -24 -32 -24q5 168 5 200q0 40 -5 122q5 0 9 18v8q0 22 -58 38q-14 9 -32 29q0 18 8 34v0v0zM86 738h2q39 -12 50 -12h140q3 0 8 -8q-30 -66 -30 -130q-34 -40 -34 -116
q-18 -154 -26 -154l-32 -31q-4 0 -4 4l8 202q-6 78 -6 121q4 0 10 20q0 26 -68 46l-24 26q0 5 6 33v0v-1zM366 726q32 -6 48 -6h106q1 0 7 -6q-10 -458 -21 -458q-10 -34 -32 -266q-16 -82 -20 -90h-2q-5 0 -17 16q-2 232 -2 355v220q0 56 -8 148q4 6 4 12v2q0 24 -48 34
q-8 0 -17 38q2 0 2 2v0v0v1v-2z" />
    <glyph glyph-name="Eta" unicode="&#x397;" horiz-adv-x="790" 
d="M552 726q35 -6 50 -6h38q20 0 63 2q4 -8 6 -8q-2 -28 -2 -31q-5 -430 -19 -430q-8 -45 -32 -271q-14 -72 -18 -82q-10 2 -21 16q-2 173 -2 264v246q0 134 -7 212q4 7 4 19q0 16 -56 35q0 6 -8 32l4 2v0zM170 618h8q12 0 96 -77v-6q-20 -20 -90 -75h-6q-11 0 -96 76v6
q10 14 90 78v0zM380 438q44 -28 44 -73q22 -206 33 -206q18 -16 18 -66q0 -17 26 -84v-4q-2 -6 -17 -6h-138q-6 0 -42 -12q-8 12 -8 30v3q16 26 78 46q12 14 12 30q0 6 -10 19l6 120q0 48 -8 200l4 2v0v1h2z" />
    <glyph glyph-name="Iota" unicode="&#x399;" horiz-adv-x="924" 
d="M308 726q35 -6 49 -6h39q20 0 63 2q4 -10 6 -10q0 -4 -2 -22q-5 -442 -21 -442q-27 -250 -39 -298q-5 -46 -9 -50q-22 0 -22 54v256q0 366 -8 430q4 6 4 12q0 22 -55 40l-8 32l4 2h-1zM638 718q32 -12 40 -12h150q16 0 17 -5q0 -12 -64 -144q-25 0 -39 -96h-3
q-33 9 -33 25q-2 49 -2 77v28q0 13 12 31v4q0 24 -56 32q-7 0 -32 28v4q2 30 10 30v0v-2zM82 538q2 0 2 -2q43 -2 63 -2h126q11 0 14 -7v-22q0 -18 -19 -22q-18 -22 -60 -96q-32 -8 -46 -8l-2 4v46q0 12 12 32q0 24 -68 32q-16 0 -24 44q2 0 2 2v0v0v1v-2z" />
    <glyph glyph-name="Kappa" unicode="&#x39a;" 
d="M790 720q12 -4 12 -8v-150l-2 -4q-26 4 -46 28q-26 6 -37 21q0 6 -18 10q-10 0 -20 -6q-60 6 -103 6q-154 0 -474 -2q-20 7 -20 21q58 20 454 48q48 18 256 36v0h-2zM792 496q10 -2 10 -5v-150q0 -4 -4 -4q-36 7 -36 23q-10 6 -34 11q-18 22 -29 22h-8q-2 0 -16 -4
q-64 4 -88 4h-416q-26 0 -68 -2q-24 6 -24 21q64 22 449 49q127 30 208 30q0 1 55 5v0h1zM386 328q32 -13 50 -13h152q4 -1 4 -4v-4q-60 -143 -70 -144q-16 0 -32 -92h-2q-34 6 -34 28q-2 72 -2 104l12 34q0 24 -60 30q-28 25 -28 30q3 30 10 31v0v0v1v-1z" />
    <glyph glyph-name="Mu" unicode="&#x39c;" horiz-adv-x="781" 
d="M84 726q35 -6 50 -6h70q11 0 27 2q6 0 10 -12l-2 -13q-6 -448 -22 -448q-6 -30 -28 -252l-20 -96h-2q-20 8 -20 28v76q0 192 -2 540q-5 85 -5 97l4 10q0 26 -56 40l-8 34l4 2v-2zM390 550q44 -28 44 -72q22 -208 36 -208q16 -16 16 -72q0 -7 26 -79v-2q-2 -6 -12 -6h-142
l-43 -11q-6 15 -6 29v4q16 27 74 44q16 12 16 23v4q0 7 -10 23l6 120q0 48 -8 200l4 2zM580 430q42 -32 42 -63q24 -219 38 -219q16 -14 16 -74l26 -74v-2q-2 -6 -12 -6h-142l-44 -12h-2q0 5 -6 31q14 28 60 42q32 10 32 34q0 7 -10 21q0 24 6 118q0 13 -8 203l4 2v0v1v-2z
" />
    <glyph glyph-name="Nu" unicode="&#x39d;" horiz-adv-x="884" 
d="M462 723h6q76 -60 92 -76v-6q-76 -68 -96 -78q-10 0 -98 76v8q86 76 96 76v0v0zM792 360q8 -2 12 -8l-2 -14v-134q0 -4 -4 -4q-20 0 -42 27q-36 8 -36 19q-14 10 -21 10h-5q-8 0 -16 -6q-44 6 -92 6h-282q-72 0 -202 -2q-14 0 -22 22q68 22 452 48q60 18 189 30
q11 0 71 6v0v0zM794 135q8 -3 8 -6v-150l-2 -3q-22 0 -48 30q-24 0 -38 22q-3 0 -8 4h-14l-14 -4q-16 0 -82 6q-184 -2 -292 -2h-202q-14 0 -22 20q0 6 122 22q396 29 396 44q114 12 196 18v0v0v1v-2z" />
    <glyph glyph-name="Omicron" unicode="&#x39f;" horiz-adv-x="911" 
d="M624 720q34 -12 46 -12h148q10 0 13 -7q-58 -136 -66 -142q-22 0 -36 -94l-4 -2q-32 6 -32 32q-2 26 -4 96q4 16 14 38q0 24 -56 31q-8 0 -34 30q5 32 10 32v0zM328 710q48 -4 80 -4h121q7 -2 7 -14v-12q0 -18 -26 -30q-28 -44 -55 -90q-7 -4 -46 -10l-2 4v32l-2 12
q6 26 12 32v10q0 16 -62 24q-24 7 -24 31q-4 0 -5 13v2h2zM522 454q10 0 112 -90q32 -16 32 -34q-2 -15 -62 -48l-222 -168q-51 0 -120 -53q-122 -78 -180 -110l-2 4q0 32 112 124q45 42 59 42q5 0 29 -2q20 0 27 24q90 68 170 144q6 8 15 36q37 20 37 44q0 18 -20 42v6
q0 38 14 38v0v0v1h-1z" />
    <glyph glyph-name="Rho" unicode="&#x3a1;" horiz-adv-x="666" 
d="M374 724q40 -12 50 -12h148q11 0 14 -7q-61 -142 -65 -142q-24 0 -36 -94l-4 -2q-35 7 -35 33v18q0 28 -2 76q5 18 14 40q0 22 -64 30l-26 28l6 32v0zM84 714q42 -4 78 -4h120q8 -2 8 -18v-2q0 -30 -20 -30q-12 -12 -62 -99l-44 -8q-2 4 -2 6q0 16 -2 42q4 20 13 32v4
q0 22 -44 26q-40 7 -40 23q-4 16 -8 25l4 2zM210 388h6q70 -54 92 -76v-6q-85 -76 -96 -76h-2q-10 0 -96 74v8q86 76 96 76v0v0v1v-1z" />
    <glyph glyph-name="Tau" unicode="&#x3a4;" 
d="M580 714q32 -13 50 -13h138q3 0 6 -6v-2q-30 -70 -30 -132q-32 -34 -32 -105q-20 -164 -28 -164l-30 -28h-2l-4 2q8 154 8 202l-6 120q6 0 9 22q0 26 -66 44l-24 26v4q1 30 9 30v0h2zM326 626q33 -11 40 -11h142q11 0 14 -8q-32 -74 -32 -136q-30 -28 -30 -92
q-20 -172 -28 -172l-32 -30q-4 0 -4 4q5 157 5 198q0 45 -5 121q5 0 9 18v6q0 24 -64 42q-26 22 -26 32q5 28 10 28v0h1zM794 150q8 -2 8 -5v-150l-2 -4q-36 8 -36 20q-8 8 -38 15q-11 20 -27 20h-8l-14 -4q-16 0 -82 6q-184 -2 -292 -2h-202q-14 0 -21 20q56 22 444 48
q130 31 206 31q0 2 64 5v0v0v1v-1z" />
    <glyph glyph-name="Upsilon" unicode="&#x3a5;" horiz-adv-x="750" 
d="M474 760q33 -14 44 -14h146q3 0 6 -6v-2q-30 -71 -30 -133q-30 -32 -30 -86q-20 -169 -28 -180l-34 -32q-4 0 -4 4q8 169 8 199l-6 118q10 15 10 27q0 24 -64 42l-26 26v6q0 18 8 30v0v1zM92 670q28 -11 38 -11h150q16 0 17 -6v-4q-56 -134 -68 -142q-20 0 -36 -94h-4
q-32 8 -32 30q-2 76 -2 102l12 34v6q0 16 -62 28q-26 22 -26 27q0 32 12 32v0zM338 450q40 -30 40 -55q24 -224 37 -224q16 -14 16 -68q0 -10 26 -82v-3q-2 -6 -12 -6h-142q-6 0 -42 -12q-5 0 -8 32v2q18 28 73 44q16 12 16 24v5q-4 18 -10 18q6 95 6 122q0 70 -8 199l6 3v0
v1h2z" />
    <glyph glyph-name="Chi" unicode="&#x3a7;" horiz-adv-x="901" 
d="M184 676q10 0 97 -76v-6q-88 -78 -97 -78q-8 0 -96 76l-2 4q20 26 94 80h4v0zM676 672h4q9 0 117 -95q18 0 26 -28q-4 -16 -55 -42q-106 -77 -231 -174q-52 0 -112 -48q-179 -114 -189 -114q-2 4 -2 6q0 33 161 160q11 2 11 4l10 -2h22q16 0 22 24q83 60 174 150
q6 10 10 30q38 20 38 42v4q0 12 -20 44v2q1 34 13 38v0zM790 162q12 -4 12 -8v-150l-2 -4q-26 3 -46 27q-26 6 -38 21q0 6 -18 10h-2q-10 0 -20 -6q-56 6 -98 6h-36q-150 0 -440 -2q-20 8 -20 22q53 20 434 46q140 30 206 30q6 2 70 8v0v0v1z" />
    <glyph glyph-name="omicron" unicode="&#x3bf;" horiz-adv-x="911" 
d="M624 720q34 -12 46 -12h148q10 0 13 -7q-58 -136 -66 -142q-22 0 -36 -94l-4 -2q-32 6 -32 32q-2 26 -4 96q4 16 14 38q0 24 -56 31q-8 0 -34 30q5 32 10 32v0zM328 710q48 -4 80 -4h121q7 -2 7 -14v-12q0 -18 -26 -30q-28 -44 -55 -90q-7 -4 -46 -10l-2 4v32l-2 12
q6 26 12 32v10q0 16 -62 24q-24 7 -24 31q-4 0 -5 13v2h2zM522 454q10 0 112 -90q32 -16 32 -34q-2 -15 -62 -48l-222 -168q-51 0 -120 -53q-122 -78 -180 -110l-2 4q0 32 112 124q45 42 59 42q5 0 29 -2q20 0 27 24q90 68 170 144q6 8 15 36q37 20 37 44q0 18 -20 42v6
q0 38 14 38v0v0v1h-1z" />
    <glyph glyph-name="rho" unicode="&#x3c1;" horiz-adv-x="666" 
d="M374 724q40 -12 50 -12h148q11 0 14 -7q-61 -142 -65 -142q-24 0 -36 -94l-4 -2q-35 7 -35 33v18q0 28 -2 76q5 18 14 40q0 22 -64 30l-26 28l6 32v0zM84 714q42 -4 78 -4h120q8 -2 8 -18v-2q0 -30 -20 -30q-12 -12 -62 -99l-44 -8q-2 4 -2 6q0 16 -2 42q4 20 13 32v4
q0 22 -44 26q-40 7 -40 23q-4 16 -8 25l4 2zM210 388h6q70 -54 92 -76v-6q-85 -76 -96 -76h-2q-10 0 -96 74v8q86 76 96 76v0v0v1v-1z" />
    <glyph glyph-name="chi" unicode="&#x3c7;" horiz-adv-x="901" 
d="M184 676q10 0 97 -76v-6q-88 -78 -97 -78q-8 0 -96 76l-2 4q20 26 94 80h4v0zM676 672h4q9 0 117 -95q18 0 26 -28q-4 -16 -55 -42q-106 -77 -231 -174q-52 0 -112 -48q-179 -114 -189 -114q-2 4 -2 6q0 33 161 160q11 2 11 4l10 -2h22q16 0 22 24q83 60 174 150
q6 10 10 30q38 20 38 42v4q0 12 -20 44v2q1 34 13 38v0zM790 162q12 -4 12 -8v-150l-2 -4q-26 3 -46 27q-26 6 -38 21q0 6 -18 10h-2q-10 0 -20 -6q-56 6 -98 6h-36q-150 0 -440 -2q-20 8 -20 22q53 20 434 46q140 30 206 30q6 2 70 8v0v0v1z" />
    <glyph glyph-name="Upsilon1" unicode="&#x3d2;" horiz-adv-x="750" 
d="M474 760q33 -14 44 -14h146q3 0 6 -6v-2q-30 -71 -30 -133q-30 -32 -30 -86q-20 -169 -28 -180l-34 -32q-4 0 -4 4q8 169 8 199l-6 118q10 15 10 27q0 24 -64 42l-26 26v6q0 18 8 30v0v1zM92 670q28 -11 38 -11h150q16 0 17 -6v-4q-56 -134 -68 -142q-20 0 -36 -94h-4
q-32 8 -32 30q-2 76 -2 102l12 34v6q0 16 -62 28q-26 22 -26 27q0 32 12 32v0zM338 450q40 -30 40 -55q24 -224 37 -224q16 -14 16 -68q0 -10 26 -82v-3q-2 -6 -12 -6h-142q-6 0 -42 -12q-5 0 -8 32v2q18 28 73 44q16 12 16 24v5q-4 18 -10 18q6 95 6 122q0 70 -8 199l6 3v0
v1h2z" />
    <glyph glyph-name="uni03F1" unicode="&#x3f1;" horiz-adv-x="666" 
d="M374 724q40 -12 50 -12h148q11 0 14 -7q-61 -142 -65 -142q-24 0 -36 -94l-4 -2q-35 7 -35 33v18q0 28 -2 76q5 18 14 40q0 22 -64 30l-26 28l6 32v0zM84 714q42 -4 78 -4h120q8 -2 8 -18v-2q0 -30 -20 -30q-12 -12 -62 -99l-44 -8q-2 4 -2 6q0 16 -2 42q4 20 13 32v4
q0 22 -44 26q-40 7 -40 23q-4 16 -8 25l4 2zM210 388h6q70 -54 92 -76v-6q-85 -76 -96 -76h-2q-10 0 -96 74v8q86 76 96 76v0v0v1v-1z" />
    <glyph glyph-name="uni0405" unicode="&#x405;" horiz-adv-x="863" 
d="M284 726q32 -6 48 -6h72q10 0 30 2l6 -8q-8 -458 -21 -458q-10 -42 -30 -258q-2 -5 -20 -99h-2q-20 8 -20 30q0 93 -2 598l-6 106q2 17 2 27q0 16 -54 32q-8 30 -8 34l4 2zM590 706q20 -9 44 -13h144q6 0 6 -8q-31 -66 -31 -132q-28 -16 -38 -134q-12 -138 -28 -138
q-20 -24 -29 -24l-2 4l8 200q-6 93 -6 119q10 10 10 23q0 24 -66 44q-26 24 -26 28q4 32 12 32v0zM90 418q33 -14 51 -14h139q4 -1 4 -4v-2l-24 -75q-6 -70 -14 -70q-18 -16 -32 -148q-10 -114 -24 -114l-26 -24h-2l-4 2q6 89 8 199q0 20 -6 122q6 0 10 18v6q0 22 -64 42
l-26 26v2q0 26 10 32v0v0v1v1z" />
    <glyph glyph-name="uni0406" unicode="&#x406;" horiz-adv-x="924" 
d="M308 726q35 -6 49 -6h39q20 0 63 2q4 -10 6 -10q0 -4 -2 -22q-5 -442 -21 -442q-27 -250 -39 -298q-5 -46 -9 -50q-22 0 -22 54v256q0 366 -8 430q4 6 4 12q0 22 -55 40l-8 32l4 2h-1zM638 718q32 -12 40 -12h150q16 0 17 -5q0 -12 -64 -144q-25 0 -39 -96h-3
q-33 9 -33 25q-2 49 -2 77v28q0 13 12 31v4q0 24 -56 32q-7 0 -32 28v4q2 30 10 30v0v-2zM82 538q2 0 2 -2q43 -2 63 -2h126q11 0 14 -7v-22q0 -18 -19 -22q-18 -22 -60 -96q-32 -8 -46 -8l-2 4v46q0 12 12 32q0 24 -68 32q-16 0 -24 44q2 0 2 2v0v0v1v-2z" />
    <glyph glyph-name="uni0408" unicode="&#x408;" horiz-adv-x="806" 
d="M220 714h4q45 -42 63 -92q42 0 58 -38q76 -100 76 -118q0 -22 16 -30q42 -30 42 -58v-10q-58 22 -58 36q-42 62 -156 149q-22 10 -48 54q-8 4 -16 4h-26q-8 0 -50 -20q-8 0 -46 8v4q24 8 140 109v0zM604 562q42 -32 42 -62q24 -218 36 -218q16 -11 16 -61q3 -26 27 -90
q-7 -6 -15 -6h-136q-9 0 -49 -12q-6 26 -6 34q18 26 78 46q12 12 12 20v10q0 10 -10 18l2 8q2 66 6 106l-8 206l4 2zM148 402q35 -14 44 -14h146q3 0 6 -6v-4q-24 -54 -31 -135q-29 -30 -29 -88q-20 -160 -26 -172q-28 -28 -36 -33q0 4 -4 4q6 87 8 197q0 28 -6 124
q10 6 10 22v2q0 24 -66 44q-24 20 -24 30q0 14 7 32v0v0v1z" />
    <glyph glyph-name="uni0410" unicode="&#x410;" horiz-adv-x="911" 
d="M624 720q34 -12 40 -12h154q10 0 13 -7q-58 -138 -65 -143q-22 0 -36 -94l-4 -2q-34 7 -34 33v38q0 22 -2 58l14 38q0 20 -64 30q-26 26 -26 30q6 30 10 30v0v1zM292 608q7 0 96 -76v-8q-88 -76 -98 -76t-97 76v8q87 76 99 76v0v0zM520 454h2q23 -8 112 -91
q30 -12 30 -28q2 0 2 -2q-1 -18 -65 -53l-218 -166q-51 0 -120 -53q-122 -78 -180 -110l-2 4q0 34 124 134q32 32 48 32q24 -2 27 -2q20 0 27 24q87 66 175 149q7 34 29 46q18 8 18 28v2q0 16 -22 46q5 40 14 40v0v0v1z" />
    <glyph glyph-name="uni0412" unicode="&#x412;" horiz-adv-x="897" 
d="M814 718l4 -6v-150l-2 -4q-26 4 -40 22q0 8 -30 12q-18 24 -34 24q-5 0 -17 -6l-86 6q-352 -2 -491 -2q-16 0 -22 22q64 20 457 48q51 18 191 29q51 4 69 4v0zM520 454h2q23 -8 112 -91q30 -12 30 -28q2 0 2 -2q-1 -18 -65 -53l-218 -166q-51 0 -120 -53
q-122 -78 -180 -110l-2 4q0 34 124 134q32 32 48 32q24 -2 27 -2q24 4 24 22q100 80 154 130q32 28 32 52q39 22 39 46q0 16 -22 46q5 40 14 40v0zM660 166h12q90 -72 92 -78v-2q-3 -8 -93 -78h-12q-84 66 -91 76v6q7 10 91 76v0v0v1z" />
    <glyph glyph-name="uni0415" unicode="&#x415;" 
d="M798 718l4 -6v-150l-2 -4q-26 4 -39 22q0 8 -30 12q-18 24 -33 24q-6 0 -18 -6l-86 6q-352 -2 -491 -2q-16 0 -22 22q64 20 457 48q52 18 193 29q52 4 68 4v0zM538 454q10 0 112 -90q32 -16 32 -34q0 -14 -60 -46l-223 -170q-52 0 -120 -53q-150 -96 -180 -111l-2 4
q0 34 124 134q32 32 48 32q24 -2 27 -2q20 0 26 24q100 76 170 144q6 8 16 36q36 20 36 44q0 18 -22 44q4 42 15 42v0zM252 412q7 0 96 -76v-6q-87 -78 -98 -78h-2q-77 55 -97 80q26 30 96 79h4v0v1h1z" />
    <glyph glyph-name="uni041A" unicode="&#x41a;" 
d="M790 720q12 -4 12 -8v-150l-2 -4q-26 4 -46 28q-26 6 -37 21q0 6 -18 10q-10 0 -20 -6q-60 6 -103 6q-154 0 -474 -2q-20 7 -20 21q58 20 454 48q48 18 256 36v0h-2zM792 496q10 -2 10 -5v-150q0 -4 -4 -4q-36 7 -36 23q-10 6 -34 11q-18 22 -29 22h-8q-2 0 -16 -4
q-64 4 -88 4h-416q-26 0 -68 -2q-24 6 -24 21q64 22 449 49q127 30 208 30q0 1 55 5v0h1zM386 328q32 -13 50 -13h152q4 -1 4 -4v-4q-60 -143 -70 -144q-16 0 -32 -92h-2q-34 6 -34 28q-2 72 -2 104l12 34q0 24 -60 30q-28 25 -28 30q3 30 10 31v0v0v1v-1z" />
    <glyph glyph-name="uni041C" unicode="&#x41c;" horiz-adv-x="781" 
d="M84 726q35 -6 50 -6h70q11 0 27 2q6 0 10 -12l-2 -13q-6 -448 -22 -448q-6 -30 -28 -252l-20 -96h-2q-20 8 -20 28v76q0 192 -2 540q-5 85 -5 97l4 10q0 26 -56 40l-8 34l4 2v-2zM390 550q44 -28 44 -72q22 -208 36 -208q16 -16 16 -72q0 -7 26 -79v-2q-2 -6 -12 -6h-142
l-43 -11q-6 15 -6 29v4q16 27 74 44q16 12 16 23v4q0 7 -10 23l6 120q0 48 -8 200l4 2zM580 430q42 -32 42 -63q24 -219 38 -219q16 -14 16 -74l26 -74v-2q-2 -6 -12 -6h-142l-44 -12h-2q0 5 -6 31q14 28 60 42q32 10 32 34q0 7 -10 21q0 24 6 118q0 13 -8 203l4 2v0v1v-2z
" />
    <glyph glyph-name="uni041D" unicode="&#x41d;" horiz-adv-x="790" 
d="M552 726q35 -6 50 -6h38q20 0 63 2q4 -8 6 -8q-2 -28 -2 -31q-5 -430 -19 -430q-8 -45 -32 -271q-14 -72 -18 -82q-10 2 -21 16q-2 173 -2 264v246q0 134 -7 212q4 7 4 19q0 16 -56 35q0 6 -8 32l4 2v0zM170 618h8q12 0 96 -77v-6q-20 -20 -90 -75h-6q-11 0 -96 76v6
q10 14 90 78v0zM380 438q44 -28 44 -73q22 -206 33 -206q18 -16 18 -66q0 -17 26 -84v-4q-2 -6 -17 -6h-138q-6 0 -42 -12q-8 12 -8 30v3q16 26 78 46q12 14 12 30q0 6 -10 19l6 120q0 48 -8 200l4 2v0v1h2z" />
    <glyph glyph-name="uni041E" unicode="&#x41e;" horiz-adv-x="911" 
d="M624 720q34 -12 46 -12h148q10 0 13 -7q-58 -136 -66 -142q-22 0 -36 -94l-4 -2q-32 6 -32 32q-2 26 -4 96q4 16 14 38q0 24 -56 31q-8 0 -34 30q5 32 10 32v0zM328 710q48 -4 80 -4h121q7 -2 7 -14v-12q0 -18 -26 -30q-28 -44 -55 -90q-7 -4 -46 -10l-2 4v32l-2 12
q6 26 12 32v10q0 16 -62 24q-24 7 -24 31q-4 0 -5 13v2h2zM522 454q10 0 112 -90q32 -16 32 -34q-2 -15 -62 -48l-222 -168q-51 0 -120 -53q-122 -78 -180 -110l-2 4q0 32 112 124q45 42 59 42q5 0 29 -2q20 0 27 24q90 68 170 144q6 8 15 36q37 20 37 44q0 18 -20 42v6
q0 38 14 38v0v0v1h-1z" />
    <glyph glyph-name="uni0420" unicode="&#x420;" horiz-adv-x="666" 
d="M374 724q40 -12 50 -12h148q11 0 14 -7q-61 -142 -65 -142q-24 0 -36 -94l-4 -2q-35 7 -35 33v18q0 28 -2 76q5 18 14 40q0 22 -64 30l-26 28l6 32v0zM84 714q42 -4 78 -4h120q8 -2 8 -18v-2q0 -30 -20 -30q-12 -12 -62 -99l-44 -8q-2 4 -2 6q0 16 -2 42q4 20 13 32v4
q0 22 -44 26q-40 7 -40 23q-4 16 -8 25l4 2zM210 388h6q70 -54 92 -76v-6q-85 -76 -96 -76h-2q-10 0 -96 74v8q86 76 96 76v0v0v1v-1z" />
    <glyph glyph-name="uni0421" unicode="&#x421;" 
d="M790 720q12 -4 12 -8v-150l-2 -4q-26 4 -46 28q-26 6 -37 21q0 6 -18 10q-10 0 -20 -6q-60 6 -103 6q-154 0 -474 -2q-20 7 -20 21q58 20 454 48q48 18 256 36v0h-2zM792 496q10 -2 10 -5v-150q0 -4 -4 -4q-36 7 -36 23q-10 6 -34 11q-18 22 -29 22h-8q-2 0 -16 -4
q-64 4 -88 4h-416q-26 0 -68 -2q-24 6 -24 21q64 22 449 49q127 30 208 30q0 1 55 5v0h1zM386 328q32 -13 50 -13h152q4 -1 4 -4v-4q-60 -143 -70 -144q-16 0 -32 -92h-2q-34 6 -34 28q-2 72 -2 104l12 34q0 24 -60 30q-28 25 -28 30q3 30 10 31v0v0v1v-1z" />
    <glyph glyph-name="uni0422" unicode="&#x422;" 
d="M580 714q32 -13 50 -13h138q3 0 6 -6v-2q-30 -70 -30 -132q-32 -34 -32 -105q-20 -164 -28 -164l-30 -28h-2l-4 2q8 154 8 202l-6 120q6 0 9 22q0 26 -66 44l-24 26v4q1 30 9 30v0h2zM326 626q33 -11 40 -11h142q11 0 14 -8q-32 -74 -32 -136q-30 -28 -30 -92
q-20 -172 -28 -172l-32 -30q-4 0 -4 4q5 157 5 198q0 45 -5 121q5 0 9 18v6q0 24 -64 42q-26 22 -26 32q5 28 10 28v0h1zM794 150q8 -2 8 -5v-150l-2 -4q-36 8 -36 20q-8 8 -38 15q-11 20 -27 20h-8l-14 -4q-16 0 -82 6q-184 -2 -292 -2h-202q-14 0 -21 20q56 22 444 48
q130 31 206 31q0 2 64 5v0v0v1v-1z" />
    <glyph glyph-name="uni0425" unicode="&#x425;" horiz-adv-x="901" 
d="M184 676q10 0 97 -76v-6q-88 -78 -97 -78q-8 0 -96 76l-2 4q20 26 94 80h4v0zM676 672h4q9 0 117 -95q18 0 26 -28q-4 -16 -55 -42q-106 -77 -231 -174q-52 0 -112 -48q-179 -114 -189 -114q-2 4 -2 6q0 33 161 160q11 2 11 4l10 -2h22q16 0 22 24q83 60 174 150
q6 10 10 30q38 20 38 42v4q0 12 -20 44v2q1 34 13 38v0zM790 162q12 -4 12 -8v-150l-2 -4q-26 3 -46 27q-26 6 -38 21q0 6 -18 10h-2q-10 0 -20 -6q-56 6 -98 6h-36q-150 0 -440 -2q-20 8 -20 22q53 20 434 46q140 30 206 30q6 2 70 8v0v0v1z" />
    <glyph glyph-name="uni0430" unicode="&#x430;" horiz-adv-x="911" 
d="M624 720q34 -12 40 -12h154q10 0 13 -7q-58 -138 -65 -143q-22 0 -36 -94l-4 -2q-34 7 -34 33v38q0 22 -2 58l14 38q0 20 -64 30q-26 26 -26 30q6 30 10 30v0v1zM292 608q7 0 96 -76v-8q-88 -76 -98 -76t-97 76v8q87 76 99 76v0v0zM520 454h2q23 -8 112 -91
q30 -12 30 -28q2 0 2 -2q-1 -18 -65 -53l-218 -166q-51 0 -120 -53q-122 -78 -180 -110l-2 4q0 34 124 134q32 32 48 32q24 -2 27 -2q20 0 27 24q87 66 175 149q7 34 29 46q18 8 18 28v2q0 16 -22 46q5 40 14 40v0v0v1z" />
    <glyph glyph-name="uni0435" unicode="&#x435;" 
d="M798 718l4 -6v-150l-2 -4q-26 4 -39 22q0 8 -30 12q-18 24 -33 24q-6 0 -18 -6l-86 6q-352 -2 -491 -2q-16 0 -22 22q64 20 457 48q52 18 193 29q52 4 68 4v0zM538 454q10 0 112 -90q32 -16 32 -34q0 -14 -60 -46l-223 -170q-52 0 -120 -53q-150 -96 -180 -111l-2 4
q0 34 124 134q32 32 48 32q24 -2 27 -2q20 0 26 24q100 76 170 144q6 8 16 36q36 20 36 44q0 18 -22 44q4 42 15 42v0zM252 412q7 0 96 -76v-6q-87 -78 -98 -78h-2q-77 55 -97 80q26 30 96 79h4v0v1h1z" />
    <glyph glyph-name="uni043E" unicode="&#x43e;" horiz-adv-x="911" 
d="M624 720q34 -12 46 -12h148q10 0 13 -7q-58 -136 -66 -142q-22 0 -36 -94l-4 -2q-32 6 -32 32q-2 26 -4 96q4 16 14 38q0 24 -56 31q-8 0 -34 30q5 32 10 32v0zM328 710q48 -4 80 -4h121q7 -2 7 -14v-12q0 -18 -26 -30q-28 -44 -55 -90q-7 -4 -46 -10l-2 4v32l-2 12
q6 26 12 32v10q0 16 -62 24q-24 7 -24 31q-4 0 -5 13v2h2zM522 454q10 0 112 -90q32 -16 32 -34q-2 -15 -62 -48l-222 -168q-51 0 -120 -53q-122 -78 -180 -110l-2 4q0 32 112 124q45 42 59 42q5 0 29 -2q20 0 27 24q90 68 170 144q6 8 15 36q37 20 37 44q0 18 -20 42v6
q0 38 14 38v0v0v1h-1z" />
    <glyph glyph-name="uni0440" unicode="&#x440;" horiz-adv-x="666" 
d="M374 724q40 -12 50 -12h148q11 0 14 -7q-61 -142 -65 -142q-24 0 -36 -94l-4 -2q-35 7 -35 33v18q0 28 -2 76q5 18 14 40q0 22 -64 30l-26 28l6 32v0zM84 714q42 -4 78 -4h120q8 -2 8 -18v-2q0 -30 -20 -30q-12 -12 -62 -99l-44 -8q-2 4 -2 6q0 16 -2 42q4 20 13 32v4
q0 22 -44 26q-40 7 -40 23q-4 16 -8 25l4 2zM210 388h6q70 -54 92 -76v-6q-85 -76 -96 -76h-2q-10 0 -96 74v8q86 76 96 76v0v0v1v-1z" />
    <glyph glyph-name="uni0441" unicode="&#x441;" 
d="M790 720q12 -4 12 -8v-150l-2 -4q-26 4 -46 28q-26 6 -37 21q0 6 -18 10q-10 0 -20 -6q-60 6 -103 6q-154 0 -474 -2q-20 7 -20 21q58 20 454 48q48 18 256 36v0h-2zM792 496q10 -2 10 -5v-150q0 -4 -4 -4q-36 7 -36 23q-10 6 -34 11q-18 22 -29 22h-8q-2 0 -16 -4
q-64 4 -88 4h-416q-26 0 -68 -2q-24 6 -24 21q64 22 449 49q127 30 208 30q0 1 55 5v0h1zM386 328q32 -13 50 -13h152q4 -1 4 -4v-4q-60 -143 -70 -144q-16 0 -32 -92h-2q-34 6 -34 28q-2 72 -2 104l12 34q0 24 -60 30q-28 25 -28 30q3 30 10 31v0v0v1v-1z" />
    <glyph glyph-name="uni0443" unicode="&#x443;" horiz-adv-x="750" 
d="M474 760q33 -14 44 -14h146q3 0 6 -6v-2q-30 -71 -30 -133q-30 -32 -30 -86q-20 -169 -28 -180l-34 -32q-4 0 -4 4q8 169 8 199l-6 118q10 15 10 27q0 24 -64 42l-26 26v6q0 18 8 30v0v1zM92 670q28 -11 38 -11h150q16 0 17 -6v-4q-56 -134 -68 -142q-20 0 -36 -94h-4
q-32 8 -32 30q-2 76 -2 102l12 34v6q0 16 -62 28q-26 22 -26 27q0 32 12 32v0zM338 450q40 -30 40 -55q24 -224 37 -224q16 -14 16 -68q0 -10 26 -82v-3q-2 -6 -12 -6h-142q-6 0 -42 -12q-5 0 -8 32v2q18 28 73 44q16 12 16 24v5q-4 18 -10 18q6 95 6 122q0 70 -8 199l6 3v0
v1h2z" />
    <glyph glyph-name="uni0445" unicode="&#x445;" horiz-adv-x="901" 
d="M184 676q10 0 97 -76v-6q-88 -78 -97 -78q-8 0 -96 76l-2 4q20 26 94 80h4v0zM676 672h4q9 0 117 -95q18 0 26 -28q-4 -16 -55 -42q-106 -77 -231 -174q-52 0 -112 -48q-179 -114 -189 -114q-2 4 -2 6q0 33 161 160q11 2 11 4l10 -2h22q16 0 22 24q83 60 174 150
q6 10 10 30q38 20 38 42v4q0 12 -20 44v2q1 34 13 38v0zM790 162q12 -4 12 -8v-150l-2 -4q-26 3 -46 27q-26 6 -38 21q0 6 -18 10h-2q-10 0 -20 -6q-56 6 -98 6h-36q-150 0 -440 -2q-20 8 -20 22q53 20 434 46q140 30 206 30q6 2 70 8v0v0v1z" />
    <glyph glyph-name="uni0455" unicode="&#x455;" horiz-adv-x="863" 
d="M284 726q32 -6 48 -6h72q10 0 30 2l6 -8q-8 -458 -21 -458q-10 -42 -30 -258q-2 -5 -20 -99h-2q-20 8 -20 30q0 93 -2 598l-6 106q2 17 2 27q0 16 -54 32q-8 30 -8 34l4 2zM590 706q20 -9 44 -13h144q6 0 6 -8q-31 -66 -31 -132q-28 -16 -38 -134q-12 -138 -28 -138
q-20 -24 -29 -24l-2 4l8 200q-6 93 -6 119q10 10 10 23q0 24 -66 44q-26 24 -26 28q4 32 12 32v0zM90 418q33 -14 51 -14h139q4 -1 4 -4v-2l-24 -75q-6 -70 -14 -70q-18 -16 -32 -148q-10 -114 -24 -114l-26 -24h-2l-4 2q6 89 8 199q0 20 -6 122q6 0 10 18v6q0 22 -64 42
l-26 26v2q0 26 10 32v0v0v1v1z" />
    <glyph glyph-name="uni0456" unicode="&#x456;" horiz-adv-x="924" 
d="M308 726q35 -6 49 -6h39q20 0 63 2q4 -10 6 -10q0 -4 -2 -22q-5 -442 -21 -442q-27 -250 -39 -298q-5 -46 -9 -50q-22 0 -22 54v256q0 366 -8 430q4 6 4 12q0 22 -55 40l-8 32l4 2h-1zM638 718q32 -12 40 -12h150q16 0 17 -5q0 -12 -64 -144q-25 0 -39 -96h-3
q-33 9 -33 25q-2 49 -2 77v28q0 13 12 31v4q0 24 -56 32q-7 0 -32 28v4q2 30 10 30v0v-2zM82 538q2 0 2 -2q43 -2 63 -2h126q11 0 14 -7v-22q0 -18 -19 -22q-18 -22 -60 -96q-32 -8 -46 -8l-2 4v46q0 12 12 32q0 24 -68 32q-16 0 -24 44q2 0 2 2v0v0v1v-2z" />
    <glyph glyph-name="uni0458" unicode="&#x458;" horiz-adv-x="806" 
d="M220 714h4q45 -42 63 -92q42 0 58 -38q76 -100 76 -118q0 -22 16 -30q42 -30 42 -58v-10q-58 22 -58 36q-42 62 -156 149q-22 10 -48 54q-8 4 -16 4h-26q-8 0 -50 -20q-8 0 -46 8v4q24 8 140 109v0zM604 562q42 -32 42 -62q24 -218 36 -218q16 -11 16 -61q3 -26 27 -90
q-7 -6 -15 -6h-136q-9 0 -49 -12q-6 26 -6 34q18 26 78 46q12 12 12 20v10q0 10 -10 18l2 8q2 66 6 106l-8 206l4 2zM148 402q35 -14 44 -14h146q3 0 6 -6v-4q-24 -54 -31 -135q-29 -30 -29 -88q-20 -160 -26 -172q-28 -28 -36 -33q0 4 -4 4q6 87 8 197q0 28 -6 124
q10 6 10 22v2q0 24 -66 44q-24 20 -24 30q0 14 7 32v0v0v1z" />
    <glyph glyph-name="uni04AE" unicode="&#x4ae;" horiz-adv-x="750" 
d="M474 760q33 -14 44 -14h146q3 0 6 -6v-2q-30 -71 -30 -133q-30 -32 -30 -86q-20 -169 -28 -180l-34 -32q-4 0 -4 4q8 169 8 199l-6 118q10 15 10 27q0 24 -64 42l-26 26v6q0 18 8 30v0v1zM92 670q28 -11 38 -11h150q16 0 17 -6v-4q-56 -134 -68 -142q-20 0 -36 -94h-4
q-32 8 -32 30q-2 76 -2 102l12 34v6q0 16 -62 28q-26 22 -26 27q0 32 12 32v0zM338 450q40 -30 40 -55q24 -224 37 -224q16 -14 16 -68q0 -10 26 -82v-3q-2 -6 -12 -6h-142q-6 0 -42 -12q-5 0 -8 32v2q18 28 73 44q16 12 16 24v5q-4 18 -10 18q6 95 6 122q0 70 -8 199l6 3v0
v1h2z" />
    <glyph glyph-name="uni04C0" unicode="&#x4c0;" horiz-adv-x="924" 
d="M308 726q35 -6 49 -6h39q20 0 63 2q4 -10 6 -10q0 -4 -2 -22q-5 -442 -21 -442q-27 -250 -39 -298q-5 -46 -9 -50q-22 0 -22 54v256q0 366 -8 430q4 6 4 12q0 22 -55 40l-8 32l4 2h-1zM638 718q32 -12 40 -12h150q16 0 17 -5q0 -12 -64 -144q-25 0 -39 -96h-3
q-33 9 -33 25q-2 49 -2 77v28q0 13 12 31v4q0 24 -56 32q-7 0 -32 28v4q2 30 10 30v0v-2zM82 538q2 0 2 -2q43 -2 63 -2h126q11 0 14 -7v-22q0 -18 -19 -22q-18 -22 -60 -96q-32 -8 -46 -8l-2 4v46q0 12 12 32q0 24 -68 32q-16 0 -24 44q2 0 2 2v0v0v1v-2z" />
    <glyph glyph-name="uni054F" unicode="&#x54f;" horiz-adv-x="863" 
d="M284 726q32 -6 48 -6h72q10 0 30 2l6 -8q-8 -458 -21 -458q-10 -42 -30 -258q-2 -5 -20 -99h-2q-20 8 -20 30q0 93 -2 598l-6 106q2 17 2 27q0 16 -54 32q-8 30 -8 34l4 2zM590 706q20 -9 44 -13h144q6 0 6 -8q-31 -66 -31 -132q-28 -16 -38 -134q-12 -138 -28 -138
q-20 -24 -29 -24l-2 4l8 200q-6 93 -6 119q10 10 10 23q0 24 -66 44q-26 24 -26 28q4 32 12 32v0zM90 418q33 -14 51 -14h139q4 -1 4 -4v-2l-24 -75q-6 -70 -14 -70q-18 -16 -32 -148q-10 -114 -24 -114l-26 -24h-2l-4 2q6 89 8 199q0 20 -6 122q6 0 10 18v6q0 22 -64 42
l-26 26v2q0 26 10 32v0v0v1v1z" />
    <glyph glyph-name="uni0555" unicode="&#x555;" horiz-adv-x="911" 
d="M624 720q34 -12 46 -12h148q10 0 13 -7q-58 -136 -66 -142q-22 0 -36 -94l-4 -2q-32 6 -32 32q-2 26 -4 96q4 16 14 38q0 24 -56 31q-8 0 -34 30q5 32 10 32v0zM328 710q48 -4 80 -4h121q7 -2 7 -14v-12q0 -18 -26 -30q-28 -44 -55 -90q-7 -4 -46 -10l-2 4v32l-2 12
q6 26 12 32v10q0 16 -62 24q-24 7 -24 31q-4 0 -5 13v2h2zM522 454q10 0 112 -90q32 -16 32 -34q-2 -15 -62 -48l-222 -168q-51 0 -120 -53q-122 -78 -180 -110l-2 4q0 32 112 124q45 42 59 42q5 0 29 -2q20 0 27 24q90 68 170 144q6 8 15 36q37 20 37 44q0 18 -20 42v6
q0 38 14 38v0v0v1h-1z" />
    <glyph glyph-name="uni0570" unicode="&#x570;" horiz-adv-x="790" 
d="M552 726q35 -6 50 -6h38q20 0 63 2q4 -8 6 -8q-2 -28 -2 -31q-5 -430 -19 -430q-8 -45 -32 -271q-14 -72 -18 -82q-10 2 -21 16q-2 173 -2 264v246q0 134 -7 212q4 7 4 19q0 16 -56 35q0 6 -8 32l4 2v0zM170 618h8q12 0 96 -77v-6q-20 -20 -90 -75h-6q-11 0 -96 76v6
q10 14 90 78v0zM380 438q44 -28 44 -73q22 -206 33 -206q18 -16 18 -66q0 -17 26 -84v-4q-2 -6 -17 -6h-138q-6 0 -42 -12q-8 12 -8 30v3q16 26 78 46q12 14 12 30q0 6 -10 19l6 120q0 48 -8 200l4 2v0v1h2z" />
    <glyph glyph-name="uni0578" unicode="&#x578;" horiz-adv-x="884" 
d="M462 723h6q76 -60 92 -76v-6q-76 -68 -96 -78q-10 0 -98 76v8q86 76 96 76v0v0zM792 360q8 -2 12 -8l-2 -14v-134q0 -4 -4 -4q-20 0 -42 27q-36 8 -36 19q-14 10 -21 10h-5q-8 0 -16 -6q-44 6 -92 6h-282q-72 0 -202 -2q-14 0 -22 22q68 22 452 48q60 18 189 30
q11 0 71 6v0v0zM794 135q8 -3 8 -6v-150l-2 -3q-22 0 -48 30q-24 0 -38 22q-3 0 -8 4h-14l-14 -4q-16 0 -82 6q-184 -2 -292 -2h-202q-14 0 -22 20q0 6 122 22q396 29 396 44q114 12 196 18v0v0v1v-2z" />
    <glyph glyph-name="uni057D" unicode="&#x57d;" horiz-adv-x="850" 
d="M390 740q34 -14 44 -14h146q3 0 6 -6v-4q-30 -71 -30 -133q-32 -32 -32 -106q-20 -158 -28 -158q-18 -22 -33 -34q0 4 -4 4q6 87 8 199q0 26 -6 122q10 6 10 22v2q0 24 -66 44q-24 22 -24 25v2q0 18 8 34v0zM610 726q30 -6 46 -6h104q2 0 8 -8q0 -4 -2 -22
q-7 -436 -17 -436q-24 -230 -52 -355h-2q-18 0 -20 35v234q0 410 -8 470q4 8 4 14q0 22 -56 38q0 3 -7 34q2 0 2 2v0v0zM164 704q40 -37 40 -55q24 -224 35 -224q14 -16 14 -32q1 -49 29 -119v-2q0 -3 -6 -7h-146q-10 0 -44 -14q-5 0 -8 32v4q15 27 75 45q14 14 14 24v4
q0 6 -10 22l6 118q0 42 -8 201l6 4v0v1z" />
    <glyph glyph-name="uni0584" unicode="&#x584;" horiz-adv-x="823" 
d="M586 726q35 -6 51 -6h40q20 0 60 2l7 -12l-2 -13q-6 -446 -21 -446l-32 -274l-16 -77h-2q-20 8 -20 28v4q0 236 -2 606l-6 98q1 16 4 16q0 24 -56 38l-8 34l4 2h-1zM372 610q34 -14 44 -14h156q3 0 6 -6v-2q-44 -104 -66 -141q-24 0 -34 -94h-4q-34 0 -34 40q-2 24 -2 72
v12q0 14 11 42q0 22 -58 30q-5 0 -31 28v1q0 26 10 32v0h2zM86 400h2l44 -12h146q3 0 8 -8q-32 -74 -32 -136q-26 -14 -34 -122q-16 -144 -26 -144l-30 -28q-4 0 -4 4l8 202q-6 72 -6 121q5 0 8 16v8q0 22 -66 42l-24 26q0 5 6 33v0v0v1v-3z" />
    <glyph glyph-name="uni0585" unicode="&#x585;" horiz-adv-x="911" 
d="M624 720q34 -12 46 -12h148q10 0 13 -7q-58 -136 -66 -142q-22 0 -36 -94l-4 -2q-32 6 -32 32q-2 26 -4 96q4 16 14 38q0 24 -56 31q-8 0 -34 30q5 32 10 32v0zM328 710q48 -4 80 -4h121q7 -2 7 -14v-12q0 -18 -26 -30q-28 -44 -55 -90q-7 -4 -46 -10l-2 4v32l-2 12
q6 26 12 32v10q0 16 -62 24q-24 7 -24 31q-4 0 -5 13v2h2zM522 454q10 0 112 -90q32 -16 32 -34q-2 -15 -62 -48l-222 -168q-51 0 -120 -53q-122 -78 -180 -110l-2 4q0 32 112 124q45 42 59 42q5 0 29 -2q20 0 27 24q90 68 170 144q6 8 15 36q37 20 37 44q0 18 -20 42v6
q0 38 14 38v0v0v1h-1z" />
    <glyph glyph-name="uni066A" unicode="&#x66a;" horiz-adv-x="789" 
d="M95 729l108 1q3 0 4 -8q1 -3 1 -6q0 -4 -1 -6q-8 -370 -13 -394q-6 -26 -14 -109q-13 -129 -25 -171l-13 -75q-20 4 -20 22l-2 576q-1 14 -7 96q4 7 4 12q0 14 -20 24q-14 8 -30 11q-3 4 -10 34l38 -6v-1zM264 45q22 24 28 25l32 12q18 5 23 19q2 5 2 9q0 12 -9 22l6 104
v18q0 54 -8 173v1q0 6 3 6q1 0 3 -2q31 -28 33 -35q2 -10 24 -187q1 -4 25 -54q5 -54 7 -64q3 -9 21 -54q2 -4 2 -6q0 -6 -9 -6h-135q-6 0 -40 -12q-6 18 -6 28q0 3 1 5v0zM553 469q35 -14 41 -14h136q8 0 8 -6q0 -2 -1 -5q-18 -45 -20 -55q-4 -9 -9 -63q-24 -49 -25 -54
q-20 -178 -23 -186q-2 -8 -33 -37q-2 -1 -3 -1q-2 0 -2 5v2q7 114 7 169v21l-6 104q10 10 10 21q0 4 -2 9q-6 14 -24 20l-30 12q-7 1 -29 23q-1 2 -1 6q0 9 6 29v0v0v1v-1z" />
    <glyph glyph-name="uni066C" unicode="&#x66c;" horiz-adv-x="587" 
d="M266 446q42 -32 42 -62q24 -218 36 -218q16 -12 16 -61q2 -26 28 -92q-7 -6 -15 -6h-141q-6 0 -42 -12q-8 18 -8 34q16 26 78 46q12 11 15 25q-10 26 -10 27q0 35 6 111l-8 205l4 1v0v1z" />
    <glyph glyph-name="uni13A0" unicode="&#x13a0;" horiz-adv-x="896" 
d="M84 726q35 -6 50 -6h38q20 0 63 2q5 -10 6 -10q-2 -20 -2 -23q-7 -446 -17 -446q-24 -234 -52 -342q-7 0 -21 16q-2 72 -2 104v265q0 287 -7 353q4 7 4 19q0 16 -56 35l-8 32l4 2v-1zM620 726q33 -14 50 -14h140q3 0 6 -6l-24 -74q-4 -74 -18 -74q-14 -20 -28 -128
q-12 -86 -27 -86q-18 -22 -23 -22q0 4 -4 4q8 114 8 155q0 17 -6 117q6 0 10 20v3q0 24 -66 44q-24 24 -24 27v2q0 17 7 31v0zM468 710q9 0 96 -76v-8q-88 -76 -96 -76q-12 0 -98 78v6q88 76 98 76v0v0v1v-1z" />
    <glyph glyph-name="uni13A1" unicode="&#x13a1;" horiz-adv-x="836" 
d="M80 726h2q34 -6 50 -6h72q10 0 30 2l6 -8q-7 -458 -19 -458q-8 -22 -30 -256l-20 -100h-2q-20 10 -20 22q-2 476 -2 596q0 16 -5 116l2 24q0 13 -52 31q-10 20 -10 36v0zM560 674q33 -14 44 -14h140q12 -1 12 -6l-24 -75q-6 -62 -10 -65q-24 -14 -36 -160
q-12 -100 -18 -100q-16 -18 -34 -32q0 4 -4 4q8 152 8 200l-6 118q10 16 10 24v4q0 24 -64 42l-26 26v4q0 20 8 32v0v-2zM306 432q40 -4 76 -4h124q6 -2 6 -12v-19q0 -12 -26 -24q-54 -92 -56 -92q-38 -7 -44 -7l-2 4v45q0 7 12 37q0 20 -64 28q-24 6 -24 32q-3 0 -4 12
q2 0 2 2v0v0v1v-3z" />
    <glyph glyph-name="uni13A2" unicode="&#x13a2;" 
d="M580 714q32 -13 50 -13h138q3 0 6 -6v-2q-30 -70 -30 -132q-32 -34 -32 -105q-20 -164 -28 -164l-30 -28h-2l-4 2q8 154 8 202l-6 120q6 0 9 22q0 26 -66 44l-24 26v4q1 30 9 30v0h2zM326 626q33 -11 40 -11h142q11 0 14 -8q-32 -74 -32 -136q-30 -28 -30 -92
q-20 -172 -28 -172l-32 -30q-4 0 -4 4q5 157 5 198q0 45 -5 121q5 0 9 18v6q0 24 -64 42q-26 22 -26 32q5 28 10 28v0h1zM794 150q8 -2 8 -5v-150l-2 -4q-36 8 -36 20q-8 8 -38 15q-11 20 -27 20h-8l-14 -4q-16 0 -82 6q-184 -2 -292 -2h-202q-14 0 -21 20q56 22 444 48
q130 31 206 31q0 2 64 5v0v0v1v-1z" />
    <glyph glyph-name="uni13AA" unicode="&#x13aa;" horiz-adv-x="911" 
d="M624 720q34 -12 40 -12h154q10 0 13 -7q-58 -138 -65 -143q-22 0 -36 -94l-4 -2q-34 7 -34 33v38q0 22 -2 58l14 38q0 20 -64 30q-26 26 -26 30q6 30 10 30v0v1zM292 608q7 0 96 -76v-8q-88 -76 -98 -76t-97 76v8q87 76 99 76v0v0zM520 454h2q23 -8 112 -91
q30 -12 30 -28q2 0 2 -2q-1 -18 -65 -53l-218 -166q-51 0 -120 -53q-122 -78 -180 -110l-2 4q0 34 124 134q32 32 48 32q24 -2 27 -2q20 0 27 24q87 66 175 149q7 34 29 46q18 8 18 28v2q0 16 -22 46q5 40 14 40v0v0v1z" />
    <glyph glyph-name="uni13AB" unicode="&#x13ab;" horiz-adv-x="806" 
d="M220 714h4q45 -42 63 -92q42 0 58 -38q76 -100 76 -118q0 -22 16 -30q42 -30 42 -58v-10q-58 22 -58 36q-42 62 -156 149q-22 10 -48 54q-8 4 -16 4h-26q-8 0 -50 -20q-8 0 -46 8v4q24 8 140 109v0zM604 562q42 -32 42 -62q24 -218 36 -218q16 -11 16 -61q3 -26 27 -90
q-7 -6 -15 -6h-136q-9 0 -49 -12q-6 26 -6 34q18 26 78 46q12 12 12 20v10q0 10 -10 18l2 8q2 66 6 106l-8 206l4 2zM148 402q35 -14 44 -14h146q3 0 6 -6v-4q-24 -54 -31 -135q-29 -30 -29 -88q-20 -160 -26 -172q-28 -28 -36 -33q0 4 -4 4q6 87 8 197q0 28 -6 124
q10 6 10 22v2q0 24 -66 44q-24 20 -24 30q0 14 7 32v0v0v1z" />
    <glyph glyph-name="uni13AC" unicode="&#x13ac;" 
d="M798 718l4 -6v-150l-2 -4q-26 4 -39 22q0 8 -30 12q-18 24 -33 24q-6 0 -18 -6l-86 6q-352 -2 -491 -2q-16 0 -22 22q64 20 457 48q52 18 193 29q52 4 68 4v0zM538 454q10 0 112 -90q32 -16 32 -34q0 -14 -60 -46l-223 -170q-52 0 -120 -53q-150 -96 -180 -111l-2 4
q0 34 124 134q32 32 48 32q24 -2 27 -2q20 0 26 24q100 76 170 144q6 8 16 36q36 20 36 44q0 18 -22 44q4 42 15 42v0zM252 412q7 0 96 -76v-6q-87 -78 -98 -78h-2q-77 55 -97 80q26 30 96 79h4v0v1h1z" />
    <glyph glyph-name="uni13B3" unicode="&#x13b3;" 
d="M594 636q44 -4 84 -4h114q6 -2 6 -12v-16q0 -18 -24 -27l-56 -91q-8 -4 -47 -10l-2 4v46q0 9 12 35q0 20 -64 28q-24 7 -24 31q-4 0 -4 12l4 2zM348 570h6q40 -35 64 -90q48 -10 48 -24q86 -118 86 -128q2 -12 2 -26q56 -34 56 -67v-6q0 -4 -4 -4q-55 24 -65 52
q-72 82 -142 129q-34 24 -52 60q-24 4 -29 4q-24 0 -63 -22l-46 7v2q39 23 138 113v0h1zM788 160q14 -3 14 -8v-152h-4q-22 0 -42 24q-28 10 -34 15q0 10 -24 18h-2q-10 0 -20 -6q-56 6 -98 6h-36q-150 0 -440 -2q-20 8 -20 22v2q70 18 452 46q56 18 212 31q20 0 44 4v0v0v1
z" />
    <glyph glyph-name="uni13B7" unicode="&#x13b7;" horiz-adv-x="781" 
d="M84 726q35 -6 50 -6h70q11 0 27 2q6 0 10 -12l-2 -13q-6 -448 -22 -448q-6 -30 -28 -252l-20 -96h-2q-20 8 -20 28v76q0 192 -2 540q-5 85 -5 97l4 10q0 26 -56 40l-8 34l4 2v-2zM390 550q44 -28 44 -72q22 -208 36 -208q16 -16 16 -72q0 -7 26 -79v-2q-2 -6 -12 -6h-142
l-43 -11q-6 15 -6 29v4q16 27 74 44q16 12 16 23v4q0 7 -10 23l6 120q0 48 -8 200l4 2zM580 430q42 -32 42 -63q24 -219 38 -219q16 -14 16 -74l26 -74v-2q-2 -6 -12 -6h-142l-44 -12h-2q0 5 -6 31q14 28 60 42q32 10 32 34q0 7 -10 21q0 24 6 118q0 13 -8 203l4 2v0v1v-2z
" />
    <glyph glyph-name="uni13BB" unicode="&#x13bb;" horiz-adv-x="790" 
d="M552 726q35 -6 50 -6h38q20 0 63 2q4 -8 6 -8q-2 -28 -2 -31q-5 -430 -19 -430q-8 -45 -32 -271q-14 -72 -18 -82q-10 2 -21 16q-2 173 -2 264v246q0 134 -7 212q4 7 4 19q0 16 -56 35q0 6 -8 32l4 2v0zM170 618h8q12 0 96 -77v-6q-20 -20 -90 -75h-6q-11 0 -96 76v6
q10 14 90 78v0zM380 438q44 -28 44 -73q22 -206 33 -206q18 -16 18 -66q0 -17 26 -84v-4q-2 -6 -17 -6h-138q-6 0 -42 -12q-8 12 -8 30v3q16 26 78 46q12 14 12 30q0 6 -10 19l6 120q0 48 -8 200l4 2v0v1h2z" />
    <glyph glyph-name="uni13C0" unicode="&#x13c0;" horiz-adv-x="920" 
d="M390 728q30 -14 48 -14h139q8 -4 8 -9q-32 -68 -32 -132q-28 -33 -28 -73q-24 -145 -32 -145l-32 -31q-4 0 -4 4q6 130 8 157l-8 116q6 0 10 18v7q0 24 -62 40q-28 24 -28 30q0 20 10 32v0h3zM696 454q24 -9 74 -57q35 -32 63 -50q6 -8 6 -16q0 -15 -59 -46l-224 -170
q-49 0 -113 -48q-138 -89 -188 -115l-2 4v2q2 32 124 132q34 32 48 32q24 -2 27 -2q20 0 30 26q89 68 174 150q5 30 19 38q26 13 26 31v7q0 16 -20 40v8q3 36 15 36v0v-2zM178 160q8 0 97 -78q0 -12 -47 -46q-41 -36 -51 -36q-9 0 -92 70q-5 0 -6 10q22 26 94 78l4 2v0v1z
" />
    <glyph glyph-name="uni13C2" unicode="&#x13c2;" horiz-adv-x="790" 
d="M552 726q35 -6 50 -6h38q20 0 63 2q4 -8 6 -8q-2 -28 -2 -31q-5 -430 -19 -430q-8 -45 -32 -271q-14 -72 -18 -82q-10 2 -21 16q-2 173 -2 264v246q0 134 -7 212q4 7 4 19q0 16 -56 35q0 6 -8 32l4 2v0zM170 618h8q12 0 96 -77v-6q-20 -20 -90 -75h-6q-11 0 -96 76v6
q10 14 90 78v0zM380 438q44 -28 44 -73q22 -206 33 -206q18 -16 18 -66q0 -17 26 -84v-4q-2 -6 -17 -6h-138q-6 0 -42 -12q-8 12 -8 30v3q16 26 78 46q12 14 12 30q0 6 -10 19l6 120q0 48 -8 200l4 2v0v1h2z" />
    <glyph glyph-name="uni13C3" unicode="&#x13c3;" horiz-adv-x="901" 
d="M624 740q35 -14 44 -14h146q3 0 9 -8q-26 -48 -35 -138q-16 0 -29 -89q-16 -176 -30 -176q-24 -24 -32 -24q5 168 5 200q0 40 -5 122q5 0 9 18v8q0 22 -58 38q-14 9 -32 29q0 18 8 34v0v0zM86 738h2q39 -12 50 -12h140q3 0 8 -8q-30 -66 -30 -130q-34 -40 -34 -116
q-18 -154 -26 -154l-32 -31q-4 0 -4 4l8 202q-6 78 -6 121q4 0 10 20q0 26 -68 46l-24 26q0 5 6 33v0v-1zM366 726q32 -6 48 -6h106q1 0 7 -6q-10 -458 -21 -458q-10 -34 -32 -266q-16 -82 -20 -90h-2q-5 0 -17 16q-2 232 -2 355v220q0 56 -8 148q4 6 4 12v2q0 24 -48 34
q-8 0 -17 38q2 0 2 2v0v0v1v-2z" />
    <glyph glyph-name="uni13D9" unicode="&#x13d9;" horiz-adv-x="987" 
d="M222 733q46 -38 66 -90l44 -16q90 -131 90 -136q1 -36 19 -36q42 -32 42 -67l-4 -2q-60 28 -60 44q-52 68 -136 130q-38 24 -64 68q-18 4 -26 4q-28 0 -63 -22q-48 7 -48 11q22 7 142 113v0zM758 673h2q28 -16 98 -80q44 -30 46 -40v-4q0 -16 -56 -44q-102 -76 -228 -174
q-52 0 -100 -40q-160 -102 -200 -122l-2 4v2q0 33 154 155q6 6 18 9q14 -2 22 -2h6q20 0 25 24q85 62 177 152q5 28 21 38q26 13 26 29v6q0 16 -22 44q0 24 14 42v0zM702 154q47 -4 86 -4h112q8 -1 8 -19q0 -24 -18 -29q-6 0 -63 -96q-10 -4 -44 -10l-2 4q-2 35 -2 44
q0 6 12 38q0 20 -62 27q-22 6 -22 22q-2 0 -7 22l3 2v0v1z" />
    <glyph glyph-name="uni13DA" unicode="&#x13da;" horiz-adv-x="863" 
d="M284 726q32 -6 48 -6h72q10 0 30 2l6 -8q-8 -458 -21 -458q-10 -42 -30 -258q-2 -5 -20 -99h-2q-20 8 -20 30q0 93 -2 598l-6 106q2 17 2 27q0 16 -54 32q-8 30 -8 34l4 2zM590 706q20 -9 44 -13h144q6 0 6 -8q-31 -66 -31 -132q-28 -16 -38 -134q-12 -138 -28 -138
q-20 -24 -29 -24l-2 4l8 200q-6 93 -6 119q10 10 10 23q0 24 -66 44q-26 24 -26 28q4 32 12 32v0zM90 418q33 -14 51 -14h139q4 -1 4 -4v-2l-24 -75q-6 -70 -14 -70q-18 -16 -32 -148q-10 -114 -24 -114l-26 -24h-2l-4 2q6 89 8 199q0 20 -6 122q6 0 10 18v6q0 22 -64 42
l-26 26v2q0 26 10 32v0v0v1v1z" />
    <glyph glyph-name="uni13DE" unicode="&#x13de;" horiz-adv-x="922" 
d="M586 736q10 0 112 -92q32 -16 32 -30v-4q0 -16 -60 -46l-222 -170q-49 0 -101 -40q-186 -122 -200 -122h-1v2q0 30 120 128q38 37 50 37h7q10 0 23 -2q26 4 26 24q94 70 174 151q6 5 10 29q40 24 40 44q0 16 -22 48v2q6 40 14 40v0zM698 454q9 0 111 -90q28 -16 31 -32
q-1 -18 -65 -53l-218 -166q-52 0 -120 -53q-132 -83 -181 -111l-2 4q0 32 112 124q45 42 59 42q28 -2 31 -2q16 0 26 28q72 50 172 146q7 34 27 44q20 9 20 31q0 16 -22 46q4 40 16 40v0zM178 182q10 0 98 -78q0 -12 -47 -46q-41 -37 -51 -37q-12 0 -96 77l-2 4q6 11 92 77
q2 0 6 2v0v0v1v0z" />
    <glyph glyph-name="uni13DF" unicode="&#x13df;" 
d="M790 720q12 -4 12 -8v-150l-2 -4q-26 4 -46 28q-26 6 -37 21q0 6 -18 10q-10 0 -20 -6q-60 6 -103 6q-154 0 -474 -2q-20 7 -20 21q58 20 454 48q48 18 256 36v0h-2zM792 496q10 -2 10 -5v-150q0 -4 -4 -4q-36 7 -36 23q-10 6 -34 11q-18 22 -29 22h-8q-2 0 -16 -4
q-64 4 -88 4h-416q-26 0 -68 -2q-24 6 -24 21q64 22 449 49q127 30 208 30q0 1 55 5v0h1zM386 328q32 -13 50 -13h152q4 -1 4 -4v-4q-60 -143 -70 -144q-16 0 -32 -92h-2q-34 6 -34 28q-2 72 -2 104l12 34q0 24 -60 30q-28 25 -28 30q3 30 10 31v0v0v1v-1z" />
    <glyph glyph-name="uni13E2" unicode="&#x13e2;" horiz-adv-x="666" 
d="M374 724q40 -12 50 -12h148q11 0 14 -7q-61 -142 -65 -142q-24 0 -36 -94l-4 -2q-35 7 -35 33v18q0 28 -2 76q5 18 14 40q0 22 -64 30l-26 28l6 32v0zM84 714q42 -4 78 -4h120q8 -2 8 -18v-2q0 -30 -20 -30q-12 -12 -62 -99l-44 -8q-2 4 -2 6q0 16 -2 42q4 20 13 32v4
q0 22 -44 26q-40 7 -40 23q-4 16 -8 25l4 2zM210 388h6q70 -54 92 -76v-6q-85 -76 -96 -76h-2q-10 0 -96 74v8q86 76 96 76v0v0v1v-1z" />
    <glyph glyph-name="uni13E6" unicode="&#x13e6;" 
d="M790 720q12 -4 12 -8v-150l-2 -4q-26 4 -46 28q-26 6 -37 21q0 6 -18 10q-10 0 -20 -6q-60 6 -103 6q-154 0 -474 -2q-20 7 -20 21q58 20 454 48q48 18 256 36v0h-2zM792 496q10 -2 10 -5v-150q0 -4 -4 -4q-36 7 -36 23q-10 6 -34 11q-18 22 -29 22h-8q-2 0 -16 -4
q-64 4 -88 4h-416q-26 0 -68 -2q-24 6 -24 21q64 22 449 49q127 30 208 30q0 1 55 5v0h1zM386 328q32 -13 50 -13h152q4 -1 4 -4v-4q-60 -143 -70 -144q-16 0 -32 -92h-2q-34 6 -34 28q-2 72 -2 104l12 34q0 24 -60 30q-28 25 -28 30q3 30 10 31v0v0v1v-1z" />
    <glyph glyph-name="uni13F4" unicode="&#x13f4;" horiz-adv-x="897" 
d="M814 718l4 -6v-150l-2 -4q-26 4 -40 22q0 8 -30 12q-18 24 -34 24q-5 0 -17 -6l-86 6q-352 -2 -491 -2q-16 0 -22 22q64 20 457 48q51 18 191 29q51 4 69 4v0zM520 454h2q23 -8 112 -91q30 -12 30 -28q2 0 2 -2q-1 -18 -65 -53l-218 -166q-51 0 -120 -53
q-122 -78 -180 -110l-2 4q0 34 124 134q32 32 48 32q24 -2 27 -2q24 4 24 22q100 80 154 130q32 28 32 52q39 22 39 46q0 16 -22 46q5 40 14 40v0zM660 166h12q90 -72 92 -78v-2q-3 -8 -93 -78h-12q-84 66 -91 76v6q7 10 91 76v0v0v1z" />
    <glyph glyph-name="uni1D2C" unicode="&#x1d2c;" horiz-adv-x="911" 
d="M624 720q34 -12 40 -12h154q10 0 13 -7q-58 -138 -65 -143q-22 0 -36 -94l-4 -2q-34 7 -34 33v38q0 22 -2 58l14 38q0 20 -64 30q-26 26 -26 30q6 30 10 30v0v1zM292 608q7 0 96 -76v-8q-88 -76 -98 -76t-97 76v8q87 76 99 76v0v0zM520 454h2q23 -8 112 -91
q30 -12 30 -28q2 0 2 -2q-1 -18 -65 -53l-218 -166q-51 0 -120 -53q-122 -78 -180 -110l-2 4q0 34 124 134q32 32 48 32q24 -2 27 -2q20 0 27 24q87 66 175 149q7 34 29 46q18 8 18 28v2q0 16 -22 46q5 40 14 40v0v0v1z" />
    <glyph glyph-name="uni1D2E" unicode="&#x1d2e;" horiz-adv-x="897" 
d="M814 718l4 -6v-150l-2 -4q-26 4 -40 22q0 8 -30 12q-18 24 -34 24q-5 0 -17 -6l-86 6q-352 -2 -491 -2q-16 0 -22 22q64 20 457 48q51 18 191 29q51 4 69 4v0zM520 454h2q23 -8 112 -91q30 -12 30 -28q2 0 2 -2q-1 -18 -65 -53l-218 -166q-51 0 -120 -53
q-122 -78 -180 -110l-2 4q0 34 124 134q32 32 48 32q24 -2 27 -2q24 4 24 22q100 80 154 130q32 28 32 52q39 22 39 46q0 16 -22 46q5 40 14 40v0zM660 166h12q90 -72 92 -78v-2q-3 -8 -93 -78h-12q-84 66 -91 76v6q7 10 91 76v0v0v1z" />
    <glyph glyph-name="uni1D30" unicode="&#x1d30;" horiz-adv-x="896" 
d="M84 726q35 -6 50 -6h38q20 0 63 2q5 -10 6 -10q-2 -20 -2 -23q-7 -446 -17 -446q-24 -234 -52 -342q-7 0 -21 16q-2 72 -2 104v265q0 287 -7 353q4 7 4 19q0 16 -56 35l-8 32l4 2v-1zM620 726q33 -14 50 -14h140q3 0 6 -6l-24 -74q-4 -74 -18 -74q-14 -20 -28 -128
q-12 -86 -27 -86q-18 -22 -23 -22q0 4 -4 4q8 114 8 155q0 17 -6 117q6 0 10 20v3q0 24 -66 44q-24 24 -24 27v2q0 17 7 31v0zM468 710q9 0 96 -76v-8q-88 -76 -96 -76q-12 0 -98 78v6q88 76 98 76v0v0v1v-1z" />
    <glyph glyph-name="uni1D31" unicode="&#x1d31;" 
d="M798 718l4 -6v-150l-2 -4q-26 4 -39 22q0 8 -30 12q-18 24 -33 24q-6 0 -18 -6l-86 6q-352 -2 -491 -2q-16 0 -22 22q64 20 457 48q52 18 193 29q52 4 68 4v0zM538 454q10 0 112 -90q32 -16 32 -34q0 -14 -60 -46l-223 -170q-52 0 -120 -53q-150 -96 -180 -111l-2 4
q0 34 124 134q32 32 48 32q24 -2 27 -2q20 0 26 24q100 76 170 144q6 8 16 36q36 20 36 44q0 18 -22 44q4 42 15 42v0zM252 412q7 0 96 -76v-6q-87 -78 -98 -78h-2q-77 55 -97 80q26 30 96 79h4v0v1h1z" />
    <glyph glyph-name="uni1D33" unicode="&#x1d33;" horiz-adv-x="920" 
d="M390 728q30 -14 48 -14h139q8 -4 8 -9q-32 -68 -32 -132q-28 -33 -28 -73q-24 -145 -32 -145l-32 -31q-4 0 -4 4q6 130 8 157l-8 116q6 0 10 18v7q0 24 -62 40q-28 24 -28 30q0 20 10 32v0h3zM696 454q24 -9 74 -57q35 -32 63 -50q6 -8 6 -16q0 -15 -59 -46l-224 -170
q-49 0 -113 -48q-138 -89 -188 -115l-2 4v2q2 32 124 132q34 32 48 32q24 -2 27 -2q20 0 30 26q89 68 174 150q5 30 19 38q26 13 26 31v7q0 16 -20 40v8q3 36 15 36v0v-2zM178 160q8 0 97 -78q0 -12 -47 -46q-41 -36 -51 -36q-9 0 -92 70q-5 0 -6 10q22 26 94 78l4 2v0v1z
" />
    <glyph glyph-name="uni1D34" unicode="&#x1d34;" horiz-adv-x="790" 
d="M552 726q35 -6 50 -6h38q20 0 63 2q4 -8 6 -8q-2 -28 -2 -31q-5 -430 -19 -430q-8 -45 -32 -271q-14 -72 -18 -82q-10 2 -21 16q-2 173 -2 264v246q0 134 -7 212q4 7 4 19q0 16 -56 35q0 6 -8 32l4 2v0zM170 618h8q12 0 96 -77v-6q-20 -20 -90 -75h-6q-11 0 -96 76v6
q10 14 90 78v0zM380 438q44 -28 44 -73q22 -206 33 -206q18 -16 18 -66q0 -17 26 -84v-4q-2 -6 -17 -6h-138q-6 0 -42 -12q-8 12 -8 30v3q16 26 78 46q12 14 12 30q0 6 -10 19l6 120q0 48 -8 200l4 2v0v1h2z" />
    <glyph glyph-name="uni1D35" unicode="&#x1d35;" horiz-adv-x="924" 
d="M308 726q35 -6 49 -6h39q20 0 63 2q4 -10 6 -10q0 -4 -2 -22q-5 -442 -21 -442q-27 -250 -39 -298q-5 -46 -9 -50q-22 0 -22 54v256q0 366 -8 430q4 6 4 12q0 22 -55 40l-8 32l4 2h-1zM638 718q32 -12 40 -12h150q16 0 17 -5q0 -12 -64 -144q-25 0 -39 -96h-3
q-33 9 -33 25q-2 49 -2 77v28q0 13 12 31v4q0 24 -56 32q-7 0 -32 28v4q2 30 10 30v0v-2zM82 538q2 0 2 -2q43 -2 63 -2h126q11 0 14 -7v-22q0 -18 -19 -22q-18 -22 -60 -96q-32 -8 -46 -8l-2 4v46q0 12 12 32q0 24 -68 32q-16 0 -24 44q2 0 2 2v0v0v1v-2z" />
    <glyph glyph-name="uni1D36" unicode="&#x1d36;" horiz-adv-x="806" 
d="M220 714h4q45 -42 63 -92q42 0 58 -38q76 -100 76 -118q0 -22 16 -30q42 -30 42 -58v-10q-58 22 -58 36q-42 62 -156 149q-22 10 -48 54q-8 4 -16 4h-26q-8 0 -50 -20q-8 0 -46 8v4q24 8 140 109v0zM604 562q42 -32 42 -62q24 -218 36 -218q16 -11 16 -61q3 -26 27 -90
q-7 -6 -15 -6h-136q-9 0 -49 -12q-6 26 -6 34q18 26 78 46q12 12 12 20v10q0 10 -10 18l2 8q2 66 6 106l-8 206l4 2zM148 402q35 -14 44 -14h146q3 0 6 -6v-4q-24 -54 -31 -135q-29 -30 -29 -88q-20 -160 -26 -172q-28 -28 -36 -33q0 4 -4 4q6 87 8 197q0 28 -6 124
q10 6 10 22v2q0 24 -66 44q-24 20 -24 30q0 14 7 32v0v0v1z" />
    <glyph glyph-name="uni1D37" unicode="&#x1d37;" 
d="M790 720q12 -4 12 -8v-150l-2 -4q-26 4 -46 28q-26 6 -37 21q0 6 -18 10q-10 0 -20 -6q-60 6 -103 6q-154 0 -474 -2q-20 7 -20 21q58 20 454 48q48 18 256 36v0h-2zM792 496q10 -2 10 -5v-150q0 -4 -4 -4q-36 7 -36 23q-10 6 -34 11q-18 22 -29 22h-8q-2 0 -16 -4
q-64 4 -88 4h-416q-26 0 -68 -2q-24 6 -24 21q64 22 449 49q127 30 208 30q0 1 55 5v0h1zM386 328q32 -13 50 -13h152q4 -1 4 -4v-4q-60 -143 -70 -144q-16 0 -32 -92h-2q-34 6 -34 28q-2 72 -2 104l12 34q0 24 -60 30q-28 25 -28 30q3 30 10 31v0v0v1v-1z" />
    <glyph glyph-name="uni1D38" unicode="&#x1d38;" horiz-adv-x="922" 
d="M586 736q10 0 112 -92q32 -16 32 -30v-4q0 -16 -60 -46l-222 -170q-49 0 -101 -40q-186 -122 -200 -122h-1v2q0 30 120 128q38 37 50 37h7q10 0 23 -2q26 4 26 24q94 70 174 151q6 5 10 29q40 24 40 44q0 16 -22 48v2q6 40 14 40v0zM698 454q9 0 111 -90q28 -16 31 -32
q-1 -18 -65 -53l-218 -166q-52 0 -120 -53q-132 -83 -181 -111l-2 4q0 32 112 124q45 42 59 42q28 -2 31 -2q16 0 26 28q72 50 172 146q7 34 27 44q20 9 20 31q0 16 -22 46q4 40 16 40v0zM178 182q10 0 98 -78q0 -12 -47 -46q-41 -37 -51 -37q-12 0 -96 77l-2 4q6 11 92 77
q2 0 6 2v0v0v1v0z" />
    <glyph glyph-name="uni1D39" unicode="&#x1d39;" horiz-adv-x="781" 
d="M84 726q35 -6 50 -6h70q11 0 27 2q6 0 10 -12l-2 -13q-6 -448 -22 -448q-6 -30 -28 -252l-20 -96h-2q-20 8 -20 28v76q0 192 -2 540q-5 85 -5 97l4 10q0 26 -56 40l-8 34l4 2v-2zM390 550q44 -28 44 -72q22 -208 36 -208q16 -16 16 -72q0 -7 26 -79v-2q-2 -6 -12 -6h-142
l-43 -11q-6 15 -6 29v4q16 27 74 44q16 12 16 23v4q0 7 -10 23l6 120q0 48 -8 200l4 2zM580 430q42 -32 42 -63q24 -219 38 -219q16 -14 16 -74l26 -74v-2q-2 -6 -12 -6h-142l-44 -12h-2q0 5 -6 31q14 28 60 42q32 10 32 34q0 7 -10 21q0 24 6 118q0 13 -8 203l4 2v0v1v-2z
" />
    <glyph glyph-name="uni1D3A" unicode="&#x1d3a;" horiz-adv-x="884" 
d="M462 723h6q76 -60 92 -76v-6q-76 -68 -96 -78q-10 0 -98 76v8q86 76 96 76v0v0zM792 360q8 -2 12 -8l-2 -14v-134q0 -4 -4 -4q-20 0 -42 27q-36 8 -36 19q-14 10 -21 10h-5q-8 0 -16 -6q-44 6 -92 6h-282q-72 0 -202 -2q-14 0 -22 22q68 22 452 48q60 18 189 30
q11 0 71 6v0v0zM794 135q8 -3 8 -6v-150l-2 -3q-22 0 -48 30q-24 0 -38 22q-3 0 -8 4h-14l-14 -4q-16 0 -82 6q-184 -2 -292 -2h-202q-14 0 -22 20q0 6 122 22q396 29 396 44q114 12 196 18v0v0v1v-2z" />
    <glyph glyph-name="uni1D3C" unicode="&#x1d3c;" horiz-adv-x="911" 
d="M624 720q34 -12 46 -12h148q10 0 13 -7q-58 -136 -66 -142q-22 0 -36 -94l-4 -2q-32 6 -32 32q-2 26 -4 96q4 16 14 38q0 24 -56 31q-8 0 -34 30q5 32 10 32v0zM328 710q48 -4 80 -4h121q7 -2 7 -14v-12q0 -18 -26 -30q-28 -44 -55 -90q-7 -4 -46 -10l-2 4v32l-2 12
q6 26 12 32v10q0 16 -62 24q-24 7 -24 31q-4 0 -5 13v2h2zM522 454q10 0 112 -90q32 -16 32 -34q-2 -15 -62 -48l-222 -168q-51 0 -120 -53q-122 -78 -180 -110l-2 4q0 32 112 124q45 42 59 42q5 0 29 -2q20 0 27 24q90 68 170 144q6 8 15 36q37 20 37 44q0 18 -20 42v6
q0 38 14 38v0v0v1h-1z" />
    <glyph glyph-name="uni1D3E" unicode="&#x1d3e;" horiz-adv-x="666" 
d="M374 724q40 -12 50 -12h148q11 0 14 -7q-61 -142 -65 -142q-24 0 -36 -94l-4 -2q-35 7 -35 33v18q0 28 -2 76q5 18 14 40q0 22 -64 30l-26 28l6 32v0zM84 714q42 -4 78 -4h120q8 -2 8 -18v-2q0 -30 -20 -30q-12 -12 -62 -99l-44 -8q-2 4 -2 6q0 16 -2 42q4 20 13 32v4
q0 22 -44 26q-40 7 -40 23q-4 16 -8 25l4 2zM210 388h6q70 -54 92 -76v-6q-85 -76 -96 -76h-2q-10 0 -96 74v8q86 76 96 76v0v0v1v-1z" />
    <glyph glyph-name="uni1D3F" unicode="&#x1d3f;" horiz-adv-x="836" 
d="M80 726h2q34 -6 50 -6h72q10 0 30 2l6 -8q-7 -458 -19 -458q-8 -22 -30 -256l-20 -100h-2q-20 10 -20 22q-2 476 -2 596q0 16 -5 116l2 24q0 13 -52 31q-10 20 -10 36v0zM560 674q33 -14 44 -14h140q12 -1 12 -6l-24 -75q-6 -62 -10 -65q-24 -14 -36 -160
q-12 -100 -18 -100q-16 -18 -34 -32q0 4 -4 4q8 152 8 200l-6 118q10 16 10 24v4q0 24 -64 42l-26 26v4q0 20 8 32v0v-2zM306 432q40 -4 76 -4h124q6 -2 6 -12v-19q0 -12 -26 -24q-54 -92 -56 -92q-38 -7 -44 -7l-2 4v45q0 7 12 37q0 20 -64 28q-24 6 -24 32q-3 0 -4 12
q2 0 2 2v0v0v1v-3z" />
    <glyph glyph-name="uni1D40" unicode="&#x1d40;" 
d="M580 714q32 -13 50 -13h138q3 0 6 -6v-2q-30 -70 -30 -132q-32 -34 -32 -105q-20 -164 -28 -164l-30 -28h-2l-4 2q8 154 8 202l-6 120q6 0 9 22q0 26 -66 44l-24 26v4q1 30 9 30v0h2zM326 626q33 -11 40 -11h142q11 0 14 -8q-32 -74 -32 -136q-30 -28 -30 -92
q-20 -172 -28 -172l-32 -30q-4 0 -4 4q5 157 5 198q0 45 -5 121q5 0 9 18v6q0 24 -64 42q-26 22 -26 32q5 28 10 28v0h1zM794 150q8 -2 8 -5v-150l-2 -4q-36 8 -36 20q-8 8 -38 15q-11 20 -27 20h-8l-14 -4q-16 0 -82 6q-184 -2 -292 -2h-202q-14 0 -21 20q56 22 444 48
q130 31 206 31q0 2 64 5v0v0v1v-1z" />
    <glyph glyph-name="uni1D41" unicode="&#x1d41;" horiz-adv-x="850" 
d="M390 740q34 -14 44 -14h146q3 0 6 -6v-4q-30 -71 -30 -133q-32 -32 -32 -106q-20 -158 -28 -158q-18 -22 -33 -34q0 4 -4 4q6 87 8 199q0 26 -6 122q10 6 10 22v2q0 24 -66 44q-24 22 -24 25v2q0 18 8 34v0zM610 726q30 -6 46 -6h104q2 0 8 -8q0 -4 -2 -22
q-7 -436 -17 -436q-24 -230 -52 -355h-2q-18 0 -20 35v234q0 410 -8 470q4 8 4 14q0 22 -56 38q0 3 -7 34q2 0 2 2v0v0zM164 704q40 -37 40 -55q24 -224 35 -224q14 -16 14 -32q1 -49 29 -119v-2q0 -3 -6 -7h-146q-10 0 -44 -14q-5 0 -8 32v4q15 27 75 45q14 14 14 24v4
q0 6 -10 22l6 118q0 42 -8 201l6 4v0v1z" />
    <glyph glyph-name="uni1D42" unicode="&#x1d42;" 
d="M594 636q44 -4 84 -4h114q6 -2 6 -12v-16q0 -18 -24 -27l-56 -91q-8 -4 -47 -10l-2 4v46q0 9 12 35q0 20 -64 28q-24 7 -24 31q-4 0 -4 12l4 2zM348 570h6q40 -35 64 -90q48 -10 48 -24q86 -118 86 -128q2 -12 2 -26q56 -34 56 -67v-6q0 -4 -4 -4q-55 24 -65 52
q-72 82 -142 129q-34 24 -52 60q-24 4 -29 4q-24 0 -63 -22l-46 7v2q39 23 138 113v0h1zM788 160q14 -3 14 -8v-152h-4q-22 0 -42 24q-28 10 -34 15q0 10 -24 18h-2q-10 0 -20 -6q-56 6 -98 6h-36q-150 0 -440 -2q-20 8 -20 22v2q70 18 452 46q56 18 212 31q20 0 44 4v0v0v1
z" />
    <glyph glyph-name="uni1D43" unicode="&#x1d43;" horiz-adv-x="911" 
d="M624 720q34 -12 40 -12h154q10 0 13 -7q-58 -138 -65 -143q-22 0 -36 -94l-4 -2q-34 7 -34 33v38q0 22 -2 58l14 38q0 20 -64 30q-26 26 -26 30q6 30 10 30v0v1zM292 608q7 0 96 -76v-8q-88 -76 -98 -76t-97 76v8q87 76 99 76v0v0zM520 454h2q23 -8 112 -91
q30 -12 30 -28q2 0 2 -2q-1 -18 -65 -53l-218 -166q-51 0 -120 -53q-122 -78 -180 -110l-2 4q0 34 124 134q32 32 48 32q24 -2 27 -2q20 0 27 24q87 66 175 149q7 34 29 46q18 8 18 28v2q0 16 -22 46q5 40 14 40v0v0v1z" />
    <glyph glyph-name="uni1D47" unicode="&#x1d47;" horiz-adv-x="897" 
d="M814 718l4 -6v-150l-2 -4q-26 4 -40 22q0 8 -30 12q-18 24 -34 24q-5 0 -17 -6l-86 6q-352 -2 -491 -2q-16 0 -22 22q64 20 457 48q51 18 191 29q51 4 69 4v0zM520 454h2q23 -8 112 -91q30 -12 30 -28q2 0 2 -2q-1 -18 -65 -53l-218 -166q-51 0 -120 -53
q-122 -78 -180 -110l-2 4q0 34 124 134q32 32 48 32q24 -2 27 -2q24 4 24 22q100 80 154 130q32 28 32 52q39 22 39 46q0 16 -22 46q5 40 14 40v0zM660 166h12q90 -72 92 -78v-2q-3 -8 -93 -78h-12q-84 66 -91 76v6q7 10 91 76v0v0v1z" />
    <glyph glyph-name="uni1D48" unicode="&#x1d48;" horiz-adv-x="896" 
d="M84 726q35 -6 50 -6h38q20 0 63 2q5 -10 6 -10q-2 -20 -2 -23q-7 -446 -17 -446q-24 -234 -52 -342q-7 0 -21 16q-2 72 -2 104v265q0 287 -7 353q4 7 4 19q0 16 -56 35l-8 32l4 2v-1zM620 726q33 -14 50 -14h140q3 0 6 -6l-24 -74q-4 -74 -18 -74q-14 -20 -28 -128
q-12 -86 -27 -86q-18 -22 -23 -22q0 4 -4 4q8 114 8 155q0 17 -6 117q6 0 10 20v3q0 24 -66 44q-24 24 -24 27v2q0 17 7 31v0zM468 710q9 0 96 -76v-8q-88 -76 -96 -76q-12 0 -98 78v6q88 76 98 76v0v0v1v-1z" />
    <glyph glyph-name="uni1D49" unicode="&#x1d49;" 
d="M798 718l4 -6v-150l-2 -4q-26 4 -39 22q0 8 -30 12q-18 24 -33 24q-6 0 -18 -6l-86 6q-352 -2 -491 -2q-16 0 -22 22q64 20 457 48q52 18 193 29q52 4 68 4v0zM538 454q10 0 112 -90q32 -16 32 -34q0 -14 -60 -46l-223 -170q-52 0 -120 -53q-150 -96 -180 -111l-2 4
q0 34 124 134q32 32 48 32q24 -2 27 -2q20 0 26 24q100 76 170 144q6 8 16 36q36 20 36 44q0 18 -22 44q4 42 15 42v0zM252 412q7 0 96 -76v-6q-87 -78 -98 -78h-2q-77 55 -97 80q26 30 96 79h4v0v1h1z" />
    <glyph glyph-name="uni1D4D" unicode="&#x1d4d;" horiz-adv-x="920" 
d="M390 728q30 -14 48 -14h139q8 -4 8 -9q-32 -68 -32 -132q-28 -33 -28 -73q-24 -145 -32 -145l-32 -31q-4 0 -4 4q6 130 8 157l-8 116q6 0 10 18v7q0 24 -62 40q-28 24 -28 30q0 20 10 32v0h3zM696 454q24 -9 74 -57q35 -32 63 -50q6 -8 6 -16q0 -15 -59 -46l-224 -170
q-49 0 -113 -48q-138 -89 -188 -115l-2 4v2q2 32 124 132q34 32 48 32q24 -2 27 -2q20 0 30 26q89 68 174 150q5 30 19 38q26 13 26 31v7q0 16 -20 40v8q3 36 15 36v0v-2zM178 160q8 0 97 -78q0 -12 -47 -46q-41 -36 -51 -36q-9 0 -92 70q-5 0 -6 10q22 26 94 78l4 2v0v1z
" />
    <glyph glyph-name="uni1D4F" unicode="&#x1d4f;" 
d="M790 720q12 -4 12 -8v-150l-2 -4q-26 4 -46 28q-26 6 -37 21q0 6 -18 10q-10 0 -20 -6q-60 6 -103 6q-154 0 -474 -2q-20 7 -20 21q58 20 454 48q48 18 256 36v0h-2zM792 496q10 -2 10 -5v-150q0 -4 -4 -4q-36 7 -36 23q-10 6 -34 11q-18 22 -29 22h-8q-2 0 -16 -4
q-64 4 -88 4h-416q-26 0 -68 -2q-24 6 -24 21q64 22 449 49q127 30 208 30q0 1 55 5v0h1zM386 328q32 -13 50 -13h152q4 -1 4 -4v-4q-60 -143 -70 -144q-16 0 -32 -92h-2q-34 6 -34 28q-2 72 -2 104l12 34q0 24 -60 30q-28 25 -28 30q3 30 10 31v0v0v1v-1z" />
    <glyph glyph-name="uni1D50" unicode="&#x1d50;" horiz-adv-x="781" 
d="M84 726q35 -6 50 -6h70q11 0 27 2q6 0 10 -12l-2 -13q-6 -448 -22 -448q-6 -30 -28 -252l-20 -96h-2q-20 8 -20 28v76q0 192 -2 540q-5 85 -5 97l4 10q0 26 -56 40l-8 34l4 2v-2zM390 550q44 -28 44 -72q22 -208 36 -208q16 -16 16 -72q0 -7 26 -79v-2q-2 -6 -12 -6h-142
l-43 -11q-6 15 -6 29v4q16 27 74 44q16 12 16 23v4q0 7 -10 23l6 120q0 48 -8 200l4 2zM580 430q42 -32 42 -63q24 -219 38 -219q16 -14 16 -74l26 -74v-2q-2 -6 -12 -6h-142l-44 -12h-2q0 5 -6 31q14 28 60 42q32 10 32 34q0 7 -10 21q0 24 6 118q0 13 -8 203l4 2v0v1v-2z
" />
    <glyph glyph-name="uni1D52" unicode="&#x1d52;" horiz-adv-x="911" 
d="M624 720q34 -12 46 -12h148q10 0 13 -7q-58 -136 -66 -142q-22 0 -36 -94l-4 -2q-32 6 -32 32q-2 26 -4 96q4 16 14 38q0 24 -56 31q-8 0 -34 30q5 32 10 32v0zM328 710q48 -4 80 -4h121q7 -2 7 -14v-12q0 -18 -26 -30q-28 -44 -55 -90q-7 -4 -46 -10l-2 4v32l-2 12
q6 26 12 32v10q0 16 -62 24q-24 7 -24 31q-4 0 -5 13v2h2zM522 454q10 0 112 -90q32 -16 32 -34q-2 -15 -62 -48l-222 -168q-51 0 -120 -53q-122 -78 -180 -110l-2 4q0 32 112 124q45 42 59 42q5 0 29 -2q20 0 27 24q90 68 170 144q6 8 15 36q37 20 37 44q0 18 -20 42v6
q0 38 14 38v0v0v1h-1z" />
    <glyph glyph-name="uni1D56" unicode="&#x1d56;" horiz-adv-x="666" 
d="M374 724q40 -12 50 -12h148q11 0 14 -7q-61 -142 -65 -142q-24 0 -36 -94l-4 -2q-35 7 -35 33v18q0 28 -2 76q5 18 14 40q0 22 -64 30l-26 28l6 32v0zM84 714q42 -4 78 -4h120q8 -2 8 -18v-2q0 -30 -20 -30q-12 -12 -62 -99l-44 -8q-2 4 -2 6q0 16 -2 42q4 20 13 32v4
q0 22 -44 26q-40 7 -40 23q-4 16 -8 25l4 2zM210 388h6q70 -54 92 -76v-6q-85 -76 -96 -76h-2q-10 0 -96 74v8q86 76 96 76v0v0v1v-1z" />
    <glyph glyph-name="uni1D57" unicode="&#x1d57;" 
d="M580 714q32 -13 50 -13h138q3 0 6 -6v-2q-30 -70 -30 -132q-32 -34 -32 -105q-20 -164 -28 -164l-30 -28h-2l-4 2q8 154 8 202l-6 120q6 0 9 22q0 26 -66 44l-24 26v4q1 30 9 30v0h2zM326 626q33 -11 40 -11h142q11 0 14 -8q-32 -74 -32 -136q-30 -28 -30 -92
q-20 -172 -28 -172l-32 -30q-4 0 -4 4q5 157 5 198q0 45 -5 121q5 0 9 18v6q0 24 -64 42q-26 22 -26 32q5 28 10 28v0h1zM794 150q8 -2 8 -5v-150l-2 -4q-36 8 -36 20q-8 8 -38 15q-11 20 -27 20h-8l-14 -4q-16 0 -82 6q-184 -2 -292 -2h-202q-14 0 -21 20q56 22 444 48
q130 31 206 31q0 2 64 5v0v0v1v-1z" />
    <glyph glyph-name="uni1D58" unicode="&#x1d58;" horiz-adv-x="850" 
d="M390 740q34 -14 44 -14h146q3 0 6 -6v-4q-30 -71 -30 -133q-32 -32 -32 -106q-20 -158 -28 -158q-18 -22 -33 -34q0 4 -4 4q6 87 8 199q0 26 -6 122q10 6 10 22v2q0 24 -66 44q-24 22 -24 25v2q0 18 8 34v0zM610 726q30 -6 46 -6h104q2 0 8 -8q0 -4 -2 -22
q-7 -436 -17 -436q-24 -230 -52 -355h-2q-18 0 -20 35v234q0 410 -8 470q4 8 4 14q0 22 -56 38q0 3 -7 34q2 0 2 2v0v0zM164 704q40 -37 40 -55q24 -224 35 -224q14 -16 14 -32q1 -49 29 -119v-2q0 -3 -6 -7h-146q-10 0 -44 -14q-5 0 -8 32v4q15 27 75 45q14 14 14 24v4
q0 6 -10 22l6 118q0 42 -8 201l6 4v0v1z" />
    <glyph glyph-name="uni1D5B" unicode="&#x1d5b;" horiz-adv-x="987" 
d="M222 733q46 -38 66 -90l44 -16q90 -131 90 -136q1 -36 19 -36q42 -32 42 -67l-4 -2q-60 28 -60 44q-52 68 -136 130q-38 24 -64 68q-18 4 -26 4q-28 0 -63 -22q-48 7 -48 11q22 7 142 113v0zM758 673h2q28 -16 98 -80q44 -30 46 -40v-4q0 -16 -56 -44q-102 -76 -228 -174
q-52 0 -100 -40q-160 -102 -200 -122l-2 4v2q0 33 154 155q6 6 18 9q14 -2 22 -2h6q20 0 25 24q85 62 177 152q5 28 21 38q26 13 26 29v6q0 16 -22 44q0 24 14 42v0zM702 154q47 -4 86 -4h112q8 -1 8 -19q0 -24 -18 -29q-6 0 -63 -96q-10 -4 -44 -10l-2 4q-2 35 -2 44
q0 6 12 38q0 20 -62 27q-22 6 -22 22q-2 0 -7 22l3 2v0v1z" />
    <glyph glyph-name="uni1D61" unicode="&#x1d61;" horiz-adv-x="901" 
d="M184 676q10 0 97 -76v-6q-88 -78 -97 -78q-8 0 -96 76l-2 4q20 26 94 80h4v0zM676 672h4q9 0 117 -95q18 0 26 -28q-4 -16 -55 -42q-106 -77 -231 -174q-52 0 -112 -48q-179 -114 -189 -114q-2 4 -2 6q0 33 161 160q11 2 11 4l10 -2h22q16 0 22 24q83 60 174 150
q6 10 10 30q38 20 38 42v4q0 12 -20 44v2q1 34 13 38v0zM790 162q12 -4 12 -8v-150l-2 -4q-26 3 -46 27q-26 6 -38 21q0 6 -18 10h-2q-10 0 -20 -6q-56 6 -98 6h-36q-150 0 -440 -2q-20 8 -20 22q53 20 434 46q140 30 206 30q6 2 70 8v0v0v1z" />
    <glyph glyph-name="uni1D62" unicode="&#x1d62;" horiz-adv-x="924" 
d="M308 726q35 -6 49 -6h39q20 0 63 2q4 -10 6 -10q0 -4 -2 -22q-5 -442 -21 -442q-27 -250 -39 -298q-5 -46 -9 -50q-22 0 -22 54v256q0 366 -8 430q4 6 4 12q0 22 -55 40l-8 32l4 2h-1zM638 718q32 -12 40 -12h150q16 0 17 -5q0 -12 -64 -144q-25 0 -39 -96h-3
q-33 9 -33 25q-2 49 -2 77v28q0 13 12 31v4q0 24 -56 32q-7 0 -32 28v4q2 30 10 30v0v-2zM82 538q2 0 2 -2q43 -2 63 -2h126q11 0 14 -7v-22q0 -18 -19 -22q-18 -22 -60 -96q-32 -8 -46 -8l-2 4v46q0 12 12 32q0 24 -68 32q-16 0 -24 44q2 0 2 2v0v0v1v-2z" />
    <glyph glyph-name="uni1D63" unicode="&#x1d63;" horiz-adv-x="836" 
d="M80 726h2q34 -6 50 -6h72q10 0 30 2l6 -8q-7 -458 -19 -458q-8 -22 -30 -256l-20 -100h-2q-20 10 -20 22q-2 476 -2 596q0 16 -5 116l2 24q0 13 -52 31q-10 20 -10 36v0zM560 674q33 -14 44 -14h140q12 -1 12 -6l-24 -75q-6 -62 -10 -65q-24 -14 -36 -160
q-12 -100 -18 -100q-16 -18 -34 -32q0 4 -4 4q8 152 8 200l-6 118q10 16 10 24v4q0 24 -64 42l-26 26v4q0 20 8 32v0v-2zM306 432q40 -4 76 -4h124q6 -2 6 -12v-19q0 -12 -26 -24q-54 -92 -56 -92q-38 -7 -44 -7l-2 4v45q0 7 12 37q0 20 -64 28q-24 6 -24 32q-3 0 -4 12
q2 0 2 2v0v0v1v-3z" />
    <glyph glyph-name="uni1D64" unicode="&#x1d64;" horiz-adv-x="850" 
d="M390 740q34 -14 44 -14h146q3 0 6 -6v-4q-30 -71 -30 -133q-32 -32 -32 -106q-20 -158 -28 -158q-18 -22 -33 -34q0 4 -4 4q6 87 8 199q0 26 -6 122q10 6 10 22v2q0 24 -66 44q-24 22 -24 25v2q0 18 8 34v0zM610 726q30 -6 46 -6h104q2 0 8 -8q0 -4 -2 -22
q-7 -436 -17 -436q-24 -230 -52 -355h-2q-18 0 -20 35v234q0 410 -8 470q4 8 4 14q0 22 -56 38q0 3 -7 34q2 0 2 2v0v0zM164 704q40 -37 40 -55q24 -224 35 -224q14 -16 14 -32q1 -49 29 -119v-2q0 -3 -6 -7h-146q-10 0 -44 -14q-5 0 -8 32v4q15 27 75 45q14 14 14 24v4
q0 6 -10 22l6 118q0 42 -8 201l6 4v0v1z" />
    <glyph glyph-name="uni1D65" unicode="&#x1d65;" horiz-adv-x="987" 
d="M222 733q46 -38 66 -90l44 -16q90 -131 90 -136q1 -36 19 -36q42 -32 42 -67l-4 -2q-60 28 -60 44q-52 68 -136 130q-38 24 -64 68q-18 4 -26 4q-28 0 -63 -22q-48 7 -48 11q22 7 142 113v0zM758 673h2q28 -16 98 -80q44 -30 46 -40v-4q0 -16 -56 -44q-102 -76 -228 -174
q-52 0 -100 -40q-160 -102 -200 -122l-2 4v2q0 33 154 155q6 6 18 9q14 -2 22 -2h6q20 0 25 24q85 62 177 152q5 28 21 38q26 13 26 29v6q0 16 -22 44q0 24 14 42v0zM702 154q47 -4 86 -4h112q8 -1 8 -19q0 -24 -18 -29q-6 0 -63 -96q-10 -4 -44 -10l-2 4q-2 35 -2 44
q0 6 12 38q0 20 -62 27q-22 6 -22 22q-2 0 -7 22l3 2v0v1z" />
    <glyph glyph-name="uni1D68" unicode="&#x1d68;" horiz-adv-x="666" 
d="M374 724q40 -12 50 -12h148q11 0 14 -7q-61 -142 -65 -142q-24 0 -36 -94l-4 -2q-35 7 -35 33v18q0 28 -2 76q5 18 14 40q0 22 -64 30l-26 28l6 32v0zM84 714q42 -4 78 -4h120q8 -2 8 -18v-2q0 -30 -20 -30q-12 -12 -62 -99l-44 -8q-2 4 -2 6q0 16 -2 42q4 20 13 32v4
q0 22 -44 26q-40 7 -40 23q-4 16 -8 25l4 2zM210 388h6q70 -54 92 -76v-6q-85 -76 -96 -76h-2q-10 0 -96 74v8q86 76 96 76v0v0v1v-1z" />
    <glyph glyph-name="uni1D6A" unicode="&#x1d6a;" horiz-adv-x="901" 
d="M184 676q10 0 97 -76v-6q-88 -78 -97 -78q-8 0 -96 76l-2 4q20 26 94 80h4v0zM676 672h4q9 0 117 -95q18 0 26 -28q-4 -16 -55 -42q-106 -77 -231 -174q-52 0 -112 -48q-179 -114 -189 -114q-2 4 -2 6q0 33 161 160q11 2 11 4l10 -2h22q16 0 22 24q83 60 174 150
q6 10 10 30q38 20 38 42v4q0 12 -20 44v2q1 34 13 38v0zM790 162q12 -4 12 -8v-150l-2 -4q-26 3 -46 27q-26 6 -38 21q0 6 -18 10h-2q-10 0 -20 -6q-56 6 -98 6h-36q-150 0 -440 -2q-20 8 -20 22q53 20 434 46q140 30 206 30q6 2 70 8v0v0v1z" />
    <glyph glyph-name="uni1D9C" unicode="&#x1d9c;" 
d="M790 720q12 -4 12 -8v-150l-2 -4q-26 4 -46 28q-26 6 -37 21q0 6 -18 10q-10 0 -20 -6q-60 6 -103 6q-154 0 -474 -2q-20 7 -20 21q58 20 454 48q48 18 256 36v0h-2zM792 496q10 -2 10 -5v-150q0 -4 -4 -4q-36 7 -36 23q-10 6 -34 11q-18 22 -29 22h-8q-2 0 -16 -4
q-64 4 -88 4h-416q-26 0 -68 -2q-24 6 -24 21q64 22 449 49q127 30 208 30q0 1 55 5v0h1zM386 328q32 -13 50 -13h152q4 -1 4 -4v-4q-60 -143 -70 -144q-16 0 -32 -92h-2q-34 6 -34 28q-2 72 -2 104l12 34q0 24 -60 30q-28 25 -28 30q3 30 10 31v0v0v1v-1z" />
    <glyph glyph-name="uni1DA0" unicode="&#x1da0;" horiz-adv-x="823" 
d="M586 726q35 -6 51 -6h40q20 0 60 2l7 -12l-2 -13q-6 -446 -21 -446l-32 -274l-16 -77h-2q-20 8 -20 28v4q0 236 -2 606l-6 98q1 16 4 16q0 24 -56 38l-8 34l4 2h-1zM372 610q34 -14 44 -14h156q3 0 6 -6v-2q-44 -104 -66 -141q-24 0 -34 -94h-4q-34 0 -34 40q-2 24 -2 72
v12q0 14 11 42q0 22 -58 30q-5 0 -31 28v1q0 26 10 32v0h2zM86 400h2l44 -12h146q3 0 8 -8q-32 -74 -32 -136q-26 -14 -34 -122q-16 -144 -26 -144l-30 -28q-4 0 -4 4l8 202q-6 72 -6 121q5 0 8 16v8q0 22 -66 42l-24 26q0 5 6 33v0v0v1v-3z" />
    <glyph glyph-name="uni1DBB" unicode="&#x1dbb;" horiz-adv-x="901" 
d="M624 740q35 -14 44 -14h146q3 0 9 -8q-26 -48 -35 -138q-16 0 -29 -89q-16 -176 -30 -176q-24 -24 -32 -24q5 168 5 200q0 40 -5 122q5 0 9 18v8q0 22 -58 38q-14 9 -32 29q0 18 8 34v0v0zM86 738h2q39 -12 50 -12h140q3 0 8 -8q-30 -66 -30 -130q-34 -40 -34 -116
q-18 -154 -26 -154l-32 -31q-4 0 -4 4l8 202q-6 78 -6 121q4 0 10 20q0 26 -68 46l-24 26q0 5 6 33v0v-1zM366 726q32 -6 48 -6h106q1 0 7 -6q-10 -458 -21 -458q-10 -34 -32 -266q-16 -82 -20 -90h-2q-5 0 -17 16q-2 232 -2 355v220q0 56 -8 148q4 6 4 12v2q0 24 -48 34
q-8 0 -17 38q2 0 2 2v0v0v1v-2z" />
    <glyph glyph-name="uni1E90" unicode="&#x1e90;" horiz-adv-x="901" 
d="M-42.8369 850q117 106 126 108q5 2 11 2q3 0 10 -1t11 -1q7 0 13 2q10 4 12 12q2 9 7 13q2 2 52 42q43 34 67 56l23 23q13 11 17 17q14 14 15 34q4 6 14 13q11 7 15 10q11 10 11 24q0 8 -3 16q-2 5 -10 17q-8 10 -8 14q0 32 12 40q1 -2 15 -10q16 -9 24 -17
q68 -62 84 -70q17 -7 17 -21v-1q-1 -16 -25 -26q-20 -8 -134 -96q-116 -88 -115 -88q-1 -1 -20 -3q-20 -1 -36 -9q-8 -4 -126 -80q-108 -69 -115 -69h-1q-1 1 -1 3q0 6 7 18q11 20 27 34v0zM-13.8369 1544q36 -14 43 -14h142q10 0 10 -6q0 -4 -2 -8q-20 -46 -22 -56
q-3 -10 -7 -68q-26 -51 -27 -55q-22 -186 -25 -195q-2 -8 -34 -36q-2 -2 -3 -2q-3 0 -3 5v2q8 125 8 181v18l-6 110q10 10 10 22q0 5 -2 10q-6 16 -24 21l-32 12q-6 1 -28 25q-1 2 -1 5q0 10 6 30v0zM500.163 1544q36 -14 44 -14h141q10 0 10 -6q0 -4 -2 -8q-18 -46 -22 -56
q-3 -10 -7 -68q-26 -51 -27 -55q-22 -186 -25 -195q-2 -8 -34 -36q-2 -2 -3 -2q-3 0 -3 5v2q8 124 8 182v18l-6 110q10 10 10 22q0 5 -2 10q-6 16 -24 21l-32 12q-6 1 -28 25q-1 2 -1 5q0 10 6 30v0v0v1zM624 740q35 -14 44 -14h146q3 0 9 -8q-26 -48 -35 -138
q-16 0 -29 -89q-16 -176 -30 -176q-24 -24 -32 -24q5 168 5 200q0 40 -5 122q5 0 9 18v8q0 22 -58 38q-14 9 -32 29q0 18 8 34v0v0zM86 738h2q39 -12 50 -12h140q3 0 8 -8q-30 -66 -30 -130q-34 -40 -34 -116q-18 -154 -26 -154l-32 -31q-4 0 -4 4l8 202q-6 78 -6 121
q4 0 10 20q0 26 -68 46l-24 26q0 5 6 33v0v-1zM366 726q32 -6 48 -6h106q1 0 7 -6q-10 -458 -21 -458q-10 -34 -32 -266q-16 -82 -20 -90h-2q-5 0 -17 16q-2 232 -2 355v220q0 56 -8 148q4 6 4 12v2q0 24 -48 34q-8 0 -17 38q2 0 2 2v0v0v1v-2z" />
    <glyph glyph-name="uni1E91" unicode="&#x1e91;" horiz-adv-x="901" 
d="M-42.8369 850q117 106 126 108q5 2 11 2q3 0 10 -1t11 -1q7 0 13 2q10 4 12 12q2 9 7 13q2 2 52 42q43 34 67 56l23 23q13 11 17 17q14 14 15 34q4 6 14 13q11 7 15 10q11 10 11 24q0 8 -3 16q-2 5 -10 17q-8 10 -8 14q0 32 12 40q1 -2 15 -10q16 -9 24 -17
q68 -62 84 -70q17 -7 17 -21v-1q-1 -16 -25 -26q-20 -8 -134 -96q-116 -88 -115 -88q-1 -1 -20 -3q-20 -1 -36 -9q-8 -4 -126 -80q-108 -69 -115 -69h-1q-1 1 -1 3q0 6 7 18q11 20 27 34v0zM-13.8369 1544q36 -14 43 -14h142q10 0 10 -6q0 -4 -2 -8q-20 -46 -22 -56
q-3 -10 -7 -68q-26 -51 -27 -55q-22 -186 -25 -195q-2 -8 -34 -36q-2 -2 -3 -2q-3 0 -3 5v2q8 125 8 181v18l-6 110q10 10 10 22q0 5 -2 10q-6 16 -24 21l-32 12q-6 1 -28 25q-1 2 -1 5q0 10 6 30v0zM500.163 1544q36 -14 44 -14h141q10 0 10 -6q0 -4 -2 -8q-18 -46 -22 -56
q-3 -10 -7 -68q-26 -51 -27 -55q-22 -186 -25 -195q-2 -8 -34 -36q-2 -2 -3 -2q-3 0 -3 5v2q8 124 8 182v18l-6 110q10 10 10 22q0 5 -2 10q-6 16 -24 21l-32 12q-6 1 -28 25q-1 2 -1 5q0 10 6 30v0v0v1zM624 740q35 -14 44 -14h146q3 0 9 -8q-26 -48 -35 -138
q-16 0 -29 -89q-16 -176 -30 -176q-24 -24 -32 -24q5 168 5 200q0 40 -5 122q5 0 9 18v8q0 22 -58 38q-14 9 -32 29q0 18 8 34v0v0zM86 738h2q39 -12 50 -12h140q3 0 8 -8q-30 -66 -30 -130q-34 -40 -34 -116q-18 -154 -26 -154l-32 -31q-4 0 -4 4l8 202q-6 78 -6 121
q4 0 10 20q0 26 -68 46l-24 26q0 5 6 33v0v-1zM366 726q32 -6 48 -6h106q1 0 7 -6q-10 -458 -21 -458q-10 -34 -32 -266q-16 -82 -20 -90h-2q-5 0 -17 16q-2 232 -2 355v220q0 56 -8 148q4 6 4 12v2q0 24 -48 34q-8 0 -17 38q2 0 2 2v0v0v1v-2z" />
    <glyph glyph-name="uni2000" unicode="&#x2000;" horiz-adv-x="512" 
 />
    <glyph glyph-name="uni2001" unicode="&#x2001;" horiz-adv-x="1024" 
 />
    <glyph glyph-name="uni2002" unicode="&#x2002;" horiz-adv-x="512" 
 />
    <glyph glyph-name="uni2003" unicode="&#x2003;" horiz-adv-x="1024" 
 />
    <glyph glyph-name="uni2004" unicode="&#x2004;" horiz-adv-x="341" 
 />
    <glyph glyph-name="uni2005" unicode="&#x2005;" horiz-adv-x="256" 
 />
    <glyph glyph-name="uni2006" unicode="&#x2006;" horiz-adv-x="170" 
 />
    <glyph glyph-name="uni2007" unicode="&#x2007;" horiz-adv-x="898" 
 />
    <glyph glyph-name="uni2008" unicode="&#x2008;" horiz-adv-x="644" 
 />
    <glyph glyph-name="uni2009" unicode="&#x2009;" horiz-adv-x="102" 
 />
    <glyph glyph-name="uni200A" unicode="&#x200a;" horiz-adv-x="10" 
 />
    <glyph glyph-name="uni200B" unicode="&#x200b;" horiz-adv-x="0" 
 />
    <glyph glyph-name="uni200C" unicode="&#x200c;" horiz-adv-x="0" 
 />
    <glyph glyph-name="uni200D" unicode="&#x200d;" horiz-adv-x="0" 
 />
    <glyph glyph-name="uni200E" unicode="&#x200e;" horiz-adv-x="341" 
 />
    <glyph glyph-name="uni200F" unicode="&#x200f;" horiz-adv-x="341" 
 />
    <glyph glyph-name="uni2010" unicode="&#x2010;" horiz-adv-x="409" 
d="M102 256v102h205v-102h-205z" />
    <glyph glyph-name="uni2011" unicode="&#x2011;" horiz-adv-x="409" 
d="M102 256v102h205v-102h-205z" />
    <glyph glyph-name="figuredash" unicode="&#x2012;" horiz-adv-x="898" 
d="M102 256v102h694v-102h-694z" />
    <glyph glyph-name="endash" unicode="&#x2013;" horiz-adv-x="512" 
d="M102 256v102h308v-102h-308z" />
    <glyph glyph-name="emdash" unicode="&#x2014;" horiz-adv-x="1024" 
d="M102 256v102h820v-102h-820z" />
    <glyph glyph-name="uni2015" unicode="&#x2015;" horiz-adv-x="2048" 
d="M102 256v102h1844v-102h-1844z" />
    <glyph glyph-name="quoteright" unicode="&#x2019;" horiz-adv-x="512" 
d="M350 606q-8 -1 -20 -9l-26 -40q-24 -40 -30 -54q-2 -5 -49 -11l-1 47v1q0 16 11 34q1 2 1 5q0 7 -7 13q-8 8 -16 9l-32 5q-7 1 -29 9q-4 6 -12 40q52 -4 60 -4h146q7 0 8 -11q2 -10 2 -17q0 -14 -6 -16v0v-1z" />
    <glyph glyph-name="onedotenleader" unicode="&#x2024;" horiz-adv-x="644" 
d="M199 293q34 -12 40 -12h154q10 0 13 -7q-58 -138 -65 -143q-22 0 -36 -94l-4 -2q-34 7 -34 33v38q0 22 -2 58l14 38q0 20 -64 30q-26 26 -26 30q6 30 10 30v0v1zM423 564q-8 -1 -20 -9l-26 -40q-24 -40 -30 -54q-2 -5 -49 -11l-1 47v1q0 16 11 34q1 2 1 5q0 7 -7 13
q-8 8 -16 9l-32 5q-7 1 -29 9q-4 6 -12 40q52 -4 60 -4h146q7 0 8 -11q2 -10 2 -17q0 -14 -6 -16v0v-1z" />
    <glyph glyph-name="twodotenleader" unicode="&#x2025;" horiz-adv-x="1288" 
d="M843 293q34 -12 40 -12h154q10 0 13 -7q-58 -138 -65 -143q-22 0 -36 -94l-4 -2q-34 7 -34 33v38q0 22 -2 58l14 38q0 20 -64 30q-26 26 -26 30q6 30 10 30v0v1zM1067 564q-8 -1 -20 -9l-26 -40q-24 -40 -30 -54q-2 -5 -49 -11l-1 47v1q0 16 11 34q1 2 1 5q0 7 -7 13
q-8 8 -16 9l-32 5q-7 1 -29 9q-4 6 -12 40q52 -4 60 -4h146q7 0 8 -11q2 -10 2 -17q0 -14 -6 -16v0v-1zM199 293q34 -12 40 -12h154q10 0 13 -7q-58 -138 -65 -143q-22 0 -36 -94l-4 -2q-34 7 -34 33v38q0 22 -2 58l14 38q0 20 -64 30q-26 26 -26 30q6 30 10 30v0v1z
M423 564q-8 -1 -20 -9l-26 -40q-24 -40 -30 -54q-2 -5 -49 -11l-1 47v1q0 16 11 34q1 2 1 5q0 7 -7 13q-8 8 -16 9l-32 5q-7 1 -29 9q-4 6 -12 40q52 -4 60 -4h146q7 0 8 -11q2 -10 2 -17q0 -14 -6 -16v0v-1z" />
    <glyph glyph-name="ellipsis" unicode="&#x2026;" horiz-adv-x="1932" 
d="M1487 293q34 -12 40 -12h154q10 0 13 -7q-58 -138 -65 -143q-22 0 -36 -94l-4 -2q-34 7 -34 33v38q0 22 -2 58l14 38q0 20 -64 30q-26 26 -26 30q6 30 10 30v0v1zM1711 564q-8 -1 -20 -9l-26 -40q-24 -40 -30 -54q-2 -5 -49 -11l-1 47v1q0 16 11 34q1 2 1 5q0 7 -7 13
q-8 8 -16 9l-32 5q-7 1 -29 9q-4 6 -12 40q52 -4 60 -4h146q7 0 8 -11q2 -10 2 -17q0 -14 -6 -16v0v-1zM843 293q34 -12 40 -12h154q10 0 13 -7q-58 -138 -65 -143q-22 0 -36 -94l-4 -2q-34 7 -34 33v38q0 22 -2 58l14 38q0 20 -64 30q-26 26 -26 30q6 30 10 30v0v1z
M1067 564q-8 -1 -20 -9l-26 -40q-24 -40 -30 -54q-2 -5 -49 -11l-1 47v1q0 16 11 34q1 2 1 5q0 7 -7 13q-8 8 -16 9l-32 5q-7 1 -29 9q-4 6 -12 40q52 -4 60 -4h146q7 0 8 -11q2 -10 2 -17q0 -14 -6 -16v0v-1zM199 293q34 -12 40 -12h154q10 0 13 -7q-58 -138 -65 -143
q-22 0 -36 -94l-4 -2q-34 7 -34 33v38q0 22 -2 58l14 38q0 20 -64 30q-26 26 -26 30q6 30 10 30v0v1zM423 564q-8 -1 -20 -9l-26 -40q-24 -40 -30 -54q-2 -5 -49 -11l-1 47v1q0 16 11 34q1 2 1 5q0 7 -7 13q-8 8 -16 9l-32 5q-7 1 -29 9q-4 6 -12 40q52 -4 60 -4h146
q7 0 8 -11q2 -10 2 -17q0 -14 -6 -16v0v-1z" />
    <glyph glyph-name="uni202A" unicode="&#x202a;" horiz-adv-x="0" 
 />
    <glyph glyph-name="minute" unicode="&#x2032;" horiz-adv-x="512" 
d="M350 606q-8 -1 -20 -9l-26 -40q-24 -40 -30 -54q-2 -5 -49 -11l-1 47v1q0 16 11 34q1 2 1 5q0 7 -7 13q-8 8 -16 9l-32 5q-7 1 -29 9q-4 6 -12 40q52 -4 60 -4h146q7 0 8 -11q2 -10 2 -17q0 -14 -6 -16v0v-1z" />
    <glyph glyph-name="second" unicode="&#x2033;" horiz-adv-x="1024" 
d="M862 606q-8 -1 -20 -9l-26 -40q-24 -40 -30 -54q-2 -5 -49 -11l-1 47v1q0 16 11 34q1 2 1 5q0 7 -7 13q-8 8 -16 9l-32 5q-7 1 -29 9q-4 6 -12 40q52 -4 60 -4h146q7 0 8 -11q2 -10 2 -17q0 -14 -6 -16v0v-1zM350 606q-8 -1 -20 -9l-26 -40q-24 -40 -30 -54
q-2 -5 -49 -11l-1 47v1q0 16 11 34q1 2 1 5q0 7 -7 13q-8 8 -16 9l-32 5q-7 1 -29 9q-4 6 -12 40q52 -4 60 -4h146q7 0 8 -11q2 -10 2 -17q0 -14 -6 -16v0v-1z" />
    <glyph glyph-name="uni2034" unicode="&#x2034;" horiz-adv-x="1536" 
d="M1374 606q-8 -1 -20 -9l-26 -40q-24 -40 -30 -54q-2 -5 -49 -11l-1 47v1q0 16 11 34q1 2 1 5q0 7 -7 13q-8 8 -16 9l-32 5q-7 1 -29 9q-4 6 -12 40q52 -4 60 -4h146q7 0 8 -11q2 -10 2 -17q0 -14 -6 -16v0v-1zM862 606q-8 -1 -20 -9l-26 -40q-24 -40 -30 -54
q-2 -5 -49 -11l-1 47v1q0 16 11 34q1 2 1 5q0 7 -7 13q-8 8 -16 9l-32 5q-7 1 -29 9q-4 6 -12 40q52 -4 60 -4h146q7 0 8 -11q2 -10 2 -17q0 -14 -6 -16v0v-1zM350 606q-8 -1 -20 -9l-26 -40q-24 -40 -30 -54q-2 -5 -49 -11l-1 47v1q0 16 11 34q1 2 1 5q0 7 -7 13
q-8 8 -16 9l-32 5q-7 1 -29 9q-4 6 -12 40q52 -4 60 -4h146q7 0 8 -11q2 -10 2 -17q0 -14 -6 -16v0v-1z" />
    </font>
</defs>
</svg>
