<?xml version="1.0" standalone="no"?>
<!DOCTYPE svg PUBLIC "-//W3C//DTD SVG 1.1//EN" "http://www.w3.org/Graphics/SVG/1.1/DTD/svg11.dtd">
<svg height="32" class="octicon octicon-law text-gray-dark float-left mr-2" viewBox="0 0 24 24" version="1.1" width="32" aria-hidden="true"
	xmlns="http://www.w3.org/2000/svg"
	xmlns:xlink="http://www.w3.org/1999/xlink" style="block-size:32px;display:block;fill:rgb(36, 41, 46);float:left;height:32px;inline-size:32px;margin-inline-end:8px;margin-right:8px;perspective-origin:16px 16px;transform-origin:16px 16px;vertical-align:text-bottom;width:32px;">
	<path fill-rule="evenodd" d="M12.75 2.75a.75.75 0 00-1.5 0V4.5H9.276a1.75 1.75 0 00-.985.303L6.596 5.957A.25.25 0 016.455 6H2.353a.75.75 0 100 1.5H3.93L.563 15.18a.762.762 0 00.21.88c.08.064.161.125.309.221.186.121.452.278.792.433.68.311 1.662.62 2.876.62a6.919 6.919 0 002.876-.62c.34-.155.606-.312.792-.433.15-.097.23-.158.31-.223a.75.75 0 00.209-.878L5.569 7.5h.886c.351 0 .694-.106.984-.303l1.696-1.154A.25.25 0 019.275 6h1.975v14.5H6.763a.75.75 0 000 1.5h10.474a.75.75 0 000-1.5H12.75V6h1.974c.05 0 .1.015.14.043l1.697 1.154c.29.197.633.303.984.303h.886l-3.368 7.68a.75.75 0 00.23.896c.012.009 0 0 .002 0a3.154 3.154 0 00.31.206c.185.112.45.256.79.4a7.343 7.343 0 002.855.568 7.343 7.343 0 002.856-.569c.338-.143.604-.287.79-.399a3.5 3.5 0 00.31-.206.75.75 0 00.23-.896L20.07 7.5h1.578a.75.75 0 000-1.5h-4.102a.25.25 0 01-.14-.043l-1.697-1.154a1.75 1.75 0 00-.984-.303H12.75V2.75zM2.193 15.198a5.418 5.418 0 002.557.635 5.418 5.418 0 002.557-.635L4.75 9.368l-2.557 5.83zm14.51-.024c.082.04.174.083.275.126.53.223 1.305.45 2.272.45a5.846 5.846 0 002.547-.576L19.25 9.367l-2.547 5.807z" style="block-size:auto;d:path(&quot;M 12.75 2.75 A 0.75 0.75 0 0 0 11.25 2.75 V 4.5 H 9.276 A 1.75 1.75 0 0 0 8.291 4.803 L 6.596 5.957 A 0.25 0.25 0 0 1 6.455 6 H 2.353 A 0.75 0.75 0 1 0 2.353 7.5 H 3.93 L 0.563 15.18 A 0.762 0.762 0 0 0 0.773 16.06 C 0.853 16.124 0.934 16.185 1.082 16.281 C 1.268 16.402 1.534 16.559 1.874 16.714 C 2.554 17.025 3.536 17.334 4.75 17.334 A 6.919 6.919 0 0 0 7.626 16.714 C 7.966 16.559 8.232 16.402 8.418 16.281 C 8.568 16.184 8.648 16.123 8.728 16.058 A 0.75 0.75 0 0 0 8.937 15.18 L 5.569 7.5 H 6.455 C 6.806 7.5 7.149 7.394 7.439 7.197 L 9.135 6.043 A 0.25 0.25 0 0 1 9.275 6 H 11.25 V 20.5 H 6.763 A 0.75 0.75 0 0 0 6.763 22 H 17.237 A 0.75 0.75 0 0 0 17.237 20.5 H 12.75 V 6 H 14.724 C 14.774 6 14.824 6.015 14.864 6.043 L 16.561 7.197 C 16.851 7.394 17.194 7.5 17.545 7.5 H 18.431 L 15.063 15.18 A 0.75 0.75 0 0 0 15.293 16.076 C 15.305 16.085 15.293 16.076 15.295 16.076 A 3.154 3.154 0 0 0 15.605 16.282 C 15.79 16.394 16.055 16.538 16.395 16.682 A 7.343 7.343 0 0 0 19.25 17.25 A 7.343 7.343 0 0 0 22.106 16.681 C 22.444 16.538 22.71 16.394 22.896 16.282 A 3.5 3.5 0 0 0 23.206 16.076 A 0.75 0.75 0 0 0 23.436 15.18 L 20.07 7.5 H 21.648 A 0.75 0.75 0 0 0 21.648 6 H 17.546 A 0.25 0.25 0 0 1 17.406 5.957 L 15.709 4.803 A 1.75 1.75 0 0 0 14.725 4.5 H 12.75 V 2.75 Z M 2.193 15.198 A 5.418 5.418 0 0 0 4.75 15.833 A 5.418 5.418 0 0 0 7.307 15.198 L 4.75 9.368 L 2.193 15.198 Z M 16.703 15.174 C 16.785 15.214 16.877 15.257 16.978 15.3 C 17.508 15.523 18.283 15.75 19.25 15.75 A 5.846 5.846 0 0 0 21.797 15.174 L 19.25 9.367 L 16.703 15.174 Z&quot;);fill:rgb(36, 41, 46);fill-rule:evenodd;height:auto;inline-size:auto;overflow-x:visible;overflow-y:visible;perspective-origin:0px 0px;transform-origin:0px 0px;width:auto;"/>
</svg>
